<svg xmlns="http://www.w3.org/2000/svg" xmlns:xlink="http://www.w3.org/1999/xlink" version="1.1" x="0px" y="0px" viewBox="0 0 100 125" enable-background="new 0 0 100 100" xml:space="preserve"><path d="M80.69,42.499c-5.491-0.475-9.878-5.488-9.878-5.488l-0.001,0.002c-3.154-4.241-5.874-7.741-10.938-7.943  c-3.957-0.158-7.538,1.599-9.878,4.434c-2.129-2.546-5.274-4.227-8.851-4.37c-6.046-0.242-8.22,2.779-12.404,9.71  c-0.228,0.321-3.957,5.467-9.193,6.509C14.141,46.428,7.25,40.027,7.25,40.027s6.556,14.706,16.539,18.611  c12.13,4.744,24.294-7.21,26.261-9.594c2.129,2.546,16.972,12.655,27.959,8.489C89.59,53.141,92.75,37.682,92.75,37.682  S86.181,42.974,80.69,42.499z"/><path d="M29.676,61.141c-2.211,0-4.363-0.403-6.397-1.199C12.88,55.875,6.248,41.219,5.971,40.598  C5.7,39.99,5.894,39.277,6.435,38.89c0.541-0.387,1.28-0.34,1.767,0.111c0.055,0.051,5.531,5.074,10.065,5.073  c0.352,0,0.69-0.032,1.007-0.095c4.546-0.904,7.929-5.402,8.297-5.908c4.138-6.852,6.739-10.613,13.629-10.337  c3.286,0.132,6.411,1.469,8.788,3.72c2.651-2.553,6.206-3.927,9.942-3.784c5.823,0.233,8.948,4.395,11.957,8.441  c0.319,0.352,4.257,4.589,8.925,4.993c4.892,0.423,11.002-4.466,11.061-4.513c0.461-0.37,1.104-0.412,1.606-0.105  c0.504,0.307,0.762,0.898,0.644,1.476c-0.135,0.662-3.455,16.269-15.617,20.88c-1.9,0.721-4.005,1.086-6.258,1.086  c-8.978,0-18.553-5.852-22.122-8.879C46.755,54.539,38.563,61.141,29.676,61.141z M11.406,44.736  c2.745,4.441,7.287,10.407,12.893,12.599c1.708,0.668,3.517,1.006,5.377,1.006c10.419,0,19.21-10.086,19.294-10.188  c0.265-0.321,0.659-0.507,1.075-0.509c0.001,0,0.003,0,0.004,0c0.415,0,0.808,0.184,1.074,0.502  c1.54,1.842,11.73,8.982,21.123,8.982c1.913,0,3.685-0.304,5.266-0.904c7.381-2.799,11.152-10.575,12.799-15.21  c-2.587,1.514-6.306,3.177-9.742,2.88c-5.71-0.495-10.19-5.272-10.756-5.9c-0.044-0.045-0.086-0.094-0.124-0.146  c-3.331-4.48-5.658-7.212-9.872-7.38c-3.377-0.137-6.586,1.313-8.742,3.926c-0.265,0.321-0.659,0.508-1.076,0.509  c-0.413-0.004-0.812-0.183-1.078-0.502c-1.955-2.338-4.81-3.748-7.833-3.869c-5.098-0.199-6.935,2.055-11.149,9.035  c-0.018,0.03-0.038,0.059-0.058,0.088c-0.43,0.605-4.365,5.937-10.061,7.071c-0.496,0.098-1.018,0.148-1.552,0.148  C15.903,46.874,13.463,45.893,11.406,44.736z"/><path fill="#000000" d="M91.164,39.872c0,0-6.697,6.386-13.221,6.051c-5.989-0.307-14.152-8.901-19.185-10.973  c-0.982-0.602-2.272-1.015-3.707-1.114c-2.448-0.17-4.608,0.618-5.578,1.882c-1.001-0.728-2.412-1.247-4.009-1.386  c-1.858-0.162-3.557,0.226-4.702,0.959c-6.332,2.497-10.928,10.21-15.941,10.65c-6.508,0.571-13.361-2.657-13.361-2.657  l-3.764-2.184c0,0,7.053,10.208,16.221,10.501c9.168,0.292,12.403-3.631,16.158-5.69c2.671-1.464,7.59-4.743,10.624-4.478  c6.962,0.608,11.989,4.471,11.989,4.471s6.994,5.978,16.162,5.679c9.168-0.299,12.794-11.357,12.794-11.357L91.164,39.872z"/><path d="M24.874,52.667c-0.322,0-0.653-0.005-0.991-0.016C14.297,52.345,7.132,42.132,6.832,41.697  c-0.28-0.404-0.241-0.948,0.093-1.309c0.333-0.361,0.873-0.442,1.298-0.196l3.721,2.159c0.498,0.227,5.859,2.608,11.287,2.608  c0.512,0,1.016-0.022,1.498-0.064c2.31-0.203,4.751-2.392,7.335-4.709c2.514-2.254,5.112-4.584,8.221-5.835  c1.373-0.845,3.258-1.242,5.27-1.065c1.378,0.12,2.681,0.502,3.759,1.093c1.345-1.133,3.494-1.751,5.808-1.59  c1.531,0.106,2.95,0.528,4.111,1.223c2.05,0.863,4.496,2.664,7.083,4.568c3.9,2.87,8.321,6.124,11.679,6.296  c5.978,0.299,12.381-5.704,12.443-5.763c0.368-0.35,0.934-0.388,1.345-0.086l0.481,0.353c0.366,0.269,0.517,0.742,0.377,1.173  c-0.158,0.48-3.969,11.761-13.759,12.079c-0.235,0.008-0.468,0.012-0.701,0.012c-0.001,0-0.001,0-0.001,0  c-9.119-0.001-15.892-5.699-16.176-5.942c-0.005-0.001-4.845-3.651-11.398-4.223c-2.211-0.188-5.978,2.016-8.448,3.451  c-0.58,0.337-1.114,0.647-1.579,0.902c-0.756,0.414-1.507,0.921-2.303,1.457C35.382,50.239,31.778,52.667,24.874,52.667z   M12.372,44.808c2.811,2.66,6.94,5.596,11.579,5.744c6.878,0.208,10.222-2.031,13.153-4.005c0.837-0.564,1.627-1.096,2.467-1.557  c0.453-0.248,0.971-0.549,1.534-0.876c2.871-1.668,6.864-3.974,9.687-3.727c7.185,0.628,12.322,4.519,12.537,4.684  c0.105,0.088,6.529,5.472,14.854,5.473c0.001,0,0.001,0,0.001,0c0.21,0,0.42-0.003,0.632-0.01c5.541-0.18,8.928-4.774,10.587-7.864  c-2.652,1.94-7.08,4.526-11.514,4.303c-3.987-0.204-8.678-3.656-12.816-6.702c-2.514-1.85-4.887-3.597-6.715-4.349  c-0.051-0.022-0.101-0.047-0.149-0.076c-0.874-0.536-2.022-0.878-3.231-0.961c-2.027-0.141-3.901,0.468-4.672,1.473  c-0.347,0.451-0.99,0.544-1.451,0.21c-0.892-0.649-2.129-1.072-3.483-1.19c-1.564-0.135-3.064,0.17-4.044,0.798  c-0.057,0.037-0.118,0.068-0.181,0.093c-2.799,1.103-5.281,3.329-7.681,5.481c-2.852,2.558-5.546,4.973-8.554,5.237  c-0.542,0.048-1.108,0.072-1.681,0.072C18.772,47.059,14.486,45.635,12.372,44.808z"/></svg>