<?xml version="1.0" standalone="no"?>
<!DOCTYPE svg PUBLIC "-//W3C//DTD SVG 1.1//EN" "http://www.w3.org/Graphics/SVG/1.1/DTD/svg11.dtd" >
<svg>
<metadata>
Created by FontForge 20090622 at Thu Mar 24 10:17:55 2016
 By deploy user
Copyright &#194;&#169; 1990, 2002 Adobe Systems Incorporated.  All Rights Reserved.
</metadata>
<defs>
<font id="StempelSchneidlerStd-Roman" horiz-adv-x="556" >
  <font-face 
    font-family="Stempel Schneidler Std"
    font-weight="400"
    font-stretch="normal"
    units-per-em="1000"
    panose-1="0 0 5 0 0 0 0 0 0 0"
    ascent="756"
    descent="-244"
    x-height="450"
    cap-height="715"
    bbox="-165 -278 1104 933"
    underline-thickness="50"
    underline-position="-50"
    unicode-range="U+0020-U+FB02"
  />
<missing-glyph horiz-adv-x="500" 
d="M0 0v700h500v-700h-500zM250 395l170 255h-340zM280 350l170 -255v510zM80 50h340l-170 255zM50 605v-510l170 255z" />
    <glyph glyph-name="fi" unicode="fi" 
d="M110 104v264q0 9 -4 12t-19 3q-19 0 -19 16q0 12 11 19q21 15 26 21t5 18v83q0 105 42 160.5t123 55.5q60 0 60 -40q0 -18 -10.5 -28t-21.5 -10q-16 0 -36.5 14t-38.5 14q-56 0 -56 -127v-131q0 -12 10 -12h113q15 0 19 -5.5t4 -22.5q0 -18 -4 -23t-19 -5h-123v-286
q0 -32 20 -47t77 -22q17 -2 17 -18q0 -11 -5.5 -15.5t-20.5 -4.5q-7 0 -48.5 6.5t-64.5 6.5q-22 0 -50.5 -6.5t-36.5 -6.5q-17 0 -17 22q0 13 12 16q36 8 45.5 22t9.5 57zM396 95v261q0 17 -5.5 21t-32.5 6q-19 2 -23 5t-4 14q0 10 16 17l87 38q14 6 19 6q6 0 10.5 -6
t4.5 -13q0 -2 -2.5 -7.5t-5 -16t-2.5 -25.5v-300q0 -40 10.5 -50.5t56.5 -19.5q15 -3 15 -15q0 -23 -15 -23q-6 0 -42 6.5t-56 6.5t-56 -6.5t-42 -6.5q-15 0 -15 23q0 12 15 15q46 9 56.5 19.5t10.5 50.5zM377 631q0 19 13.5 32.5t32.5 13.5t32.5 -13.5t13.5 -32.5
t-13.5 -32.5t-32.5 -13.5t-32.5 13.5t-13.5 32.5z" />
    <glyph glyph-name="fl" unicode="fl" 
d="M110 104v264q0 9 -4 12t-19 3q-19 0 -19 16q0 12 11 19q21 15 26 21t5 18v83q0 105 42 160.5t123 55.5q60 0 60 -40q0 -3 -1 -4h1l118 40q11 4 14 4q5 0 9.5 -7.5t4.5 -13.5t-11.5 -18t-11.5 -32v-590q0 -40 10.5 -50.5t56.5 -19.5q15 -3 15 -15q0 -23 -15 -23
q-6 0 -42 6.5t-56 6.5t-56 -6.5t-42 -6.5q-15 0 -15 23q0 12 15 15q46 9 56.5 19.5t10.5 50.5v555q0 25 -22 26l-58 6q-5 -4 -13 -4q-16 0 -36.5 14t-38.5 14q-56 0 -56 -127v-131q0 -12 10 -12h113q15 0 19 -5.5t4 -22.5q0 -18 -4 -23t-19 -5h-123v-286q0 -32 20 -47
t77 -22q17 -2 17 -18q0 -11 -5.5 -15.5t-20.5 -4.5q-7 0 -48.5 6.5t-64.5 6.5q-22 0 -50.5 -6.5t-36.5 -6.5q-17 0 -17 22q0 13 12 16q36 8 45.5 22t9.5 57z" />
    <glyph glyph-name=".notdef" horiz-adv-x="500" 
d="M0 0v700h500v-700h-500zM250 395l170 255h-340zM280 350l170 -255v510zM80 50h340l-170 255zM50 605v-510l170 255z" />
    <glyph glyph-name=".null" horiz-adv-x="0" 
 />
    <glyph glyph-name="nonmarkingreturn" horiz-adv-x="333" 
 />
    <glyph glyph-name="space" unicode=" " horiz-adv-x="260" 
 />
    <glyph glyph-name="exclam" unicode="!" horiz-adv-x="296" 
d="M165 163l-34 -17q-3 62 -14.5 256t-11.5 249q0 64 45 64q41 0 41 -61q0 -138 -26 -491zM96 39q0 22 15 37t37 15t37 -15t15 -37t-15 -37t-37 -15t-37 15t-15 37z" />
    <glyph glyph-name="quotedbl" unicode="&#x22;" horiz-adv-x="408" 
d="M255 444l-17 202q0 69 33 69q35 0 35 -69l-17 -202q0 -31 -18 -31q-16 0 -16 31zM119 444l-17 202q0 69 33 69q35 0 35 -69l-17 -202q0 -31 -18 -31q-16 0 -16 31z" />
    <glyph glyph-name="numbersign" unicode="#" horiz-adv-x="520" 
d="M199 435l-21 -155h142l22 155h-143zM312 230h-142l-32 -230h-51l32 230h-115v50h123l21 155h-115v50h123l32 230h51l-32 -230h142l32 230h51l-32 -230h115v-50h-123l-21 -155h115v-50h-123l-32 -230h-51z" />
    <glyph glyph-name="dollar" unicode="$" horiz-adv-x="520" 
d="M294 308v-269q51 13 75.5 49.5t24.5 81.5q0 44 -20 73.5t-80 64.5zM250 408v265q-103 -20 -103 -136q0 -45 26 -73.5t77 -55.5zM438 702v-100q0 -20 -3 -27t-12 -7t-13.5 6.5t-15.5 35.5q-7 18 -10.5 24t-14 19t-29 18.5t-46.5 5.5v-292l8 -4q41 -21 63 -35t48 -38
t37.5 -54.5t11.5 -71.5q0 -61 -43.5 -117t-124.5 -71v-81q0 -12 -22 -12t-22 12v75q-2 -1 -9 -1q-71 0 -174 21l-5 68q0 4 -2 24t-2 27q0 29 21 29q15 0 19 -19q11 -56 43 -81t97 -25q8 0 12 1v299l-4 2q-98 47 -132.5 86t-34.5 109q0 66 39 118.5t132 64.5v74q0 12 22 12
t22 -12v-70h4q55 0 140 -13z" />
    <glyph glyph-name="percent" unicode="%" horiz-adv-x="1000" 
d="M568 153q0 44 17 78t43.5 52t53.5 27t51 9q78 0 120 -43t42 -123q0 -66 -45 -116t-125 -50q-16 0 -34 4t-40.5 15t-40.5 28.5t-30 48.5t-12 70zM636 153q0 -71 29.5 -105.5t68.5 -34.5q33 0 63 35t30 105q0 53 -22.5 96.5t-67.5 43.5q-36 0 -59.5 -23.5t-32.5 -53.5
t-9 -63zM105 549q0 44 17 78t43.5 52t53.5 27t51 9q78 0 120 -43t42 -123q0 -66 -45 -116t-125 -50q-16 0 -34 4t-40.5 15t-40.5 28.5t-30 48.5t-12 70zM173 549q0 -71 29.5 -105.5t68.5 -34.5q33 0 63 35t30 105q0 53 -22.5 96.5t-67.5 43.5q-36 0 -59.5 -23.5t-32.5 -53.5
t-9 -63zM253 -26l455 754h41l-455 -754h-41z" />
    <glyph glyph-name="ampersand" unicode="&#x26;" horiz-adv-x="834" 
d="M732 -19l-198 148q-43 -65 -116 -103.5t-151 -38.5q-96 0 -151.5 48t-55.5 118q0 64 52.5 114.5t123.5 82.5q-55 38 -85 78t-30 96q0 54 39.5 97.5t116.5 43.5q67 0 110 -38t43 -104q0 -101 -137 -173l241 -162q29 39 61.5 115.5t32.5 113.5q0 34 -14 44.5t-69 18.5
q-6 1 -6 18q0 11 1.5 14.5t7.5 3.5q1 0 36 -6t65 -6q27 0 53 3t42 6t18 3q12 0 12 -11q0 -17 -3 -21t-16 -6q-40 -6 -52 -14.5t-22 -34.5l-24 -61t-24.5 -60l-20.5 -46.5t-24.5 -50.5t-25.5 -41l209 -140zM171 505q0 -66 95 -135q43 18 78.5 56.5t35.5 82.5q0 48 -34 74
t-71 26q-42 0 -73 -28t-31 -76zM508 150l-247 182q-139 -66 -139 -164q0 -48 48 -89.5t113 -41.5q66 0 125 30t100 83z" />
    <glyph glyph-name="quotesingle" unicode="'" horiz-adv-x="260" 
d="M113 444l-17 202q0 69 33 69q35 0 35 -69l-17 -202q0 -31 -18 -31q-16 0 -16 31z" />
    <glyph glyph-name="parenleft" unicode="(" horiz-adv-x="296" 
d="M60 253q0 132 50.5 255t144.5 222l36 -32q-91 -106 -136 -211.5t-45 -233.5t45 -233.5t136 -211.5l-36 -32q-94 99 -144.5 222t-50.5 255z" />
    <glyph glyph-name="parenright" unicode=")" horiz-adv-x="296" 
d="M5 698l36 32q94 -99 144.5 -222t50.5 -255t-50.5 -255t-144.5 -222l-36 32q91 106 136 211.5t45 233.5t-45 233.5t-136 211.5z" />
    <glyph glyph-name="asterisk" unicode="*" horiz-adv-x="389" 
d="M174 464l11 79l-65 -54q-28 -23 -43 -23q-10 0 -16.5 7t-6.5 15q0 13 9 20.5t39 18.5l79 30l-79 32q-30 12 -39 19t-9 20q0 8 6.5 15t16.5 7q15 0 43 -23l65 -54l-11 79q-5 35 -5 40q0 7 8 15t17 8q25 0 25 -22q0 -8 -4 -44l-11 -76l65 54q28 23 43 23q10 0 16.5 -7
t6.5 -15q0 -11 -10 -19.5t-38 -19.5l-79 -32l79 -30q31 -12 39.5 -19t8.5 -20q0 -8 -6.5 -15t-16.5 -7q-15 0 -43 23l-65 54l11 -76q4 -36 4 -44q0 -22 -25 -22q-9 0 -17 8t-8 15q0 5 5 40z" />
    <glyph glyph-name="plus" unicode="+" horiz-adv-x="600" 
d="M275 0v228h-228v50h228v228h50v-228h228v-50h-228v-228h-50z" />
    <glyph glyph-name="comma" unicode="," horiz-adv-x="260" 
d="M75 -210h-31q-11 0 -11 3q0 1 9.5 15l23.5 35.5l28 45t23.5 46.5t9.5 37q0 28 -27 28q-16 0 -28 -6q13 43 17 98q21 -4 50 -4q25 0 48 4q-7 -154 -112 -302z" />
    <glyph glyph-name="hyphen" unicode="-" horiz-adv-x="333" 
d="M52 207v62h229v-62h-229z" />
    <glyph glyph-name="period" unicode="." horiz-adv-x="260" 
d="M78 39q0 22 15 37t37 15t37 -15t15 -37t-15 -37t-37 -15t-37 15t-15 37z" />
    <glyph glyph-name="slash" unicode="/" horiz-adv-x="352" 
d="M11 -1l283 703q4 9 8 11t19 2q12 0 17.5 -3t3.5 -10l-281 -702q-5 -13 -26 -13q-7 0 -11.5 0.5t-7.5 1.5t-4.5 2.5t-1.5 3.5t1 4z" />
    <glyph glyph-name="zero" unicode="0" horiz-adv-x="520" 
d="M268 715q46 0 83 -23t60 -60t38 -86t21 -97t6 -97q0 -156 -65.5 -260.5t-153.5 -104.5q-75 0 -124 52.5t-69 131.5t-20 181q0 169 64.5 266t159.5 97zM260 683q-23 0 -46 -18t-45.5 -56t-36.5 -112.5t-14 -173.5q0 -304 142 -304q56 0 99 82.5t43 250.5q0 96 -11 163.5
t-31.5 102.5t-44.5 50t-55 15z" />
    <glyph glyph-name="one" unicode="1" horiz-adv-x="520" 
d="M235 141v479l-100 -90q-14 -13 -25 -13q-4 0 -10 7.5t-6 12.5q0 7 19 24l177 154l21 -13q-8 -43 -8 -120v-451q0 -57 12.5 -75.5t52.5 -23.5q44 -5 44 -17q0 -16 -3.5 -22t-14.5 -6q-9 0 -48 6.5t-77 6.5q-35 0 -76 -6.5t-50 -6.5q-24 0 -24 23q0 10 7.5 13.5t37.5 8.5
q33 5 46.5 13.5t19 28.5t5.5 67z" />
    <glyph glyph-name="two" unicode="2" horiz-adv-x="520" 
d="M32 -6v36q175 186 206 223q109 126 125 213q3 19 3 38q0 149 -135 149q-57 0 -101 -37t-44 -105q0 -6 -4.5 -13t-10.5 -7q-17 0 -17 27q0 92 52 144.5t138 52.5q101 0 148.5 -57t47.5 -134q0 -40 -18 -85t-42 -82t-65.5 -84t-70.5 -76l-75.5 -73.5l-63.5 -61.5h195
q36 1 54.5 12.5t45.5 59.5q18 32 27 41t18 9q6 0 11 -5t5 -11t-14 -33l-33.5 -68t-29.5 -73q-36 6 -180 6q-86 0 -172 -6z" />
    <glyph glyph-name="three" unicode="3" horiz-adv-x="520" 
d="M91 320l25 83q68 -14 105 -14q65 0 113.5 35t48.5 97q0 64 -40.5 98t-104.5 34q-74 0 -110.5 -40.5t-36.5 -81.5q0 -29 -14 -29q-18 0 -18 46q0 74 52 120.5t132 46.5q79 0 131.5 -47t52.5 -125q0 -54 -27.5 -96.5t-77.5 -65.5q135 -45 135 -180q0 -94 -66.5 -154
t-160.5 -60q-56 0 -97 14.5t-62.5 38.5t-31 50.5t-9.5 55.5q0 43 36 43q17 0 25.5 -7.5t10.5 -16.5t2 -26q0 -57 32.5 -88.5t88.5 -31.5q65 0 117.5 43.5t52.5 125.5q0 76 -52 113.5t-136 37.5q-50 0 -116 -19z" />
    <glyph glyph-name="four" unicode="4" horiz-adv-x="520" 
d="M110 334l242 351q23 29 28 30q23 0 23 -20q0 -7 -1.5 -43t-1.5 -63v-347h86v-56h-86v-90q0 -60 -20 -96h-72q24 34 24 95v91h-281q-23 0 -23 21q0 10 11 27q10 13 71 100zM330 590l-232 -348h234v348h-2z" />
    <glyph glyph-name="five" unicode="5" horiz-adv-x="520" 
d="M155 634l-32 -178q18 11 55 20q29 7 57 7q25 0 47 -2.5t53.5 -14t54 -31t38.5 -58t16 -90.5q0 -50 -16.5 -101.5t-47 -96.5t-81 -73.5t-112.5 -28.5q-52 0 -89 16.5t-53 42.5t-22 47t-6 41q0 22 13 36t29 14q20 0 29 -10.5t9 -40.5q0 -108 101 -108q30 0 61 12t61 37.5
t49 72.5t19 108q0 160 -166 160q-21 0 -43.5 -4.5t-40.5 -11.5t-33 -13.5t-24 -11t-10 -4.5q-4 0 -4 6q0 4 9.5 47.5t23.5 122t24 156.5h279q20 0 38 4l10.5 2t7.5 1q4 0 4 -8q0 -4 -19 -42.5t-22 -38.5t-7.5 3.5t-18.5 7t-40 3.5h-201z" />
    <glyph glyph-name="six" unicode="6" horiz-adv-x="520" 
d="M279 467q92 0 142 -60.5t50 -153.5q0 -106 -58.5 -186t-161.5 -80q-70 0 -119.5 43t-70 102t-20.5 126q0 86 31 162t80 128.5t110 91t122 57t115 18.5q16 0 21 -2.5t5 -10.5q0 -7 -7 -10.5t-33 -9.5q-124 -30 -235.5 -126.5t-134.5 -191.5l2 -2q24 46 67.5 75.5
t94.5 29.5zM258 411q-70 0 -109.5 -52.5t-39.5 -122.5q0 -80 39 -145.5t114 -65.5q20 0 42.5 9.5t45.5 29.5t38 59.5t15 92.5q0 55 -14.5 95t-38 60.5t-46.5 30t-46 9.5z" />
    <glyph glyph-name="seven" unicode="7" horiz-adv-x="520" 
d="M38 0l356 634h-251q-29 0 -54.5 -4t-40 -7.5t-15.5 -3.5q-5 0 -5 4q0 5 17 63q7 23 9 23q1 0 6.5 -0.5l16 -1.5t21.5 -1q52 -4 116 -4h122q54 0 102 4q10 0 19.5 1l14.5 1.5t6 0.5q6 0 6 -12q0 -2 -44 -80l-345 -617h-57z" />
    <glyph glyph-name="eight" unicode="8" horiz-adv-x="520" 
d="M260 715q46 0 82.5 -13.5t57 -33t34 -44t18 -45t4.5 -38.5q0 -67 -34 -112t-96 -62v-2q67 -13 103.5 -61t36.5 -117q0 -99 -63 -149.5t-143 -50.5t-143 50.5t-63 149.5q0 69 36.5 117t103.5 61v2q-62 17 -96 62t-34 112q0 18 4.5 38.5t18 45t34 44t57 33t82.5 13.5z
M260 388q61 0 103.5 38t42.5 101q0 17 -6 37t-20.5 42.5t-45.5 37.5t-74 15t-74 -15t-45.5 -37.5t-20.5 -42.5t-6 -37q0 -63 42.5 -101t103.5 -38zM260 344q-44 0 -75 -14t-46.5 -38t-22 -47.5t-6.5 -49.5q0 -70 43.5 -108t106.5 -38t106.5 38t43.5 108q0 26 -6.5 49.5
t-22 47.5t-46.5 38t-75 14z" />
    <glyph glyph-name="nine" unicode="9" horiz-adv-x="520" 
d="M211 261q-28 0 -56 11.5t-54 34t-42 63t-16 92.5q0 58 22.5 113.5t75 97.5t124.5 42q93 0 148 -71.5t55 -176.5q0 -94 -37 -184.5t-93 -154t-122.5 -102.5t-125.5 -39q-26 0 -26 10q0 9 5 10q23 7 56 25t74 50.5t79 73t71.5 97.5t50.5 118h-2q-68 -110 -187 -110z
M239 323q66 0 116.5 47t50.5 137q0 73 -41 118.5t-110 45.5q-64 0 -113 -51t-49 -137q0 -65 41 -112.5t105 -47.5z" />
    <glyph glyph-name="colon" unicode=":" horiz-adv-x="260" 
d="M78 355q0 22 15 37t37 15t37 -15t15 -37t-15 -37t-37 -15t-37 15t-15 37zM78 39q0 22 15 37t37 15t37 -15t15 -37t-15 -37t-37 -15t-37 15t-15 37z" />
    <glyph glyph-name="semicolon" unicode=";" horiz-adv-x="260" 
d="M75 -210h-31q-11 0 -11 3q0 1 9.5 15l23.5 35.5l28 45t23.5 46.5t9.5 37q0 28 -27 28q-16 0 -28 -6q7 22 11 49q5 26 6 49q21 -4 50 -4q25 0 48 4q-7 -154 -112 -302zM78 355q0 22 15 37t37 15t37 -15t15 -37t-15 -37t-37 -15t-37 15t-15 37z" />
    <glyph glyph-name="less" unicode="&#x3c;" horiz-adv-x="600" 
d="M47 226v54l506 234v-55l-444 -206l444 -206v-55z" />
    <glyph glyph-name="equal" unicode="=" horiz-adv-x="600" 
d="M47 325v50h506v-50h-506zM47 131v50h506v-50h-506z" />
    <glyph glyph-name="greater" unicode="&#x3e;" horiz-adv-x="600" 
d="M553 280v-54l-506 -234v55l444 206l-444 206v55z" />
    <glyph glyph-name="question" unicode="?" horiz-adv-x="464" 
d="M383 257l37 -46q-29 -27 -80 -42.5t-95 -15.5q-94 0 -147.5 50.5t-53.5 123.5q0 43 21.5 76t52 52.5t60.5 35.5t51.5 35t21.5 41q0 64 -75 64q-12 0 -26 -2l-9 8l84 78q47 -34 70.5 -62.5t23.5 -67.5q0 -35 -25 -61.5t-60.5 -44.5l-71.5 -36.5t-61 -48.5t-25 -71
q0 -45 38 -85.5t122 -40.5q39 0 80 16t67 44zM168 39q0 22 15 37t37 15t37 -15t15 -37t-15 -37t-37 -15t-37 15t-15 37z" />
    <glyph glyph-name="at" unicode="@" horiz-adv-x="800" 
d="M527 425q0 31 -15 49t-42 18q-51 0 -104.5 -60.5t-53.5 -153.5q0 -38 18 -60t50 -22q50 0 98.5 66t48.5 163zM616 525l-70 -277q-3 -13 -3 -30q0 -14 12.5 -23t28.5 -9q45 0 80 36t51.5 85t16.5 98q0 45 -20.5 93.5t-58 91.5t-99 71t-133.5 28q-138 0 -224.5 -96.5
t-86.5 -266.5q0 -120 88.5 -210.5t234.5 -90.5q111 0 205 50l14 -30q-113 -58 -222 -58q-98 0 -176.5 34t-124 87.5t-69.5 112t-24 114.5q0 166 112 273t271 107q146 0 245.5 -89t99.5 -222q0 -90 -53.5 -170t-140.5 -80q-36 0 -61.5 19t-33.5 54h-2q-44 -73 -124 -73
q-50 0 -77.5 33t-27.5 79q0 106 69.5 188t143.5 82q55 0 77 -55h2l10 44h70z" />
    <glyph glyph-name="A" unicode="A" horiz-adv-x="722" 
d="M472 280h-229q-2 -6 -25.5 -61.5l-42 -103t-18.5 -58.5q0 -19 45 -32q19 -6 19 -19q0 -19 -15 -19q-4 0 -44 6.5t-52 6.5q-16 0 -43 -6.5t-49 -6.5q-7 0 -11.5 5t-4.5 12q0 20 20 21q31 1 54 23.5t44 73.5q221 527 235 575q5 18 16 18q10 0 13 -11q12 -42 110 -295
t138 -340q16 -35 62 -44q22 -5 25 -11q1 -3 1 -8q0 -19 -15 -19q-17 0 -51 6.5t-46 6.5q-19 0 -53.5 -6.5t-37.5 -6.5q-16 0 -16 14q0 13 3 17.5t17 6.5q16 2 26.5 10.5t10.5 20.5q0 1 -15.5 40.5l-37.5 96t-33 87.5zM362 575l-100 -251h193z" />
    <glyph glyph-name="B" unicode="B" horiz-adv-x="592" 
d="M191 345v-239q0 -81 106 -81q27 0 54.5 8t53.5 25.5t42 49.5t16 74q0 82 -60 122.5t-148 40.5h-64zM537 184q0 -79 -63 -138t-169 -59q-30 0 -78.5 6.5t-68.5 6.5q-36 0 -81 -6.5t-50 -6.5q-14 0 -17 4t-3 18q0 5 1.5 7.5t9.5 5.5t23.5 4.5l45.5 4.5q24 2 30 11t6 43v560
q0 15 -15 21.5t-47 10.5q-25 3 -30 6t-5 13q0 13 4 16t13 3q3 0 51 -6q40 -7 65 -7q10 0 29 1.5t24 1.5q32 3 88 3q84 0 128.5 -51.5t44.5 -112.5t-39.5 -108t-98.5 -61v-2q89 -12 145.5 -58t56.5 -131zM191 659v-276h24q184 0 184 155q0 47 -33 89.5t-100 42.5h-62
q-13 0 -13 -11z" />
    <glyph glyph-name="C" unicode="C" horiz-adv-x="741" 
d="M679 85l-16 -70q-154 -28 -201 -28q-199 0 -300.5 100.5t-101.5 282.5q0 63 22 122.5t64 110t111.5 81.5t156.5 31q30 0 65.5 -2.5t60 -6l64.5 -9t59 -7.5q0 -9 2 -48t2 -61q0 -13 -3.5 -17.5t-16.5 -4.5q-12 0 -15.5 8.5t-8.5 40.5q-10 69 -196 69q-66 0 -118 -21
t-84 -54.5t-53 -78t-29.5 -88t-8.5 -87.5q0 -145 90 -231t219 -86q103 0 144.5 21.5t51.5 62.5q6 25 11 33t16 8q23 0 23 -15t-10 -56z" />
    <glyph glyph-name="D" unicode="D" horiz-adv-x="796" 
d="M201 644v-499q0 -68 32.5 -91t137.5 -23q132 0 211.5 88t79.5 231q0 150 -88.5 235t-215.5 85h-136q-14 0 -17.5 -4.5t-3.5 -21.5zM133 85v560q0 15 -15 21.5t-47 10.5q-25 3 -30 6t-5 13q0 13 4 16t13 3q16 0 48 -6q28 -7 71 -7q17 0 58 1.5t49 1.5q57 3 99 3
q156 0 257 -93t101 -263q0 -157 -106 -261t-255 -104q-48 0 -110.5 6.5t-85.5 6.5q-28 0 -77.5 -6.5t-64.5 -6.5q-14 0 -17 4t-3 18q0 9 3.5 12t18.5 4q66 7 80 16t14 44z" />
    <glyph glyph-name="E" unicode="E" 
d="M191 328v-198q0 -28 3 -42t15 -27.5t39.5 -18.5t74.5 -5h25q65 0 85.5 12t32.5 48q9 24 14 30.5t14 6.5t14.5 -6t5.5 -13q0 -5 -6 -28l-14 -53t-11 -47q-43 1 -161 7t-136 6q-20 0 -79.5 -6.5t-69.5 -6.5q-14 0 -14 14t5.5 17.5t34.5 6.5q32 2 46 12.5t14 35.5v564
q0 25 -11 31t-50 9q-21 1 -25.5 4.5t-4.5 15.5t3.5 15t16.5 3q4 0 12 -1t23.5 -2.5t28.5 -2.5q59 -7 130 -7q11 0 104 3q46 3 67 3q12 0 12 -20q0 -22 3.5 -44.5t3.5 -28.5q0 -26 -21 -26q-10 0 -15 7.5t-9 33.5q-4 22 -12 28t-26 6h-162v-286h173q27 0 36.5 6.5t10.5 29.5
q2 25 23 25q15 0 15 -17q0 -7 -3 -32t-3 -37t3 -37t3 -32q0 -17 -15 -17q-21 0 -23 25q-1 23 -10.5 29.5t-36.5 6.5h-173z" />
    <glyph glyph-name="F" unicode="F" horiz-adv-x="481" 
d="M123 102v535q0 25 -11 31t-50 9q-21 1 -25.5 4.5t-4.5 15.5t3.5 15t16.5 3q4 0 12 -1t23.5 -2.5t28.5 -2.5q59 -7 130 -7q9 0 102 3q45 3 69 3q5 -20 13 -47t12.5 -45t4.5 -29q0 -4 -6.5 -10t-10.5 -6q-15 0 -19.5 6.5t-11.5 35.5q-4 18 -7.5 27t-12.5 16.5t-23 7.5h-165
v-286h178q16 0 26 58q2 15 21 15q17 0 17 -16q0 -3 -1.5 -12t-3 -27t-1.5 -43t3 -43t3 -20q0 -25 -17 -25q-6 0 -9 1t-7 6.5t-5 16.5q-4 23 -14.5 31t-36.5 8h-153v-221q0 -41 14 -58t64 -24q16 -2 20 -5.5t4 -15.5q0 -11 -3.5 -14t-12.5 -3q-24 0 -64.5 6.5t-55.5 6.5
t-55 -6.5t-65 -6.5q-9 0 -12.5 3t-3.5 14t4 14.5t20 6.5q50 8 64 24.5t14 52.5z" />
    <glyph glyph-name="G" unicode="G" horiz-adv-x="778" 
d="M665 170v-52q0 -83 3 -125q-3 0 -11 1.5t-12 2.5q-16 2 -23 2q-33 0 -87 -6q-56 -6 -73 -6q-199 0 -300.5 100.5t-101.5 282.5q0 63 22 122.5t64 110t111.5 81.5t156.5 31q54 0 143 -8.5t93 -8.5q-1 -23 5.5 -65t6.5 -50q0 -16 -22 -16q-10 0 -14 8t-10 33q-1 5 -2 8
q-2 9 -4.5 14t-14 15t-29.5 16t-54 11t-85 5q-66 0 -118 -21t-84 -54.5t-53 -78t-29.5 -88t-8.5 -87.5q0 -145 90 -231t219 -86q71 1 107 14t44.5 30.5t8.5 52.5v40q0 21 -3.5 32.5t-7 14t-10.5 3.5q-41 4 -50.5 7.5t-9.5 14.5q0 14 2.5 18t10.5 4q12 0 45.5 -6.5t52.5 -6.5
t43.5 6.5t36.5 6.5q6 0 7.5 -4t1.5 -18q0 -9 -6 -12.5t-33 -9.5q-11 -2 -14.5 -10.5t-3.5 -37.5z" />
    <glyph glyph-name="H" unicode="H" horiz-adv-x="778" 
d="M116 105v492q0 42 -15 56.5t-59 23.5q-11 2 -13.5 5.5t-2.5 16.5q0 11 4 13.5t12 2.5t47 -6.5t61 -6.5t61 6.5t47 6.5q6 0 8.5 -0.5t5 -4t2.5 -11.5q0 -13 -2.5 -16.5t-13.5 -5.5q-44 -9 -59 -23.5t-15 -56.5v-219h410v219q0 42 -15 56.5t-59 23.5q-11 2 -13.5 5.5
t-2.5 16.5q0 11 3.5 13.5t12.5 2.5q8 0 47 -6.5t61 -6.5t61 6.5t47 6.5q6 0 8.5 -0.5t5 -4t2.5 -11.5q0 -13 -2.5 -16.5t-13.5 -5.5q-44 -9 -59 -23.5t-15 -56.5v-492q0 -42 15 -56.5t59 -23.5q11 -2 13.5 -5.5t2.5 -16.5q0 -11 -4 -13.5t-12 -2.5t-47 6.5t-61 6.5t-61 -6.5
t-47 -6.5q-6 0 -8.5 0.5t-5 4t-2.5 11.5q0 13 2.5 16.5t13.5 5.5q44 9 59 23.5t15 56.5v223h-410v-223q0 -42 15 -56.5t59 -23.5q11 -2 13.5 -5.5t2.5 -16.5q0 -11 -4 -13.5t-12 -2.5t-47 6.5t-61 6.5t-61 -6.5t-47 -6.5q-6 0 -8.5 0.5t-5 4t-2.5 11.5q0 13 2.5 16.5
t13.5 5.5q44 9 59 23.5t15 56.5z" />
    <glyph glyph-name="I" unicode="I" horiz-adv-x="314" 
d="M123 105v492q0 42 -15 56.5t-59 23.5q-11 2 -13.5 5.5t-2.5 16.5q0 11 3.5 13.5t12.5 2.5q7 0 46 -6.5t62 -6.5t62 6.5t46 6.5q6 0 8.5 -0.5t5 -4t2.5 -11.5q0 -13 -2.5 -16.5t-13.5 -5.5q-44 -9 -59 -23.5t-15 -56.5v-492q0 -42 15 -56.5t59 -23.5q11 -2 13.5 -5.5
t2.5 -16.5q0 -11 -3.5 -13.5t-12.5 -2.5q-7 0 -46 6.5t-62 6.5t-62 -6.5t-46 -6.5q-6 0 -8.5 0.5t-5 4t-2.5 11.5q0 13 2.5 16.5t13.5 5.5q44 9 59 23.5t15 56.5z" />
    <glyph glyph-name="J" unicode="J" horiz-adv-x="296" 
d="M116 12v585q0 42 -15 56.5t-59 23.5q-11 2 -13.5 5.5t-2.5 16.5q0 11 4 13.5t12 2.5t47 -6.5t61 -6.5t61 6.5t47 6.5q6 0 8.5 -0.5t5 -4t2.5 -11.5q0 -13 -2.5 -16.5t-13.5 -5.5q-44 -9 -59 -23.5t-15 -56.5v-512q0 -109 -46 -182.5t-150 -80.5v74h29q50 0 74.5 24
t24.5 92z" />
    <glyph glyph-name="K" unicode="K" horiz-adv-x="667" 
d="M205 353l243 283q8 9 8 20q0 6 -8 9t-45 12q-15 4 -15 22q0 16 12 16t47 -6.5t54 -6.5q21 0 53 6.5t44 6.5q7 0 9 -3t2 -13q0 -11 -3.5 -15t-15.5 -7q-57 -15 -77 -38l-234 -270l275 -296q38 -39 69 -59t42.5 -23t11.5 -6q0 -9 -9.5 -11.5t-40.5 -2.5q-44 0 -81.5 23.5
t-97.5 89.5zM123 105v492q0 42 -15 56.5t-59 23.5q-11 2 -13.5 5.5t-2.5 16.5q0 11 3.5 13.5t12.5 2.5q7 0 46 -6.5t62 -6.5t62 6.5t46 6.5q6 0 8.5 -0.5t5 -4t2.5 -11.5q0 -13 -2.5 -16.5t-13.5 -5.5q-44 -9 -59 -23.5t-15 -56.5v-492q0 -42 15 -56.5t59 -23.5
q11 -2 13.5 -5.5t2.5 -16.5q0 -11 -3.5 -13.5t-12.5 -2.5q-7 0 -46 6.5t-62 6.5t-62 -6.5t-46 -6.5q-6 0 -8.5 0.5t-5 4t-2.5 11.5q0 13 2.5 16.5t13.5 5.5q44 9 59 23.5t15 56.5z" />
    <glyph glyph-name="L" unicode="L" horiz-adv-x="537" 
d="M116 81v516q0 42 -15 56.5t-59 23.5q-11 2 -13.5 5.5t-2.5 16.5q0 11 4 13.5t12 2.5t47 -6.5t61 -6.5t61 6.5t47 6.5q6 0 8.5 -0.5t5 -4t2.5 -11.5q0 -13 -2.5 -16.5t-13.5 -5.5q-44 -9 -59 -23.5t-15 -56.5v-447q0 -29 1.5 -46.5t8 -31t14 -20t27 -10.5t38 -4.5
t54.5 -0.5q78 0 99.5 11t36.5 58q5 17 9.5 21.5t17.5 4.5q16 0 16 -20q0 -6 -5.5 -25t-13 -47.5t-11.5 -52.5q-206 13 -284 13q-55 0 -96 -3.5t-60 -6.5t-21 -3q-15 0 -15 18q0 12 4 15.5t25 4.5q56 4 71.5 16.5t15.5 39.5z" />
    <glyph glyph-name="M" unicode="M" horiz-adv-x="963" 
d="M100 137l49 572q2 6 13 6q8 0 18 -18l303 -571l266 556q1 3 3.5 8l4 8t3.5 6.5t3.5 5.5t4 3.5t4.5 1.5q7 0 11 -4.5t5.5 -10.5t3.5 -19l73 -567q5 -42 21 -62.5t50 -26.5q14 -2 18 -5.5t4 -13.5q0 -19 -18 -19t-54 6.5t-49 6.5q-22 0 -56.5 -6.5t-49.5 -6.5
q-13 0 -16 3.5t-3 18.5q0 8 3.5 10.5t20.5 5.5q37 6 49 18.5t12 37.5q0 11 -2 29l-50 447h-2l-246 -515q-8 -17 -12 -22t-10 -5q-8 0 -16 15l-275 527h-2l-28 -379q-4 -58 -4 -72q0 -37 16 -55t65 -26q14 -2 17.5 -5t3.5 -14q0 -19 -21 -19q-10 0 -46 6.5t-51 6.5
t-52.5 -6.5t-45.5 -6.5q-16 0 -16 22q0 8 2 10.5t12 5.5q38 11 49 28t17 84z" />
    <glyph glyph-name="N" unicode="N" horiz-adv-x="778" 
d="M107 102v597q0 16 9 16q7 0 13 -7l490 -582h2v445q0 58 -19 79.5t-66 26.5q-7 1 -10 2t-5 4.5t-2 10.5q0 21 15 21q16 0 50.5 -6.5t55.5 -6.5q17 0 51 6.5t53 6.5q13 0 13 -19q0 -16 -18 -19q-44 -6 -56 -22t-12 -55v-602q0 -16 -9 -16q-7 0 -13 7l-490 585h-2v-443
q0 -58 19 -79.5t66 -26.5q7 -1 10 -2t5 -4.5t2 -10.5q0 -21 -15 -21q-16 0 -50.5 6.5t-55.5 6.5q-17 0 -51 -6.5t-53 -6.5q-13 0 -13 19q0 16 18 19q44 6 56 22t12 55z" />
    <glyph glyph-name="O" unicode="O" horiz-adv-x="834" 
d="M128 351q0 -138 78 -223t211 -85t211 85t78 223t-78 223t-211 85t-211 -85t-78 -223zM60 351q0 67 22 130t64 116t112.5 85.5t158.5 32.5t158.5 -32.5t112.5 -85.5t64 -116t22 -130t-22 -130t-64 -116t-112.5 -85.5t-158.5 -32.5t-158.5 32.5t-112.5 85.5t-64 116
t-22 130z" />
    <glyph glyph-name="P" unicode="P" horiz-adv-x="520" 
d="M116 105v520q0 25 -13.5 34t-60.5 18q-11 2 -13.5 5.5t-2.5 16.5q0 11 4 13.5t12 2.5q3 0 43 -6q35 -7 89 -7q9 0 18.5 0.5t21.5 1.5t19 1q30 3 58 3q57 0 97 -17t58.5 -45t26 -53t7.5 -51q0 -21 -3.5 -42t-17 -50t-35 -51t-62.5 -37.5t-95 -15.5q-30 0 -49 12.5
t-19 23.5q0 3 4 3q7 0 20.5 -0.5t19.5 -0.5q73 0 124 36.5t51 106.5q0 24 -5.5 44.5t-20.5 43t-47.5 36t-79.5 13.5h-40q-27 0 -34 -5t-7 -20v-492q0 -39 3 -57.5t17.5 -32.5t34 -19t64.5 -13q8 -2 10.5 -5.5t2.5 -16.5q0 -8 -3.5 -12t-17.5 -4q-21 0 -68 6.5t-67 6.5
q-19 0 -63 -6.5t-55 -6.5q-6 0 -8.5 0.5t-5 4t-2.5 11.5q0 13 2.5 16.5t13.5 5.5q44 9 59 23.5t15 56.5z" />
    <glyph glyph-name="Q" unicode="Q" horiz-adv-x="834" 
d="M128 351q0 -138 78 -223t211 -85t211 85t78 223t-78 223t-211 85t-211 -85t-78 -223zM730 -29l-90 88q-90 -72 -223 -72q-88 0 -158.5 32.5t-112.5 85.5t-64 116t-22 130t22 130t64 116t112.5 85.5t158.5 32.5t158.5 -32.5t112.5 -85.5t64 -116t22 -130q0 -148 -88 -249
l90 -90q10 -10 22.5 -17.5t18.5 -10.5t6 -7t-13 -6l-67 -2q-6 0 -12 2h-1z" />
    <glyph glyph-name="R" unicode="R" horiz-adv-x="648" 
d="M486 540q0 -55 -30.5 -101t-85.5 -92l161 -215q34 -45 65 -78.5t46.5 -46.5t22.5 -16q15 -6 15 -12q0 -8 -21 -8q-53 0 -99.5 31.5t-114.5 124.5l-142 194q-32 -5 -61 -5q-22 0 -58 2v-213q0 -42 15 -56.5t59 -23.5q11 -2 13.5 -5.5t2.5 -16.5q0 -11 -4 -13.5t-12 -2.5
t-47 6.5t-61 6.5t-61 -6.5t-47 -6.5q-6 0 -8.5 0.5t-5 4t-2.5 11.5q0 13 2.5 16.5t13.5 5.5q44 9 59 23.5t15 56.5v525q0 20 -14 29t-60 18q-11 2 -13.5 5.5t-2.5 16.5q0 11 4 13.5t12 2.5q6 0 36 -6q28 -7 53 -7q12 0 26.5 0.5t32 1.5t27.5 1q43 3 86 3q86 0 134.5 -42.5
t48.5 -125.5zM412 519q0 43 -15 73.5t-40 45t-49 20.5t-50 6h-15q-59 0 -59 -14v-292q15 -4 75 -4q78 0 115.5 49.5t37.5 115.5z" />
    <glyph glyph-name="S" unicode="S" horiz-adv-x="520" 
d="M79 528q0 34 10 64t33 59t68 46.5t108 17.5q55 0 140 -13v-100q0 -20 -3 -27t-12 -7t-13.5 6.5t-15.5 35.5q-9 23 -14.5 33t-28 22t-60.5 12q-70 0 -107 -37t-37 -103q0 -14 2 -26t8.5 -23l11 -19t17 -18t18 -15t23 -15l23 -13l26.5 -14t26 -13q41 -21 63 -35t48 -38
t37.5 -54.5t11.5 -71.5q0 -72 -58 -133.5t-163 -61.5q-71 0 -174 21l-5 68q0 4 -2 24t-2 27q0 29 21 29q15 0 19 -16q11 -58 43 -83.5t97 -25.5q79 0 117.5 40.5t38.5 98.5q0 51 -28.5 85t-119.5 78q-98 47 -132.5 86t-34.5 109z" />
    <glyph glyph-name="T" unicode="T" horiz-adv-x="668" 
d="M300 105v553h-168q-50 0 -94 -22q-6 -3 -14 -8t-12.5 -7.5t-6.5 -2.5q-5 0 -5 6q0 4 9.5 47.5t12.5 43.5l22 -6q21 -7 63 -7h429q41 0 57.5 2.5t36.5 13.5q6 3 14 8t12.5 7.5t6.5 2.5q5 0 5 -5q0 -3 -9.5 -47.5t-11.5 -46.5q-3 -3 -5 -3t-9 6t-25 12t-47 6h-193v-553
q0 -42 15 -56.5t59 -23.5q11 -2 13.5 -5.5t2.5 -16.5q0 -11 -4 -13.5t-12 -2.5q-7 0 -46 6.5t-62 6.5q-22 0 -61 -6.5t-47 -6.5q-6 0 -8.5 0.5t-5 4t-2.5 11.5q0 13 2.5 16.5t13.5 5.5q44 9 59 23.5t15 56.5z" />
    <glyph glyph-name="U" unicode="U" horiz-adv-x="759" 
d="M115 318l-8 167l-7 145q-1 25 -11 33.5t-36 13.5q-12 2 -14.5 6t-2.5 18q0 9 3 11.5t13 2.5q15 0 46.5 -6.5t55.5 -6.5q18 0 54.5 6.5t46.5 6.5q9 0 11.5 -2t2.5 -13q0 -12 -3.5 -15.5t-19.5 -7.5q-45 -11 -56 -22.5t-11 -43.5q0 -117 12 -339q13 -241 201 -241
q46 0 80 14.5t63.5 52.5t45 112.5t15.5 185.5v189q0 40 -5.5 57t-14.5 22.5t-38 12.5q-11 2 -14 5.5t-3 11.5q0 14 2 17.5t11 3.5q20 0 46 -6.5t44 -6.5q20 0 49.5 6.5t44.5 6.5q9 0 9 -15q0 -12 -3 -16t-15 -7q-32 -9 -41 -18t-10 -42l-12 -296q-3 -81 -22 -143t-45.5 -97
t-61 -57.5t-64.5 -29.5t-61 -7q-59 0 -104 14.5t-84 49.5t-61.5 102t-27.5 165z" />
    <glyph glyph-name="V" unicode="V" horiz-adv-x="684" 
d="M356 103l151 370q43 105 51.5 130t8.5 41q0 11 -9.5 18t-18.5 9.5t-28 5.5q-13 2 -16 6t-3 18q0 10 2.5 12t8.5 2q13 0 47 -6.5t54 -6.5q9 0 41.5 6.5t39.5 6.5q10 0 10 -18q0 -20 -14 -20q-22 0 -34.5 -16t-36.5 -74l-192 -461l-53 -130q-6 -15 -18 -15q-7 0 -14 15
q-15 33 -112.5 263.5l-157.5 367.5q-11 26 -19.5 33.5t-39.5 16.5q-11 3 -13 6.5t-2 14.5t3 14t12 3q5 0 36 -6.5t45 -6.5q11 0 42 6.5t46 6.5h6.5t3.5 -1.5t2.5 -4t0.5 -7.5q0 -15 -2.5 -18.5t-13.5 -6.5q-38 -9 -38 -23q0 -11 39.5 -107l100 -240.5z" />
    <glyph glyph-name="W" unicode="W" horiz-adv-x="1000" 
d="M153 602l161 -488h2l156 471l-18 54q-6 15 -17 21t-56 17q-9 2 -11 7t-2 20q0 11 12 11q8 0 49 -6.5t68 -6.5q10 0 53.5 6.5t55.5 6.5q9 0 11.5 -2.5t2.5 -12.5q0 -13 -2.5 -16.5t-13.5 -6.5q-51 -13 -63.5 -18t-12.5 -16q0 -7 26 -85l145 -444h2l154 467q22 66 22 75
q0 12 -46 21q-14 2 -14 23q0 15 15 15q8 0 38 -6.5t46 -6.5q14 0 39.5 6.5t32.5 6.5q8 0 10.5 -4t2.5 -15q0 -10 -2.5 -13.5t-11.5 -5.5q-32 -7 -42.5 -18.5t-24.5 -50.5l-209 -599q-10 -28 -20 -28t-20 28l-170 507h-2l-173 -507q-10 -28 -20 -28t-20 28l-211 610
q-8 24 -20 38.5t-38 19.5q-13 3 -15.5 6t-2.5 17q0 11 2.5 13t13.5 2q5 0 37 -6.5t50 -6.5q14 0 43 6.5t41 6.5q14 0 14 -11q0 -17 -2.5 -21.5t-15.5 -5.5q-45 -4 -45 -20q0 -7 16 -55z" />
    <glyph glyph-name="X" unicode="X" horiz-adv-x="704" 
d="M125 97l193 256l-207 294q-14 20 -68 30q-12 2 -14.5 5.5t-2.5 15.5q0 11 2.5 14t9.5 3q13 0 49.5 -6.5t60.5 -6.5q19 0 53.5 6.5t40.5 6.5q11 0 13.5 -2.5t2.5 -13.5t-3.5 -15t-18.5 -7q-41 -10 -41 -20q0 -14 25 -50l138 -199l156 209q19 24 19 33q0 11 -8.5 16.5
t-38.5 10.5q-13 2 -16.5 5t-3.5 13q0 14 3 17t12 3q6 0 43.5 -6.5t64.5 -6.5q18 0 52 6.5t38 6.5q10 0 12.5 -2t2.5 -12q0 -13 -3.5 -16.5t-19.5 -7.5q-30 -7 -51.5 -22.5t-44.5 -47.5l-185 -243l208 -299q11 -16 25.5 -23.5t53.5 -16.5q11 -2 14 -6t3 -17q0 -15 -20 -15
q-16 0 -48 6.5t-48 6.5q-25 0 -57.5 -6.5t-40.5 -6.5q-14 0 -17 2.5t-3 14.5t3 15.5t16 5.5q43 8 43 21t-34 61l-140 198l-103 -134q-79 -103 -79 -114q0 -23 53 -32q14 -2 17.5 -5t3.5 -13q0 -14 -3 -17t-15 -3q-11 0 -42 6.5t-54 6.5q-17 0 -50 -6.5t-51 -6.5
q-10 0 -12.5 3.5t-2.5 15.5q0 10 3 13.5t15 5.5q34 7 49 18t48 54z" />
    <glyph glyph-name="Y" unicode="Y" horiz-adv-x="667" 
d="M301 105v175l-226 349q-14 22 -24.5 29.5t-39.5 18.5q-10 3 -12.5 6.5t-2.5 15.5q0 16 18 16q12 0 39 -6.5t47 -6.5q15 0 48 6.5t41 6.5q10 0 12 -3.5t2 -18.5q0 -10 -2.5 -12t-14.5 -4q-26 -5 -35 -9.5t-9 -12.5q0 -7 29 -52l174 -270l173 284q19 32 19 37q0 9 -44 20
q-6 2 -10 3q-11 3 -11 17q0 21 13 21q9 0 39 -6.5t49 -6.5q14 0 47.5 6.5t37.5 6.5q5 0 7 -0.5t4 -5.5t2 -15q0 -15 -17 -17q-45 -7 -62 -34l-223 -363v-175q0 -42 15 -56.5t59 -23.5q11 -2 13.5 -5.5t2.5 -16.5q0 -11 -3.5 -13.5t-12.5 -2.5q-7 0 -46 6.5t-62 6.5
t-61.5 -6.5t-46.5 -6.5q-6 0 -8.5 0.5t-5 4t-2.5 11.5q0 13 2.5 16.5t13.5 5.5q44 9 59 23.5t15 56.5z" />
    <glyph glyph-name="Z" unicode="Z" horiz-adv-x="668" 
d="M24 19l465 633h-379q-60 0 -81 -25q-6 -9 -11 -9q-4 0 -4 7q0 2 2 12l10 68q2 10 6 10q3 0 10 -2t15 -4q28 -7 103 -7h419q13 0 13 -3q0 -1 -8 -12l-465 -637h434q49 0 74 19q3 2 5.5 3.5t4 3t3 2.5t2.5 1.5t2 0.5q3 0 3 -4q0 -2 -2 -14l-13 -68q-1 -7 -4 -7q-1 0 -3 1
t-6.5 2.5t-9.5 3.5q-22 6 -64 6h-518q-10 0 -10 4q0 6 7 15z" />
    <glyph glyph-name="bracketleft" unicode="[" horiz-adv-x="296" 
d="M104 -209v924h180v-44h-130v-836h130v-44h-180z" />
    <glyph glyph-name="backslash" unicode="\" horiz-adv-x="352" 
d="M291 0l-281 702q-2 7 3.5 10t17.5 3q15 0 19 -2t8 -11l283 -703q1 -2 1 -4t-1.5 -3.5t-4.5 -2.5t-7.5 -1.5t-11.5 -0.5q-21 0 -26 13z" />
    <glyph glyph-name="bracketright" unicode="]" horiz-adv-x="296" 
d="M142 -165v836h-130v44h180v-924h-180v44h130z" />
    <glyph glyph-name="asciicircum" unicode="^" horiz-adv-x="600" 
d="M93 337l184 365h46l184 -365h-55l-152 301l-152 -301h-55z" />
    <glyph glyph-name="underscore" unicode="_" horiz-adv-x="500" 
d="M500 -125h-500v50h500v-50z" />
    <glyph glyph-name="grave" unicode="`" horiz-adv-x="278" 
d="M177 551l-141 87q-27 16 -35 25t-8 20q0 17 10.5 27t24.5 10q15 0 38 -23l146 -146h-35z" />
    <glyph glyph-name="a" unicode="a" horiz-adv-x="481" 
d="M192 248l124 26v30q0 60 -22 81.5t-90 21.5q-44 0 -50 -13q-14 -35 -21.5 -45.5t-16.5 -10.5q-24 0 -24 19q0 30 26 93q2 7 57 7h47q81 0 118.5 -33.5t37.5 -119.5v-211q0 -34 40 -55q4 -2 11 -4.5l11 -4t4 -3.5q0 -9 -11 -20q-18 -19 -33 -19q-25 0 -48.5 23.5
t-32.5 48.5q-59 -72 -150 -72q-58 0 -95 31t-37 88q0 49 40.5 88.5t114.5 53.5zM316 171v33q0 26 -13 26q-8 0 -34.5 -5t-66 -16t-68.5 -35t-29 -56q0 -30 19 -55.5t67 -25.5q50 0 90 34q21 18 28 37.5t7 62.5z" />
    <glyph glyph-name="b" unicode="b" 
d="M94 81v569q0 12 -2.5 16t-9.5 4q-37 1 -42 4q-6 2 -6 13q0 14 12 19l106 46q8 4 13 4t9.5 -7.5t4.5 -13.5t-11.5 -18t-11.5 -32v-340l2 -2q20 52 68.5 83t107.5 31q27 0 54.5 -9.5t55 -31t45 -62.5t17.5 -97q0 -112 -71.5 -191t-177.5 -79q-51 0 -90.5 19.5t-56 40.5
t-16.5 34zM152 189q0 -164 119 -164q26 0 53.5 11t54 34t43 65.5t16.5 97.5q0 89 -39.5 125.5t-93.5 36.5q-17 0 -35 -4.5t-40 -18t-38.5 -35t-28 -60t-11.5 -88.5z" />
    <glyph glyph-name="c" unicode="c" horiz-adv-x="444" 
d="M50 197q0 72 21.5 125t56.5 81t72.5 41t77.5 13q46 0 77 -12.5t41 -26.5t10 -27q0 -32 -36 -32q-16 0 -49 27t-69 27q-65 0 -102.5 -51t-37.5 -125q0 -86 43.5 -140t115.5 -54q33 0 64.5 13.5t50 27t19.5 13.5q5 0 11 -6.5t6 -12.5q0 -2 -7.5 -11t-23.5 -22.5t-36 -26.5
t-50 -22t-61 -9q-86 0 -140 62t-54 148z" />
    <glyph glyph-name="d" unicode="d" 
d="M396 410v240q0 12 -2.5 16t-9.5 4q-37 1 -42 4q-6 2 -6 13q0 14 12 19l106 46q8 4 13 4t9.5 -7.5t4.5 -13.5t-11.5 -18t-11.5 -32v-596q0 -22 13 -22q4 0 20 8t18 8q4 0 8.5 -6.5t4.5 -15.5q0 -7 -7 -11l-91 -56q-12 -7 -21 -7q-3 0 -8.5 7.5t-5.5 10.5q0 2 3.5 18
t3.5 28v16h-2q-40 -41 -76.5 -60.5t-91.5 -19.5q-28 0 -56 9.5t-56.5 31.5t-46 65t-17.5 101q0 121 68.5 192t158.5 71q74 0 117 -47h2zM118 205q0 -69 37 -115.5t104 -46.5q32 2 66 18.5t52.5 33t18.5 22.5v211q0 31 -32 58t-76 27q-65 0 -117.5 -56t-52.5 -152z" />
    <glyph glyph-name="e" unicode="e" horiz-adv-x="481" 
d="M409 284l-291 -50v-18q0 -73 37.5 -123t109.5 -50q78 0 140 66q5 5 7 5q4 0 10 -9q9 -13 9 -17t-9 -14q-71 -87 -185 -87q-93 0 -140 60t-47 151q0 103 55 181t156 78q65 0 112.5 -47t47.5 -114q0 -10 -12 -12zM121 270l194 37q32 6 32 24q0 31 -27 59.5t-66 28.5
q-55 0 -90.5 -45t-42.5 -104z" />
    <glyph glyph-name="f" unicode="f" horiz-adv-x="333" 
d="M110 104v264q0 9 -4 12t-19 3q-19 0 -19 16q0 12 11 19q21 15 26 21t5 18v83q0 45 8.5 82t26.5 68t51.5 48.5t79.5 17.5q31 0 56 -12t25 -37q0 -16 -9 -26t-26 -10q-13 0 -41 17.5t-42 17.5q-67 0 -67 -127v-131q0 -12 10 -12h137q15 0 19 -5.5t4 -22.5q0 -18 -4 -23
t-19 -5h-147v-286q0 -34 22 -48.5t94 -20.5q14 -2 14 -18q0 -20 -26 -20q-15 0 -61 6.5t-68 6.5t-50.5 -6.5t-36.5 -6.5q-17 0 -17 22q0 13 12 16q36 8 45.5 22t9.5 57z" />
    <glyph glyph-name="g" unicode="g" horiz-adv-x="500" 
d="M474 435v-50q-72 3 -89 -10q22 -30 22 -85q0 -59 -45 -109t-125 -50q-26 0 -59 10q-13 -4 -26 -18.5t-13 -29.5q0 -22 22.5 -32.5t76.5 -16.5l102 -12q130 -15 130 -104q0 -77 -86 -141.5t-188 -64.5q-85 0 -132 38.5t-47 91.5q0 101 120 150q-42 18 -51 30t-9 31
q0 56 77 87q-43 18 -66 59.5t-23 88.5q0 64 47.5 111.5t123.5 47.5t116 -36q36 14 122 14zM121 293q0 -49 33 -83.5t82 -34.5q44 0 79.5 32t35.5 93q0 50 -32.5 81.5t-86.5 31.5q-42 0 -76.5 -33t-34.5 -87zM79 -129q0 -42 33.5 -73.5t101.5 -31.5q67 0 130.5 42t63.5 89
q0 37 -22.5 55t-71.5 25q-77 11 -120 11q-49 0 -82 -34.5t-33 -82.5z" />
    <glyph glyph-name="h" unicode="h" horiz-adv-x="574" 
d="M98 95v555q0 12 -2.5 16t-9.5 4q-37 1 -42 4q-6 2 -6 13q0 14 12 19l106 46q8 4 13 4t9.5 -7.5t4.5 -13.5t-11.5 -18t-11.5 -32v-311q79 83 153 83q163 0 163 -213v-149q0 -40 10.5 -50.5t56.5 -19.5q15 -3 15 -15q0 -23 -15 -23q-6 0 -42 6.5t-56 6.5t-56 -6.5t-42 -6.5
q-15 0 -15 23q0 12 15 15q46 9 56.5 19.5t10.5 50.5v141q0 165 -118 165q-39 0 -87.5 -30.5t-48.5 -48.5v-227q0 -40 10.5 -50.5t56.5 -19.5q15 -3 15 -15q0 -23 -15 -23q-6 0 -42 6.5t-56 6.5t-56 -6.5t-42 -6.5q-15 0 -15 23q0 12 15 15q46 9 56.5 19.5t10.5 50.5z" />
    <glyph glyph-name="i" unicode="i" horiz-adv-x="278" 
d="M108 95v261q0 17 -5.5 21t-32.5 6q-19 2 -23 5t-4 14q0 10 16 17l87 38q13 6 19 6t10.5 -6t4.5 -13q0 -2 -2.5 -7.5t-5 -16t-2.5 -25.5v-300q0 -40 10.5 -50.5t56.5 -19.5q15 -3 15 -15q0 -23 -15 -23q-6 0 -42 6.5t-56 6.5t-56 -6.5t-42 -6.5q-15 0 -15 23q0 12 15 15
q46 9 56.5 19.5t10.5 50.5zM98 631q0 19 13.5 32.5t32.5 13.5t32.5 -13.5t13.5 -32.5t-13.5 -32.5t-32.5 -13.5t-32.5 13.5t-13.5 32.5z" />
    <glyph glyph-name="j" unicode="j" horiz-adv-x="242" 
d="M90 -148v504q0 17 -5.5 21t-32.5 6q-19 2 -23 5t-4 14q0 10 16 17l87 38q13 6 19 6t10.5 -6t4.5 -13q0 -2 -2.5 -7.5t-5 -16t-2.5 -25.5v-538q0 -39 -9.5 -60.5t-41.5 -39.5q-13 -8 -39 -15t-39 -7t-13 27q0 9 24 14q29 6 42.5 21t13.5 55zM80 631q0 19 13.5 32.5
t32.5 13.5t32.5 -13.5t13.5 -32.5t-13.5 -32.5t-32.5 -13.5t-32.5 13.5t-13.5 32.5z" />
    <glyph glyph-name="k" unicode="k" horiz-adv-x="537" 
d="M401 31l-223 225l197 193q18 18 30.5 25.5t29.5 7.5q16 0 28.5 -10.5t12.5 -26.5q0 -18 -13 -29t-31 -16.5t-45.5 -19.5t-48.5 -34l-87 -82l196 -188q24 -23 39 -31t40 -8h8q-1 -21 -18 -35.5t-43 -14.5q-18 0 -32 9t-40 35zM110 95v555q0 12 -2.5 16t-9.5 4q-37 1 -42 4
q-6 2 -6 13q0 14 12 19l106 46q8 4 13 4t9.5 -7.5t4.5 -13.5t-11.5 -18t-11.5 -32v-590q0 -40 10.5 -50.5t56.5 -19.5q15 -3 15 -15q0 -23 -15 -23q-6 0 -42 6.5t-56 6.5t-56 -6.5t-42 -6.5q-15 0 -15 23q0 12 15 15q46 9 56.5 19.5t10.5 50.5z" />
    <glyph glyph-name="l" unicode="l" horiz-adv-x="258" 
d="M98 95v555q0 12 -2.5 16t-9.5 4q-37 1 -42 4q-6 2 -6 13q0 14 12 19l106 46q8 4 13 4t9.5 -7.5t4.5 -13.5t-11.5 -18t-11.5 -32v-590q0 -40 10.5 -50.5t56.5 -19.5q15 -3 15 -15q0 -23 -15 -23q-6 0 -42 6.5t-56 6.5t-56 -6.5t-42 -6.5q-15 0 -15 23q0 12 15 15
q46 9 56.5 19.5t10.5 50.5z" />
    <glyph glyph-name="m" unicode="m" horiz-adv-x="870" 
d="M98 95v261q0 17 -5.5 21t-32.5 6q-19 2 -23 5t-4 14q0 10 16 17l87 38q14 6 19 6q6 0 10.5 -6t4.5 -13q0 -2 -2.5 -7.5t-5 -16t-2.5 -25.5v-24q91 86 156 86q99 0 133 -93q91 93 174 93q61 0 105 -45t44 -150v-167q0 -40 10.5 -50.5t56.5 -19.5q15 -3 15 -15
q0 -23 -15 -23q-6 0 -42 6.5t-56 6.5t-56 -6.5t-42 -6.5q-15 0 -15 23q0 12 15 15q46 9 56.5 19.5t10.5 50.5v131q0 92 -24 133.5t-78 41.5q-46 0 -95 -27.5t-54 -43.5q7 -27 7 -68v-167q0 -40 10.5 -50.5t56.5 -19.5q15 -3 15 -15q0 -23 -15 -23q-6 0 -42 6.5t-56 6.5
t-56 -6.5t-42 -6.5q-15 0 -15 23q0 12 15 15q46 9 56.5 19.5t10.5 50.5v131q0 92 -24 133.5t-79 41.5q-43 0 -92 -31.5t-49 -47.5v-227q0 -40 10.5 -50.5t56.5 -19.5q15 -3 15 -15q0 -23 -15 -23q-6 0 -42 6.5t-56 6.5t-56 -6.5t-42 -6.5q-15 0 -15 23q0 12 15 15
q46 9 56.5 19.5t10.5 50.5z" />
    <glyph glyph-name="n" unicode="n" 
d="M98 95v261q0 17 -5.5 21t-32.5 6q-19 2 -23 5t-4 14q0 10 16 17l87 38q14 6 19 6q6 0 10.5 -6t4.5 -13q0 -2 -2.5 -7.5t-5 -16t-2.5 -25.5v-24q81 86 153 86q163 0 163 -213v-149q0 -40 10.5 -50.5t56.5 -19.5q15 -3 15 -15q0 -23 -15 -23q-6 0 -42 6.5t-56 6.5t-56 -6.5
t-42 -6.5q-15 0 -15 23q0 12 15 15q46 9 56.5 19.5t10.5 50.5v141q0 165 -118 165q-39 0 -87.5 -30.5t-48.5 -48.5v-227q0 -40 10.5 -50.5t56.5 -19.5q15 -3 15 -15q0 -23 -15 -23q-6 0 -42 6.5t-56 6.5t-56 -6.5t-42 -6.5q-15 0 -15 23q0 12 15 15q46 9 56.5 19.5
t10.5 50.5z" />
    <glyph glyph-name="o" unicode="o" 
d="M118 222q0 -92 44 -141.5t116 -49.5t116 49.5t44 141.5t-44 141.5t-116 49.5t-116 -49.5t-44 -141.5zM50 222q0 111 65.5 173t162.5 62t162.5 -62t65.5 -173t-65.5 -173t-162.5 -62t-162.5 62t-65.5 173z" />
    <glyph glyph-name="p" unicode="p" 
d="M94 -194v550q0 17 -5.5 21t-32.5 6q-19 2 -23 5t-4 14q0 10 16 17l87 38q13 6 19 6t10.5 -6t4.5 -13q0 -2 -2.5 -7.5t-5 -16t-2.5 -25.5v-39l2 -3q31 45 80 74.5t101 29.5q85 0 126 -56t41 -137q0 -110 -61.5 -193.5t-164.5 -83.5q-74 0 -124 39v-207q0 -20 5.5 -25.5
t25.5 -7.5q14 -1 19 -2.5t7 -5t2 -13.5q0 -7 -3 -10.5t-16 -6.5l-91 -21q-19 -5 -26 -5q-4 0 -8.5 6.5t-4.5 11.5q0 9 16 21q12 9 12 45zM438 245q0 71 -33.5 113.5t-91.5 42.5q-53 0 -105 -44.5t-52 -80.5v-121q0 -67 38.5 -98.5t82.5 -31.5q61 0 111 57t50 163z" />
    <glyph glyph-name="q" unicode="q" 
d="M396 -194v264q-93 -83 -173 -83q-84 0 -128.5 54t-44.5 139q0 67 22.5 121.5t58.5 87.5t76.5 50.5t79.5 17.5q70 0 109 -44v40q0 10 5 10l3 -1q3 -2 8.5 -4.5t14 -5t21.5 -4.5t29 -3q27 -1 32 -4t5 -19q0 -19 -7 -23t-37 -4q-12 0 -12 -26v-550q0 -20 5.5 -25.5
t25.5 -7.5q14 -1 19 -2.5t7 -5t2 -13.5q0 -7 -3 -10.5t-16 -6.5l-91 -21q-19 -5 -26 -5q-4 0 -8.5 6.5t-4.5 11.5q0 9 16 21q12 9 12 45zM396 120v245q0 4 -10 15.5t-35.5 25t-57.5 13.5q-25 0 -51.5 -9.5t-56 -32.5t-48.5 -70.5t-19 -112.5q0 -68 35 -109.5t99 -41.5
q45 0 94.5 30t49.5 47z" />
    <glyph glyph-name="r" unicode="r" horiz-adv-x="352" 
d="M110 89v281q0 9 -6.5 11.5t-38.5 4.5q-16 1 -19.5 4t-3.5 13t14 15l37 16q6 2 24 10l31.5 13.5t17.5 5.5q6 0 6 -9v-95h2q24 44 64.5 71t90.5 27q16 0 20.5 -4.5t3.5 -19.5v-25q0 -14 -1.5 -17t-8.5 -3q-2 0 -11.5 0.5t-18.5 0.5q-59 0 -100 -32.5t-41 -72.5v-190
q0 -34 13.5 -44.5t70.5 -24.5q10 -2 13.5 -5t3.5 -11q0 -12 -4.5 -17t-17.5 -5q-3 0 -40 6.5t-65 6.5q-25 0 -56 -6.5t-35 -6.5q-21 0 -21 17q0 18 18 21q38 8 48 21t10 43z" />
    <glyph glyph-name="s" unicode="s" horiz-adv-x="407" 
d="M60 9l-11 78q-2 16 -2 20q0 15 8.5 22t16.5 7q17 0 23 -13t8 -49q1 -23 27 -36t66 -13q34 0 64.5 19.5t30.5 64.5q0 33 -24.5 54t-59 32.5l-69 24t-59 39t-24.5 68.5q0 61 44.5 95.5t113.5 34.5q44 0 79.5 -4t35.5 -10q3 -75 3 -76q0 -42 -20 -42q-15 0 -20.5 11.5
t-9.5 59.5q-1 9 -21 16t-43 7q-55 0 -80.5 -26t-25.5 -53t25 -45t60.5 -29t71 -25t60.5 -42t25 -71q0 -141 -171 -141q-52 0 -112 10q-9 1 -10 12z" />
    <glyph glyph-name="t" unicode="t" horiz-adv-x="333" 
d="M90 128v232q0 13 -4 17t-24 7q-19 1 -24.5 5t-5.5 16q0 10 5.5 14t27.5 13q18 6 24.5 17.5t13.5 53.5q7 36 12 44t22 8q13 0 16 -9t3 -52q0 -36 3.5 -47t16.5 -11q17 0 64.5 2t59.5 2q15 0 20.5 -6.5t5.5 -23.5q0 -30 -30 -30h-125q-11 0 -15 -7.5t-4 -28.5v-194
q0 -64 18.5 -85.5t56.5 -21.5q23 0 44.5 9t34.5 18l13 9q7 0 12.5 -5.5t5.5 -14.5q0 -8 -17 -24.5t-49 -32t-64 -15.5q-50 0 -83.5 32.5t-33.5 108.5z" />
    <glyph glyph-name="u" unicode="u" 
d="M98 144v216q0 13 -8.5 17t-45.5 6q-9 0 -9 19q0 10 16 17l81 34q23 10 30 10q3 0 7 -8.5t4 -13.5l-7 -21q-6 -22 -6 -43v-212q0 -39 10 -65.5t26 -37.5t29 -15t28 -4q45 0 94 29.5t49 48.5v249q0 8 -2.5 11t-11.5 4q-27 2 -34 5t-7 11q0 18 5 22q1 1 9 2t23.5 4.5
t31.5 8.5l23 9t26 11t12 5q4 0 10 -6.5t6 -10.5q0 -6 -14.5 -24t-14.5 -35v-290q0 -24 13 -24q6 0 20 7t16 7q4 0 9 -8.5t5 -14.5q0 -8 -21 -21l-67 -41q-23 -15 -27 -15q-6 0 -13 9t-7 15l5 13q5 14 5 28v16q-89 -81 -160 -81q-48 0 -81 27.5t-45 61t-12 68.5z" />
    <glyph glyph-name="v" unicode="v" horiz-adv-x="519" 
d="M438 334l-146 -310q-18 -37 -35 -37q-13 0 -23 21l-164 348q-11 25 -20 34.5t-20 11.5q-15 3 -15 20q0 7 4 14.5t10 7.5q5 0 24 -3t28 -3q22 0 52.5 9.5t40.5 9.5q15 0 15 -22q0 -6 -27 -18.5t-27 -32.5q0 -14 24 -75.5t52 -119.5l55 -113l106 233q28 64 28 76
q0 13 -32.5 28t-32.5 23q0 7 4.5 14t11.5 7q2 0 34 -9.5t62 -9.5q11 0 26.5 3t18.5 3q17 0 17 -22q0 -9 -27 -19q-14 -5 -44 -69z" />
    <glyph glyph-name="w" unicode="w" horiz-adv-x="852" 
d="M228 20l-136 291q-34 71 -54 86q-3 2 -9.5 4l-11 3.5t-8 5.5t-3.5 11q0 23 16 23q5 0 24 -3t28 -3q25 0 56 9.5t40 9.5q6 0 10 -7.5t4 -14.5t-8.5 -12t-18.5 -8t-18.5 -11.5t-8.5 -21.5q0 -19 11 -42l124 -265l109 223q24 48 24 81q0 15 -12 22t-46 18q-18 5 -18 12
q0 26 10 26q11 0 43 -6.5t50 -6.5q22 0 51 6.5t44 6.5q12 0 12 -20q0 -13 -16 -18q-41 -13 -46 -21q-4 -5 -4 -12q0 -18 43 -122l75 -184l94 186q52 102 52 117q0 11 -8.5 18.5t-34.5 17.5q-15 6 -15 12q0 26 14 26q1 0 12.5 -3.5t30 -6.5t37.5 -3q16 0 37 6.5t29 6.5
q14 0 14 -21q0 -3 -1 -5t-2.5 -4t-3 -3t-4.5 -2.5l-5 -2.5q-21 -13 -38 -44q-6 -10 -80.5 -157t-107.5 -197q-23 -34 -29 -34q-15 0 -23 19l-121 307l-141 -291q-7 -15 -17.5 -25t-16.5 -10q-12 0 -28 33z" />
    <glyph glyph-name="x" unicode="x" horiz-adv-x="519" 
d="M226 225l-128 152q-24 26 -64 42q-17 6 -17 14q0 24 14 24q8 0 28.5 -6.5t41.5 -6.5q23 0 47 6.5t26 6.5q16 0 16 -23q0 -8 -14 -15q-17 -9 -17 -17q0 -12 45 -66l59 -72l56 73q35 48 35 59q0 16 -15 23q-16 7 -16 18q0 7 4.5 13.5t11.5 6.5t29.5 -6.5t37.5 -6.5
q22 0 46 6.5t28 6.5q14 0 14 -15q0 -18 -19 -23q-21 -6 -36.5 -17.5t-36.5 -38.5l-107 -134l94 -114q38 -46 59 -64t43 -26q17 -6 17 -13q0 -25 -18 -25q-8 0 -31 6.5t-44 6.5q-15 0 -29 -3.5t-22.5 -6.5t-10.5 -3q-4 0 -10.5 6.5t-6.5 13.5q0 11 15 18q13 5 13 16
q0 13 -24 44l-81 102l-47 -57q-57 -70 -57 -85t12 -20q15 -6 15 -16q0 -7 -4.5 -14.5t-10.5 -7.5q-4 0 -26 6.5t-45 6.5q-16 0 -38 -6.5t-33 -6.5q-15 0 -15 21q0 13 23 17q39 8 72 50z" />
    <glyph glyph-name="y" unicode="y" 
d="M249 5l-68 134q-105 207 -120 232q-22 35 -44 48q-11 7 -13.5 9.5t-2.5 7.5q0 21 16 21q3 0 28 -6.5t51 -6.5q25 0 50.5 6.5t28.5 6.5q13 0 13 -21q0 -7 -24 -17q-34 -14 -34 -28t56 -127l98 -200l112 214q46 87 46 106q0 11 -7.5 17t-37.5 18q-14 5 -14 18q0 6 5 13
t12 7q2 0 32.5 -6.5t42.5 -6.5q17 0 40 6.5t32 6.5q10 0 10 -21q0 -1 -0.5 -2.5t-1 -2.5t-1.5 -2t-3 -2t-3.5 -2l-4.5 -3t-5 -3q-19 -12 -36 -44l-211 -389q-45 -82 -82 -135t-66 -77t-49.5 -31.5t-44.5 -7.5q-16 0 -22.5 11.5t-6.5 47.5q0 15 32 15q49 0 73 18.5t70 87.5
q34 51 54 90z" />
    <glyph glyph-name="z" unicode="z" horiz-adv-x="520" 
d="M54 42l314 346h-177q-27 0 -51 -2.5t-39 -6t-25.5 -7t-16 -6t-6.5 -2.5q-8 0 -8 7q0 8 14 72q2 7 9 7q17 0 50 -3q63 -3 76 -3h139q1 0 67 3q33 3 49 3q14 0 14 -23q0 -9 -27 -39l-303 -332h209q32 0 59 2t43 5t27 6t17 5l5 2q7 0 7 -6q0 -14 -8 -45t-16 -31q-2 0 -8.5 1
l-13.5 2q-42 3 -78 3h-212q-56 0 -79 -3l-15.5 -2t-10.5 -1q-6 0 -12.5 5.5t-6.5 17.5q0 10 14 25z" />
    <glyph glyph-name="braceleft" unicode="{" horiz-adv-x="296" 
d="M120 -58v187q0 54 -15.5 81.5t-60.5 42.5q45 15 60.5 42.5t15.5 81.5v187q0 90 33 120.5t99 30.5v-14q-46 -9 -64 -39.5t-18 -89.5v-179q0 -62 -16 -93.5t-65 -45.5v-2q49 -14 65 -45.5t16 -93.5v-179q0 -59 18 -89.5t64 -39.5v-14q-66 0 -99 30.5t-33 120.5z" />
    <glyph glyph-name="bar" unicode="|" horiz-adv-x="222" 
d="M86 -13v769h50v-769h-50z" />
    <glyph glyph-name="braceright" unicode="}" horiz-adv-x="296" 
d="M126 -66v179q0 62 16 93.5t65 45.5v2q-49 14 -65 45.5t-16 93.5v179q0 59 -18 89.5t-64 39.5v14q66 0 99 -30.5t33 -120.5v-187q0 -54 15.5 -81.5t60.5 -41.5v-2q-45 -14 -60.5 -41.5t-15.5 -81.5v-187q0 -90 -33 -120.5t-99 -30.5v14q46 9 64 39.5t18 89.5z" />
    <glyph glyph-name="asciitilde" unicode="~" horiz-adv-x="600" 
d="M105 190l-36 36q45 86 125 86q42 0 118 -34q8 -4 26.5 -12l26.5 -11.5t20 -7t22 -3.5q42 0 88 72l36 -36q-20 -27 -33 -42t-38 -29.5t-54 -14.5q-42 0 -110 34t-107 34q-26 0 -48.5 -21t-35.5 -51z" />
    <glyph glyph-name="uni00A0" unicode="&#xa0;" horiz-adv-x="260" 
 />
    <glyph glyph-name="exclamdown" unicode="&#xa1;" horiz-adv-x="296" 
d="M131 287l34 17q3 -62 14.5 -256t11.5 -249q0 -64 -45 -64q-41 0 -41 61q0 138 26 491zM200 405q0 -22 -15 -37t-37 -15t-37 15t-15 37t15 37t37 15t37 -15t15 -37z" />
    <glyph glyph-name="cent" unicode="&#xa2;" horiz-adv-x="520" 
d="M344 389l-115 -331q30 -15 66 -15q33 0 64.5 13.5t50 27t19.5 13.5q5 0 11 -6.5t6 -12.5q0 -2 -7.5 -11t-23.5 -22.5t-36 -26.5t-50 -22t-61 -9q-36 0 -60 12l-29 -84q-4 -12 -16 -12q-20 0 -20 9q0 8 4 16l29 83q-48 26 -75 76t-27 110q0 72 21.5 125t56.5 81t72.5 41
t77.5 13q12 0 28 -2l23 68q4 12 18 12q18 0 18 -12q0 -4 -4 -13l-21 -60q34 -10 50 -26.5t16 -32.5q0 -32 -36 -32q-6 0 -11 1.5t-11 5.5t-8.5 5.5t-10.5 9t-9 8.5zM199 78l114 328q-17 7 -37 7q-65 0 -102.5 -51t-37.5 -125q0 -105 63 -159z" />
    <glyph glyph-name="sterling" unicode="&#xa3;" horiz-adv-x="520" 
d="M65 376h58q-4 8 -14 31.5l-14 33.5t-10 28t-8 34.5t-2 34.5q0 71 55.5 124t172.5 53q24 0 68.5 -5.5t62.5 -6.5q0 -9 2.5 -47t2.5 -65q0 -28 -18 -28q-13 0 -29 46q-14 39 -37.5 50.5t-67.5 11.5q-64 0 -104 -34.5t-40 -95.5q0 -27 5.5 -52t11.5 -38.5t18.5 -38.5
t17.5 -36h157q14 0 17.5 -3.5t3.5 -19.5q0 -21 -31 -21h-133q9 -35 9 -77q0 -106 -80 -191v-2q49 7 81 7q26 0 65 -3.5t63 -3.5q29 0 53.5 19.5t58.5 83.5q7 14 22 14q6 0 11 -5.5t5 -11.5q0 -7 -13.5 -33t-32.5 -66.5t-29 -75.5q-44 14 -136 20q-86 6 -185 6
q-13 -13 -17 -16q-16 -10 -32 -10q-31 0 -31 22q0 33 76 49q31 51 45 91t14 92q0 53 -16 91h-77q-19 0 -19 19q0 16 4 20.5t16 4.5z" />
    <glyph glyph-name="currency" unicode="&#xa4;" horiz-adv-x="520" 
d="M12 141l54 57q-54 67 -54 153q0 94 56 153l-56 57l38 38l56 -55q65 55 157 55q86 0 151 -55l56 55l38 -38l-54 -54q54 -63 54 -156q0 -88 -53 -154l53 -56l-38 -38l-53 58q-65 -58 -155 -58q-93 0 -159 58l-53 -58zM68 351q0 -83 56.5 -140.5t137.5 -57.5q80 0 135 58.5
t55 139.5q0 80 -55 139t-134 59q-82 0 -138.5 -58t-56.5 -140z" />
    <glyph glyph-name="yen" unicode="&#xa5;" horiz-adv-x="520" 
d="M230 105v79h-162q-7 0 -7 7v29q0 8 7 8h162v68l-9 18h-153q-7 0 -7 7v29q0 8 7 8h132l-143 271q-14 26 -27.5 34.5t-41.5 13.5q-12 2 -12 22q0 10 3 13t12 3q19 0 47.5 -6.5t42.5 -6.5q12 0 39 6.5t37 6.5q17 0 17 -17q0 -16 -9 -21q-54 -11 -54 -17q0 -11 28 -66
l125 -248l119 231q34 67 34 76q0 7 -10 11.5t-42 12.5q-6 2 -8 5t-2 15q0 18 9 18q19 0 49.5 -6.5t42.5 -6.5q5 0 35 6.5t39 6.5q14 0 14 -18q0 -17 -11 -20q-38 -8 -49 -14.5t-23 -30.5l-141 -274h135q7 0 7 -8v-29q0 -7 -7 -7h-155l-8 -18v-68h163q7 0 7 -8v-29
q0 -7 -7 -7h-163v-79q0 -42 15 -56.5t59 -23.5q11 -2 13.5 -5.5t2.5 -16.5q0 -11 -3.5 -13.5t-12.5 -2.5q-8 0 -46 6.5t-59 6.5t-59 -6.5t-46 -6.5q-6 0 -8.5 0.5t-5 4t-2.5 11.5q0 13 2.5 16.5t13.5 5.5q44 9 59 23.5t15 56.5z" />
    <glyph glyph-name="brokenbar" unicode="&#xa6;" horiz-adv-x="222" 
d="M86 -13v283h50v-283h-50zM86 473v283h50v-283h-50z" />
    <glyph glyph-name="section" unicode="&#xa7;" horiz-adv-x="519" 
d="M370 715q65 0 65 -46q0 -37 -44 -37q-11 0 -42 13.5t-57 13.5q-34 0 -55.5 -29t-21.5 -62q0 -50 36 -120t78.5 -129.5t78.5 -135t36 -134.5q0 -54 -19 -110.5t-53.5 -105.5t-89.5 -80t-119 -31q-27 0 -48 10.5t-21 34.5q0 15 11.5 25t27.5 10q15 0 50.5 -15t52.5 -15
q31 0 50.5 23t19.5 52q0 56 -34.5 128t-76 132t-76 134.5t-34.5 134.5q0 76 27.5 142t70 108t92 65.5t95.5 23.5zM183 529q0 39 11 64l-2 2q-57 -76 -57 -178q0 -49 21.5 -105.5t52.5 -108l61.5 -102t52 -102.5t21.5 -94q0 -36 -15 -77l2 -2q63 78 63 192q0 53 -21.5 107.5
t-53 101l-62.5 93.5t-52.5 101.5t-21.5 107.5z" />
    <glyph glyph-name="dieresis" unicode="&#xa8;" horiz-adv-x="278" 
d="M191 628q0 18 14 32t32 14t32 -14t14 -32t-14 -32t-32 -14t-32 14t-14 32zM-5 628q0 18 13.5 32t32.5 14q18 0 32 -14t14 -32t-14 -32t-32 -14q-19 0 -32.5 14t-13.5 32z" />
    <glyph glyph-name="copyright" unicode="&#xa9;" horiz-adv-x="800" 
d="M577 258l-18 -77q-1 -7 -26 -14q-53 -17 -111 -17q-99 0 -162 50.5t-63 158.5q0 75 61.5 139t169.5 64q50 0 107 -18q25 -8 25 -23v-73h-14q-6 88 -124 88q-76 0 -116.5 -48.5t-40.5 -124.5q0 -84 42 -135.5t124 -51.5q98 0 131 82h15zM36 351q0 151 106.5 257.5
t257.5 106.5t257.5 -106.5t106.5 -257.5t-106.5 -257.5t-257.5 -106.5t-257.5 106.5t-106.5 257.5zM86 351q0 -139 90 -232.5t224 -93.5t224 93.5t90 232.5t-90 232.5t-224 93.5t-224 -93.5t-90 -232.5z" />
    <glyph glyph-name="ordfeminine" unicode="&#xaa;" horiz-adv-x="313" 
d="M245 604v-127q0 -22 26 -33q1 0 5.5 -2t6.5 -3t4 -3t2 -5q0 -5 -7 -12q-12 -12 -22 -12q-16 0 -31.5 14t-21.5 29q-40 -43 -97 -43q-38 0 -62 19t-24 53t25.5 58.5t74.5 34.5l71 15v23q0 32 -10.5 43t-49.5 11q-29 0 -32 -8q-12 -25 -25 -25q-19 0 -19 11q0 14 17 56
q2 4 37 4h31q52 0 76.5 -21t24.5 -77zM195 503v34q0 12 -9 12q-15 0 -36.5 -4t-45.5 -19.5t-24 -39.5q0 -41 40 -41q31 0 53 17t22 41z" />
    <glyph glyph-name="guillemotleft" unicode="&#xab;" horiz-adv-x="426" 
d="M166 84l-109 151l109 157h49l-106 -157l106 -151h-49zM314 84l-109 151l109 157h49l-106 -157l106 -151h-49z" />
    <glyph glyph-name="logicalnot" unicode="&#xac;" horiz-adv-x="600" 
d="M497 108v217h-450v50h506v-267h-56z" />
    <glyph glyph-name="uni00AD" unicode="&#xad;" horiz-adv-x="333" 
d="M52 207v62h229v-62h-229z" />
    <glyph glyph-name="registered" unicode="&#xae;" horiz-adv-x="800" 
d="M344 336v-124q0 -20 7.5 -25.5t45.5 -8.5v-14h-168v14q33 1 40 7t7 30v285q0 24 -7 29t-40 8v14h181q51 0 87.5 -24t36.5 -70q0 -41 -24 -70t-62 -42l73 -111q33 -51 74 -56v-14h-57q-35 0 -51 26l-96 146h-47zM344 531v-175h48q80 0 80 96q0 79 -84 79h-44zM36 351
q0 151 106.5 257.5t257.5 106.5t257.5 -106.5t106.5 -257.5t-106.5 -257.5t-257.5 -106.5t-257.5 106.5t-106.5 257.5zM86 351q0 -139 90 -232.5t224 -93.5t224 93.5t90 232.5t-90 232.5t-224 93.5t-224 -93.5t-90 -232.5z" />
    <glyph glyph-name="macron" unicode="&#xaf;" horiz-adv-x="278" 
d="M6 603v50h266v-50h-266z" />
    <glyph glyph-name="degree" unicode="&#xb0;" horiz-adv-x="400" 
d="M57 572q0 60 41.5 101.5t101.5 41.5t101.5 -41.5t41.5 -101.5t-41.5 -101.5t-101.5 -41.5t-101.5 41.5t-41.5 101.5zM95 572q0 -44 30.5 -74.5t74.5 -30.5t74.5 30.5t30.5 74.5t-30.5 74.5t-74.5 30.5t-74.5 -30.5t-30.5 -74.5z" />
    <glyph glyph-name="plusminus" unicode="&#xb1;" horiz-adv-x="600" 
d="M275 329v183h50v-183h228v-50h-228v-183h-50v183h-228v50h228zM47 0v50h506v-50h-506z" />
    <glyph glyph-name="twosuperior" unicode="&#xb2;" horiz-adv-x="337" 
d="M18 276v18q128 132 160 173q53 68 53 119q0 29 -18.5 54t-59.5 25q-36 0 -62.5 -20t-26.5 -55q0 -2 -6 -6.5t-10 -4.5q-16 0 -16 16q0 56 34.5 88t91.5 32q66 0 97.5 -35t31.5 -81q0 -27 -11.5 -56t-26 -51t-41.5 -51.5t-44 -45l-49 -44.5l-41 -37h120q22 0 34 7t29 36
q12 21 18 26t15 5q11 0 11 -9q0 -4 -9 -20.5l-22 -42t-20 -46.5q-4 2 -12 4t-10 2h-210z" />
    <glyph glyph-name="threesuperior" unicode="&#xb3;" horiz-adv-x="337" 
d="M54 471l17 58q43 -9 72 -9q42 0 72.5 20t30.5 53q0 34 -24 53t-63 19q-47 0 -70.5 -22t-23.5 -45q0 -13 -15 -13q-17 0 -17 28q0 45 35.5 73.5t89.5 28.5q53 0 89.5 -29t36.5 -76q0 -68 -73 -98v-2q48 -13 70.5 -38.5t22.5 -70.5q0 -58 -45.5 -94.5t-108.5 -36.5
q-74 0 -105 28.5t-31 69.5q0 25 26 25q20 0 25 -7t5 -22q0 -31 22 -49.5t55 -18.5q41 0 74 25.5t33 71.5q0 45 -32.5 67t-87.5 22q-38 0 -80 -11z" />
    <glyph glyph-name="acute" unicode="&#xb4;" horiz-adv-x="278" 
d="M66 551l146 146q23 23 38 23q14 0 24.5 -10t10.5 -27q0 -11 -8 -20t-35 -25l-141 -87h-35z" />
    <glyph glyph-name="mu" unicode="&#xb5;" 
d="M458 387v-290q0 -24 13 -24q6 0 20 7t16 7q4 0 9 -8.5t5 -14.5q0 -8 -21 -21l-67 -41q-23 -15 -27 -15q-6 0 -13 9t-7 15l5 13q5 14 5 28v16q-89 -81 -160 -81q-48 0 -80 27q0 -52 2.5 -144.5t2.5 -114.5q0 -20 -35 -20q-21 0 -28 4t-7 19q0 17 3.5 158.5t3.5 219.5v224
q0 13 -8.5 17t-45.5 6q-9 0 -9 19q0 10 16 17l81 34q23 10 30 10q3 0 7 -8.5t4 -13.5l-7 -21q-6 -22 -6 -43v-212q0 -39 10 -65.5t26 -37.5t29 -15t28 -4q45 0 94 29.5t49 48.5v249q0 8 -2.5 11t-11.5 4q-27 2 -34 5t-7 11q0 22 5 22q21 0 64 15l23 9t26 11t12 5
q4 0 10 -6.5t6 -10.5q0 -6 -14.5 -24t-14.5 -35z" />
    <glyph glyph-name="paragraph" unicode="&#xb6;" horiz-adv-x="600" 
d="M255 336v347q-72 0 -104.5 -35.5t-32.5 -132.5q0 -93 38.5 -136t98.5 -43zM255 -198v502q-104 0 -154.5 57t-50.5 156q0 105 48.5 151.5t160.5 46.5h240v-18l-35 -4q-32 -4 -41 -13t-9 -41v-837q0 -34 14.5 -44t70.5 -16v-20h-135v961h-59v-961h-135v20q56 6 70.5 16
t14.5 44z" />
    <glyph glyph-name="periodcentered" unicode="&#xb7;" horiz-adv-x="260" 
d="M78 301q0 22 15 37t37 15t37 -15t15 -37t-15 -37t-37 -15t-37 15t-15 37z" />
    <glyph glyph-name="cedilla" unicode="&#xb8;" horiz-adv-x="278" 
d="M118 -99l44 99h35l-30 -66q22 6 34 6q32 0 55 -18.5t23 -50.5q0 -39 -31.5 -61.5t-89.5 -22.5q-43 0 -82 15l14 30q43 -13 65 -13t39 11t17 32q0 19 -12.5 29.5t-31.5 10.5q-21 0 -32 -6z" />
    <glyph glyph-name="onesuperior" unicode="&#xb9;" horiz-adv-x="337" 
d="M145 365v288l-46 -31q-39 -27 -46 -27q-4 0 -8 4.5t-4 7.5t14 14l135 94l18 -5q-7 -29 -7 -76v-275q0 -37 9 -49t40 -14q22 -1 27 -2.5t5 -6.5q0 -17 -13 -17q-2 0 -33.5 3t-60.5 3t-60.5 -3t-37.5 -3q-18 0 -18 14q0 7 4.5 9t26.5 3q35 2 45 14.5t10 54.5z" />
    <glyph glyph-name="ordmasculine" unicode="&#xba;" horiz-adv-x="361" 
d="M181 664q-43 0 -71 -29t-28 -81q0 -51 28 -80t71 -29q42 0 70 29t28 80t-28 80.5t-70 29.5zM181 702q64 0 106 -38t42 -110q0 -71 -42 -109t-106 -38t-106.5 38t-42.5 109q0 72 42.5 110t106.5 38z" />
    <glyph glyph-name="guillemotright" unicode="&#xbb;" horiz-adv-x="426" 
d="M63 84l106 151l-106 157h49l109 -157l-109 -151h-49zM211 84l106 151l-106 157h49l109 -157l-109 -151h-49z" />
    <glyph glyph-name="onequarter" unicode="&#xbc;" horiz-adv-x="778" 
d="M479 207l160 214q7 9 9.5 12t6.5 4.5t12 1.5q15 0 15 -12q0 -4 -1 -25.5t-1 -38.5v-207h57v-44h-57v-53q0 -38 -13 -59h-58q15 22 15 58v54h-168q-32 0 -32 18q0 5 7 15q22 31 48 62zM480 156h144v197h-2zM145 365v288l-46 -31q-39 -27 -46 -27q-4 0 -8 4.5t-4 7.5t14 14
l135 94l18 -5q-7 -29 -7 -76v-275q0 -37 9 -49t40 -14q22 -1 27 -2.5t5 -6.5q0 -17 -13 -17q-2 0 -33.5 3t-60.5 3t-60.5 -3t-37.5 -3q-18 0 -18 14q0 7 4.5 9t26.5 3q35 2 45 14.5t10 54.5zM161 -26l455 754h41l-455 -754h-41z" />
    <glyph glyph-name="onehalf" unicode="&#xbd;" horiz-adv-x="778" 
d="M145 365v288l-46 -31q-39 -27 -46 -27q-4 0 -8 4.5t-4 7.5t14 14l135 94l18 -5q-7 -29 -7 -76v-275q0 -37 9 -49t40 -14q22 -1 27 -2.5t5 -6.5q0 -17 -13 -17q-2 0 -33.5 3t-60.5 3t-60.5 -3t-37.5 -3q-18 0 -18 14q0 7 4.5 9t26.5 3q35 2 45 14.5t10 54.5zM141 -26
l455 754h41l-455 -754h-41zM454 0v18q128 132 160 173q53 68 53 119q0 29 -18.5 54t-59.5 25q-36 0 -62.5 -20t-26.5 -55q0 -2 -6 -6.5t-10 -4.5q-16 0 -16 16q0 56 34.5 88t91.5 32q66 0 97.5 -35t31.5 -81q0 -27 -11.5 -56t-26 -51t-41.5 -51.5t-44 -45l-49 -44.5l-41 -37
h120q22 0 34 7t29 36q12 21 18 26t15 5q11 0 11 -9q0 -4 -9 -20.5l-22 -42t-20 -46.5q-4 2 -12 4t-10 2h-210z" />
    <glyph glyph-name="threequarters" unicode="&#xbe;" horiz-adv-x="778" 
d="M479 207l160 214q7 9 9.5 12t6.5 4.5t12 1.5q15 0 15 -12q0 -4 -1 -25.5t-1 -38.5v-207h57v-44h-57v-53q0 -38 -13 -59h-58q15 22 15 58v54h-168q-32 0 -32 18q0 5 7 15q22 31 48 62zM480 156h144v197h-2zM161 -26l455 754h41l-455 -754h-41zM54 471l17 58q43 -9 72 -9
q42 0 72.5 20t30.5 53q0 34 -24 53t-63 19q-47 0 -70.5 -22t-23.5 -45q0 -13 -15 -13q-17 0 -17 28q0 45 35.5 73.5t89.5 28.5q53 0 89.5 -29t36.5 -76q0 -68 -73 -98v-2q48 -13 70.5 -38.5t22.5 -70.5q0 -58 -45.5 -94.5t-108.5 -36.5q-74 0 -105 28.5t-31 69.5q0 25 26 25
q20 0 25 -7t5 -22q0 -31 22 -49.5t55 -18.5q41 0 74 25.5t33 71.5q0 45 -32.5 67t-87.5 22q-38 0 -80 -11z" />
    <glyph glyph-name="questiondown" unicode="&#xbf;" horiz-adv-x="464" 
d="M81 187l-37 46q29 27 80 42.5t95 15.5q94 0 147.5 -50.5t53.5 -123.5q0 -43 -21.5 -76t-52 -52.5t-60.5 -35.5t-51.5 -35t-21.5 -41q0 -64 75 -64q12 0 26 2l9 -8l-84 -78q-47 34 -70.5 62.5t-23.5 67.5q0 35 25 61.5t60.5 44.5l71.5 36.5t61 48.5t25 71q0 45 -38 85.5
t-122 40.5q-39 0 -80 -16t-67 -44zM296 405q0 -22 -15 -37t-37 -15t-37 15t-15 37t15 37t37 15t37 -15t15 -37z" />
    <glyph glyph-name="Agrave" unicode="&#xc0;" horiz-adv-x="722" 
d="M472 280h-229q-2 -6 -25.5 -61.5l-42 -103t-18.5 -58.5q0 -19 45 -32q19 -6 19 -19q0 -19 -15 -19q-4 0 -44 6.5t-52 6.5q-16 0 -43 -6.5t-49 -6.5q-7 0 -11.5 5t-4.5 12q0 20 20 21q31 1 54 23.5t44 73.5q221 527 235 575q5 18 16 18q10 0 13 -11q12 -42 110 -295
t138 -340q16 -35 62 -44q22 -5 25 -11q1 -3 1 -8q0 -19 -15 -19q-17 0 -51 6.5t-46 6.5q-19 0 -53.5 -6.5t-37.5 -6.5q-16 0 -16 14q0 13 3 17.5t17 6.5q16 2 26.5 10.5t10.5 20.5q0 1 -15.5 40.5l-37.5 96t-33 87.5zM362 575l-100 -251h193zM399 749l-141 87q-27 16 -35 25
t-8 20q0 17 10.5 27t24.5 10q15 0 38 -23l146 -146h-35z" />
    <glyph glyph-name="Aacute" unicode="&#xc1;" horiz-adv-x="722" 
d="M472 280h-229q-2 -6 -25.5 -61.5l-42 -103t-18.5 -58.5q0 -19 45 -32q19 -6 19 -19q0 -19 -15 -19q-4 0 -44 6.5t-52 6.5q-16 0 -43 -6.5t-49 -6.5q-7 0 -11.5 5t-4.5 12q0 20 20 21q31 1 54 23.5t44 73.5q221 527 235 575q5 18 16 18q10 0 13 -11q12 -42 110 -295
t138 -340q16 -35 62 -44q22 -5 25 -11q1 -3 1 -8q0 -19 -15 -19q-17 0 -51 6.5t-46 6.5q-19 0 -53.5 -6.5t-37.5 -6.5q-16 0 -16 14q0 13 3 17.5t17 6.5q16 2 26.5 10.5t10.5 20.5q0 1 -15.5 40.5l-37.5 96t-33 87.5zM362 575l-100 -251h193zM288 749l146 146q23 23 38 23
q14 0 24.5 -10t10.5 -27q0 -11 -8 -20t-35 -25l-141 -87h-35z" />
    <glyph glyph-name="Acircumflex" unicode="&#xc2;" horiz-adv-x="722" 
d="M472 280h-229q-2 -6 -25.5 -61.5l-42 -103t-18.5 -58.5q0 -19 45 -32q19 -6 19 -19q0 -19 -15 -19q-4 0 -44 6.5t-52 6.5q-16 0 -43 -6.5t-49 -6.5q-7 0 -11.5 5t-4.5 12q0 20 20 21q31 1 54 23.5t44 73.5q221 527 235 575q5 18 16 18q10 0 13 -11q12 -42 110 -295
t138 -340q16 -35 62 -44q22 -5 25 -11q1 -3 1 -8q0 -19 -15 -19q-17 0 -51 6.5t-46 6.5q-19 0 -53.5 -6.5t-37.5 -6.5q-16 0 -16 14q0 13 3 17.5t17 6.5q16 2 26.5 10.5t10.5 20.5q0 1 -15.5 40.5l-37.5 96t-33 87.5zM362 575l-100 -251h193zM389 918l122 -167l-2 -2h-31
l-117 105l-117 -105h-31l-2 2l122 167h56z" />
    <glyph glyph-name="Atilde" unicode="&#xc3;" horiz-adv-x="722" 
d="M472 280h-229q-2 -6 -25.5 -61.5l-42 -103t-18.5 -58.5q0 -19 45 -32q19 -6 19 -19q0 -19 -15 -19q-4 0 -44 6.5t-52 6.5q-16 0 -43 -6.5t-49 -6.5q-7 0 -11.5 5t-4.5 12q0 20 20 21q31 1 54 23.5t44 73.5q221 527 235 575q5 18 16 18q10 0 13 -11q12 -42 110 -295
t138 -340q16 -35 62 -44q22 -5 25 -11q1 -3 1 -8q0 -19 -15 -19q-17 0 -51 6.5t-46 6.5q-19 0 -53.5 -6.5t-37.5 -6.5q-16 0 -16 14q0 13 3 17.5t17 6.5q16 2 26.5 10.5t10.5 20.5q0 1 -15.5 40.5l-37.5 96t-33 87.5zM362 575l-100 -251h193zM225 775h-26q7 42 35.5 70.5
t70.5 28.5q22 0 72 -27q42 -22 62 -22q38 0 56 52h28q-10 -42 -37.5 -72t-68.5 -30q-27 0 -73 24q-48 23 -64 23q-42 0 -55 -47z" />
    <glyph glyph-name="Adieresis" unicode="&#xc4;" horiz-adv-x="722" 
d="M472 280h-229q-2 -6 -25.5 -61.5l-42 -103t-18.5 -58.5q0 -19 45 -32q19 -6 19 -19q0 -19 -15 -19q-4 0 -44 6.5t-52 6.5q-16 0 -43 -6.5t-49 -6.5q-7 0 -11.5 5t-4.5 12q0 20 20 21q31 1 54 23.5t44 73.5q221 527 235 575q5 18 16 18q10 0 13 -11q12 -42 110 -295
t138 -340q16 -35 62 -44q22 -5 25 -11q1 -3 1 -8q0 -19 -15 -19q-17 0 -51 6.5t-46 6.5q-19 0 -53.5 -6.5t-37.5 -6.5q-16 0 -16 14q0 13 3 17.5t17 6.5q16 2 26.5 10.5t10.5 20.5q0 1 -15.5 40.5l-37.5 96t-33 87.5zM362 575l-100 -251h193zM413 826q0 18 14 32t32 14
t32 -14t14 -32t-14 -32t-32 -14t-32 14t-14 32zM217 826q0 18 13.5 32t32.5 14q18 0 32 -14t14 -32t-14 -32t-32 -14q-19 0 -32.5 14t-13.5 32z" />
    <glyph glyph-name="Aring" unicode="&#xc5;" horiz-adv-x="722" 
d="M472 280h-229q-2 -6 -25.5 -61.5l-42 -103t-18.5 -58.5q0 -19 45 -32q19 -6 19 -19q0 -19 -15 -19q-4 0 -44 6.5t-52 6.5q-16 0 -43 -6.5t-49 -6.5q-7 0 -11.5 5t-4.5 12q0 20 20 21q31 1 54 23.5t44 73.5q221 527 235 575q5 18 16 18q10 0 13 -11q12 -42 110 -295
t138 -340q16 -35 62 -44q22 -5 25 -11q1 -3 1 -8q0 -19 -15 -19q-17 0 -51 6.5t-46 6.5q-19 0 -53.5 -6.5t-37.5 -6.5q-16 0 -16 14q0 13 3 17.5t17 6.5q16 2 26.5 10.5t10.5 20.5q0 1 -15.5 40.5l-37.5 96t-33 87.5zM362 575l-100 -251h193zM274 836q0 40 28 68.5t69 28.5
t69 -28.5t28 -68.5t-28 -68.5t-69 -28.5t-69 28.5t-28 68.5zM300 836q0 -29 21 -50t50 -21t50 21t21 50t-21 50t-50 21t-50 -21t-21 -50z" />
    <glyph glyph-name="AE" unicode="&#xc6;" horiz-adv-x="926" 
d="M495 378h146q31 0 40.5 10t9.5 42q0 20 21 20q10 0 13.5 -5t3.5 -17q0 -8 -4 -34t-4 -41t4 -41t4 -34q0 -12 -3.5 -17t-13.5 -5q-21 0 -21 20q0 32 -9.5 42t-40.5 10h-130l80 -218q9 -24 15 -35t14 -20.5t24.5 -12t35 -4t57.5 -1.5q77 0 99.5 8.5t31.5 40.5q7 27 13.5 36
t18.5 9q6 0 12.5 -3.5t6.5 -9.5q0 -11 -13.5 -59.5t-16.5 -71.5q-72 13 -233 13q-55 0 -105.5 -6.5t-56.5 -6.5q-16 0 -16 16q0 11 6.5 15t28.5 7t22 28q0 14 -8 36l-48 123h-265q-17 -34 -37.5 -86.5t-20.5 -71.5q0 -13 10 -18.5t37 -10.5q17 -3 17 -15q0 -23 -15 -23
q-10 0 -42 6.5t-54 6.5q-19 0 -46.5 -6.5t-47.5 -6.5q-13 0 -13 21q0 8 4.5 11.5t22.5 5.5q33 3 52 26t35 65l188 479q11 29 11 53q0 13 -14 19t-62 10q-16 1 -16 20q0 18 12 18q30 0 76 -6q40 -7 81 -7q20 0 43 0.5t52 1.5t45 1q72 3 136 3q0 -4 4.5 -47.5t4.5 -53.5
q0 -24 -19 -24q-9 0 -13.5 8.5t-11.5 32.5q-7 25 -15 32.5t-28 7.5h-205zM348 581l-119 -319h234z" />
    <glyph glyph-name="Ccedilla" unicode="&#xc7;" horiz-adv-x="741" 
d="M350 -99l40 90q-164 18 -247 116t-83 263q0 63 22 122.5t64 110t111.5 81.5t156.5 31q30 0 65.5 -2.5t60 -6l64.5 -9t59 -7.5q0 -9 2 -48t2 -61q0 -13 -3.5 -17.5t-16.5 -4.5q-12 0 -15.5 8.5t-8.5 40.5q-10 69 -196 69q-66 0 -118 -21t-84 -54.5t-53 -78t-29.5 -88
t-8.5 -87.5q0 -145 90 -231t219 -86q103 0 144.5 21.5t51.5 62.5q6 25 11 33t16 8q23 0 23 -15t-10 -56l-16 -70q-154 -28 -201 -28q-26 0 -38 1l-25 -54q22 6 34 6q32 0 55 -18.5t23 -50.5q0 -39 -31.5 -61.5t-89.5 -22.5q-43 0 -82 15l14 30q43 -13 65 -13t39 11t17 32
q0 19 -12.5 29.5t-31.5 10.5q-21 0 -32 -6z" />
    <glyph glyph-name="Egrave" unicode="&#xc8;" 
d="M191 328v-198q0 -28 3 -42t15 -27.5t39.5 -18.5t74.5 -5h25q65 0 85.5 12t32.5 48q9 24 14 30.5t14 6.5t14.5 -6t5.5 -13q0 -5 -6 -28l-14 -53t-11 -47q-43 1 -161 7t-136 6q-20 0 -79.5 -6.5t-69.5 -6.5q-14 0 -14 14t5.5 17.5t34.5 6.5q32 2 46 12.5t14 35.5v564
q0 25 -11 31t-50 9q-21 1 -25.5 4.5t-4.5 15.5t3.5 15t16.5 3q4 0 12 -1t23.5 -2.5t28.5 -2.5q59 -7 130 -7q11 0 104 3q46 3 67 3q12 0 12 -20q0 -22 3.5 -44.5t3.5 -28.5q0 -26 -21 -26q-10 0 -15 7.5t-9 33.5q-4 22 -12 28t-26 6h-162v-286h173q27 0 36.5 6.5t10.5 29.5
q2 25 23 25q15 0 15 -17q0 -7 -3 -32t-3 -37t3 -37t3 -32q0 -17 -15 -17q-21 0 -23 25q-1 23 -10.5 29.5t-36.5 6.5h-173zM316 749l-141 87q-27 16 -35 25t-8 20q0 17 10.5 27t24.5 10q15 0 38 -23l146 -146h-35z" />
    <glyph glyph-name="Eacute" unicode="&#xc9;" 
d="M191 328v-198q0 -28 3 -42t15 -27.5t39.5 -18.5t74.5 -5h25q65 0 85.5 12t32.5 48q9 24 14 30.5t14 6.5t14.5 -6t5.5 -13q0 -5 -6 -28l-14 -53t-11 -47q-43 1 -161 7t-136 6q-20 0 -79.5 -6.5t-69.5 -6.5q-14 0 -14 14t5.5 17.5t34.5 6.5q32 2 46 12.5t14 35.5v564
q0 25 -11 31t-50 9q-21 1 -25.5 4.5t-4.5 15.5t3.5 15t16.5 3q4 0 12 -1t23.5 -2.5t28.5 -2.5q59 -7 130 -7q11 0 104 3q46 3 67 3q12 0 12 -20q0 -22 3.5 -44.5t3.5 -28.5q0 -26 -21 -26q-10 0 -15 7.5t-9 33.5q-4 22 -12 28t-26 6h-162v-286h173q27 0 36.5 6.5t10.5 29.5
q2 25 23 25q15 0 15 -17q0 -7 -3 -32t-3 -37t3 -37t3 -32q0 -17 -15 -17q-21 0 -23 25q-1 23 -10.5 29.5t-36.5 6.5h-173zM205 749l146 146q23 23 38 23q14 0 24.5 -10t10.5 -27q0 -11 -8 -20t-35 -25l-141 -87h-35z" />
    <glyph glyph-name="Ecircumflex" unicode="&#xca;" 
d="M191 328v-198q0 -28 3 -42t15 -27.5t39.5 -18.5t74.5 -5h25q65 0 85.5 12t32.5 48q9 24 14 30.5t14 6.5t14.5 -6t5.5 -13q0 -5 -6 -28l-14 -53t-11 -47q-43 1 -161 7t-136 6q-20 0 -79.5 -6.5t-69.5 -6.5q-14 0 -14 14t5.5 17.5t34.5 6.5q32 2 46 12.5t14 35.5v564
q0 25 -11 31t-50 9q-21 1 -25.5 4.5t-4.5 15.5t3.5 15t16.5 3q4 0 12 -1t23.5 -2.5t28.5 -2.5q59 -7 130 -7q11 0 104 3q46 3 67 3q12 0 12 -20q0 -22 3.5 -44.5t3.5 -28.5q0 -26 -21 -26q-10 0 -15 7.5t-9 33.5q-4 22 -12 28t-26 6h-162v-286h173q27 0 36.5 6.5t10.5 29.5
q2 25 23 25q15 0 15 -17q0 -7 -3 -32t-3 -37t3 -37t3 -32q0 -17 -15 -17q-21 0 -23 25q-1 23 -10.5 29.5t-36.5 6.5h-173zM306 918l122 -167l-2 -2h-31l-117 105l-117 -105h-31l-2 2l122 167h56z" />
    <glyph glyph-name="Edieresis" unicode="&#xcb;" 
d="M191 328v-198q0 -28 3 -42t15 -27.5t39.5 -18.5t74.5 -5h25q65 0 85.5 12t32.5 48q9 24 14 30.5t14 6.5t14.5 -6t5.5 -13q0 -5 -6 -28l-14 -53t-11 -47q-43 1 -161 7t-136 6q-20 0 -79.5 -6.5t-69.5 -6.5q-14 0 -14 14t5.5 17.5t34.5 6.5q32 2 46 12.5t14 35.5v564
q0 25 -11 31t-50 9q-21 1 -25.5 4.5t-4.5 15.5t3.5 15t16.5 3q4 0 12 -1t23.5 -2.5t28.5 -2.5q59 -7 130 -7q11 0 104 3q46 3 67 3q12 0 12 -20q0 -22 3.5 -44.5t3.5 -28.5q0 -26 -21 -26q-10 0 -15 7.5t-9 33.5q-4 22 -12 28t-26 6h-162v-286h173q27 0 36.5 6.5t10.5 29.5
q2 25 23 25q15 0 15 -17q0 -7 -3 -32t-3 -37t3 -37t3 -32q0 -17 -15 -17q-21 0 -23 25q-1 23 -10.5 29.5t-36.5 6.5h-173zM330 826q0 18 14 32t32 14t32 -14t14 -32t-14 -32t-32 -14t-32 14t-14 32zM134 826q0 18 13.5 32t32.5 14q18 0 32 -14t14 -32t-14 -32t-32 -14
q-19 0 -32.5 14t-13.5 32z" />
    <glyph glyph-name="Igrave" unicode="&#xcc;" horiz-adv-x="314" 
d="M123 105v492q0 42 -15 56.5t-59 23.5q-11 2 -13.5 5.5t-2.5 16.5q0 11 3.5 13.5t12.5 2.5q7 0 46 -6.5t62 -6.5t62 6.5t46 6.5q6 0 8.5 -0.5t5 -4t2.5 -11.5q0 -13 -2.5 -16.5t-13.5 -5.5q-44 -9 -59 -23.5t-15 -56.5v-492q0 -42 15 -56.5t59 -23.5q11 -2 13.5 -5.5
t2.5 -16.5q0 -11 -3.5 -13.5t-12.5 -2.5q-7 0 -46 6.5t-62 6.5t-62 -6.5t-46 -6.5q-6 0 -8.5 0.5t-5 4t-2.5 11.5q0 13 2.5 16.5t13.5 5.5q44 9 59 23.5t15 56.5zM195 749l-141 87q-27 16 -35 25t-8 20q0 17 10.5 27t24.5 10q15 0 38 -23l146 -146h-35z" />
    <glyph glyph-name="Iacute" unicode="&#xcd;" horiz-adv-x="314" 
d="M123 105v492q0 42 -15 56.5t-59 23.5q-11 2 -13.5 5.5t-2.5 16.5q0 11 3.5 13.5t12.5 2.5q7 0 46 -6.5t62 -6.5t62 6.5t46 6.5q6 0 8.5 -0.5t5 -4t2.5 -11.5q0 -13 -2.5 -16.5t-13.5 -5.5q-44 -9 -59 -23.5t-15 -56.5v-492q0 -42 15 -56.5t59 -23.5q11 -2 13.5 -5.5
t2.5 -16.5q0 -11 -3.5 -13.5t-12.5 -2.5q-7 0 -46 6.5t-62 6.5t-62 -6.5t-46 -6.5q-6 0 -8.5 0.5t-5 4t-2.5 11.5q0 13 2.5 16.5t13.5 5.5q44 9 59 23.5t15 56.5zM84 749l146 146q23 23 38 23q14 0 24.5 -10t10.5 -27q0 -11 -8 -20t-35 -25l-141 -87h-35z" />
    <glyph glyph-name="Icircumflex" unicode="&#xce;" horiz-adv-x="314" 
d="M123 105v492q0 42 -15 56.5t-59 23.5q-11 2 -13.5 5.5t-2.5 16.5q0 11 3.5 13.5t12.5 2.5q7 0 46 -6.5t62 -6.5t62 6.5t46 6.5q6 0 8.5 -0.5t5 -4t2.5 -11.5q0 -13 -2.5 -16.5t-13.5 -5.5q-44 -9 -59 -23.5t-15 -56.5v-492q0 -42 15 -56.5t59 -23.5q11 -2 13.5 -5.5
t2.5 -16.5q0 -11 -3.5 -13.5t-12.5 -2.5q-7 0 -46 6.5t-62 6.5t-62 -6.5t-46 -6.5q-6 0 -8.5 0.5t-5 4t-2.5 11.5q0 13 2.5 16.5t13.5 5.5q44 9 59 23.5t15 56.5zM185 918l122 -167l-2 -2h-31l-117 105l-117 -105h-31l-2 2l122 167h56z" />
    <glyph glyph-name="Idieresis" unicode="&#xcf;" horiz-adv-x="314" 
d="M123 105v492q0 42 -15 56.5t-59 23.5q-11 2 -13.5 5.5t-2.5 16.5q0 11 3.5 13.5t12.5 2.5q7 0 46 -6.5t62 -6.5t62 6.5t46 6.5q6 0 8.5 -0.5t5 -4t2.5 -11.5q0 -13 -2.5 -16.5t-13.5 -5.5q-44 -9 -59 -23.5t-15 -56.5v-492q0 -42 15 -56.5t59 -23.5q11 -2 13.5 -5.5
t2.5 -16.5q0 -11 -3.5 -13.5t-12.5 -2.5q-7 0 -46 6.5t-62 6.5t-62 -6.5t-46 -6.5q-6 0 -8.5 0.5t-5 4t-2.5 11.5q0 13 2.5 16.5t13.5 5.5q44 9 59 23.5t15 56.5zM209 826q0 18 14 32t32 14t32 -14t14 -32t-14 -32t-32 -14t-32 14t-14 32zM13 826q0 18 13.5 32t32.5 14
q18 0 32 -14t14 -32t-14 -32t-32 -14q-19 0 -32.5 14t-13.5 32z" />
    <glyph glyph-name="Eth" unicode="&#xd0;" horiz-adv-x="796" 
d="M201 328v-183q0 -68 32.5 -91t137.5 -23q132 0 211.5 88t79.5 231q0 150 -88.5 235t-215.5 85h-136q-14 0 -17.5 -4.5t-3.5 -21.5v-266h221q7 0 7 -8v-35q0 -7 -7 -7h-221zM133 85v243h-117q-7 0 -7 7v35q0 8 7 8h117v267q0 15 -15 21.5t-47 10.5q-25 3 -30 6t-5 13
q0 13 4 16t13 3q16 0 48 -6q28 -7 71 -7q17 0 58 1.5t49 1.5q57 3 99 3q156 0 257 -93t101 -263q0 -157 -106 -261t-255 -104q-48 0 -110.5 6.5t-85.5 6.5q-28 0 -77.5 -6.5t-64.5 -6.5q-14 0 -17 4t-3 18q0 9 3.5 12t18.5 4q66 7 80 16t14 44z" />
    <glyph glyph-name="Ntilde" unicode="&#xd1;" horiz-adv-x="778" 
d="M107 102v597q0 16 9 16q7 0 13 -7l490 -582h2v445q0 58 -19 79.5t-66 26.5q-7 1 -10 2t-5 4.5t-2 10.5q0 21 15 21q16 0 50.5 -6.5t55.5 -6.5q17 0 51 6.5t53 6.5q13 0 13 -19q0 -16 -18 -19q-44 -6 -56 -22t-12 -55v-602q0 -16 -9 -16q-7 0 -13 7l-490 585h-2v-443
q0 -58 19 -79.5t66 -26.5q7 -1 10 -2t5 -4.5t2 -10.5q0 -21 -15 -21q-16 0 -50.5 6.5t-55.5 6.5q-17 0 -51 -6.5t-53 -6.5q-13 0 -13 19q0 16 18 19q44 6 56 22t12 55zM253 775h-26q7 42 35.5 70.5t70.5 28.5q22 0 72 -27q42 -22 62 -22q38 0 56 52h28q-10 -42 -37.5 -72
t-68.5 -30q-27 0 -73 24q-48 23 -64 23q-42 0 -55 -47z" />
    <glyph glyph-name="Ograve" unicode="&#xd2;" horiz-adv-x="834" 
d="M128 351q0 -138 78 -223t211 -85t211 85t78 223t-78 223t-211 85t-211 -85t-78 -223zM60 351q0 67 22 130t64 116t112.5 85.5t158.5 32.5t158.5 -32.5t112.5 -85.5t64 -116t22 -130t-22 -130t-64 -116t-112.5 -85.5t-158.5 -32.5t-158.5 32.5t-112.5 85.5t-64 116
t-22 130zM455 749l-141 87q-27 16 -35 25t-8 20q0 17 10.5 27t24.5 10q15 0 38 -23l146 -146h-35z" />
    <glyph glyph-name="Oacute" unicode="&#xd3;" horiz-adv-x="834" 
d="M128 351q0 -138 78 -223t211 -85t211 85t78 223t-78 223t-211 85t-211 -85t-78 -223zM60 351q0 67 22 130t64 116t112.5 85.5t158.5 32.5t158.5 -32.5t112.5 -85.5t64 -116t22 -130t-22 -130t-64 -116t-112.5 -85.5t-158.5 -32.5t-158.5 32.5t-112.5 85.5t-64 116
t-22 130zM344 749l146 146q23 23 38 23q14 0 24.5 -10t10.5 -27q0 -11 -8 -20t-35 -25l-141 -87h-35z" />
    <glyph glyph-name="Ocircumflex" unicode="&#xd4;" horiz-adv-x="834" 
d="M128 351q0 -138 78 -223t211 -85t211 85t78 223t-78 223t-211 85t-211 -85t-78 -223zM60 351q0 67 22 130t64 116t112.5 85.5t158.5 32.5t158.5 -32.5t112.5 -85.5t64 -116t22 -130t-22 -130t-64 -116t-112.5 -85.5t-158.5 -32.5t-158.5 32.5t-112.5 85.5t-64 116
t-22 130zM445 918l122 -167l-2 -2h-31l-117 105l-117 -105h-31l-2 2l122 167h56z" />
    <glyph glyph-name="Otilde" unicode="&#xd5;" horiz-adv-x="834" 
d="M128 351q0 -138 78 -223t211 -85t211 85t78 223t-78 223t-211 85t-211 -85t-78 -223zM60 351q0 67 22 130t64 116t112.5 85.5t158.5 32.5t158.5 -32.5t112.5 -85.5t64 -116t22 -130t-22 -130t-64 -116t-112.5 -85.5t-158.5 -32.5t-158.5 32.5t-112.5 85.5t-64 116
t-22 130zM281 775h-26q7 42 35.5 70.5t70.5 28.5q22 0 72 -27q42 -22 62 -22q38 0 56 52h28q-10 -42 -37.5 -72t-68.5 -30q-27 0 -73 24q-48 23 -64 23q-42 0 -55 -47z" />
    <glyph glyph-name="Odieresis" unicode="&#xd6;" horiz-adv-x="834" 
d="M128 351q0 -138 78 -223t211 -85t211 85t78 223t-78 223t-211 85t-211 -85t-78 -223zM60 351q0 67 22 130t64 116t112.5 85.5t158.5 32.5t158.5 -32.5t112.5 -85.5t64 -116t22 -130t-22 -130t-64 -116t-112.5 -85.5t-158.5 -32.5t-158.5 32.5t-112.5 85.5t-64 116
t-22 130zM469 826q0 18 14 32t32 14t32 -14t14 -32t-14 -32t-32 -14t-32 14t-14 32zM273 826q0 18 13.5 32t32.5 14q18 0 32 -14t14 -32t-14 -32t-32 -14q-19 0 -32.5 14t-13.5 32z" />
    <glyph glyph-name="multiply" unicode="&#xd7;" horiz-adv-x="600" 
d="M264 253l-190 190l36 36l189 -191l191 191l36 -36l-192 -190l192 -190l-36 -36l-191 191l-189 -191l-36 36z" />
    <glyph glyph-name="Oslash" unicode="&#xd8;" horiz-adv-x="834" 
d="M193 144l419 445q-76 70 -195 70q-133 0 -211 -85t-78 -223q0 -127 65 -207zM61 5l90 95q-91 101 -91 251q0 67 22 130t64 116t112.5 85.5t158.5 32.5q143 0 236 -83l89 94l31 -29l-90 -95q91 -101 91 -251q0 -67 -22 -130t-64 -116t-112.5 -85.5t-158.5 -32.5
q-143 0 -237 84l-89 -95zM641 558l-420 -444q76 -71 196 -71q133 0 211 85t78 223q0 123 -65 207z" />
    <glyph glyph-name="Ugrave" unicode="&#xd9;" horiz-adv-x="759" 
d="M115 318l-8 167l-7 145q-1 25 -11 33.5t-36 13.5q-12 2 -14.5 6t-2.5 18q0 9 3 11.5t13 2.5q15 0 46.5 -6.5t55.5 -6.5q18 0 54.5 6.5t46.5 6.5q9 0 11.5 -2t2.5 -13q0 -12 -3.5 -15.5t-19.5 -7.5q-45 -11 -56 -22.5t-11 -43.5q0 -117 12 -339q13 -241 201 -241
q46 0 80 14.5t63.5 52.5t45 112.5t15.5 185.5v189q0 40 -5.5 57t-14.5 22.5t-38 12.5q-11 2 -14 5.5t-3 11.5q0 14 2 17.5t11 3.5q20 0 46 -6.5t44 -6.5q20 0 49.5 6.5t44.5 6.5q9 0 9 -15q0 -12 -3 -16t-15 -7q-32 -9 -41 -18t-10 -42l-12 -296q-3 -81 -22 -143t-45.5 -97
t-61 -57.5t-64.5 -29.5t-61 -7q-59 0 -104 14.5t-84 49.5t-61.5 102t-27.5 165zM418 749l-141 87q-27 16 -35 25t-8 20q0 17 10.5 27t24.5 10q15 0 38 -23l146 -146h-35z" />
    <glyph glyph-name="Uacute" unicode="&#xda;" horiz-adv-x="759" 
d="M115 318l-8 167l-7 145q-1 25 -11 33.5t-36 13.5q-12 2 -14.5 6t-2.5 18q0 9 3 11.5t13 2.5q15 0 46.5 -6.5t55.5 -6.5q18 0 54.5 6.5t46.5 6.5q9 0 11.5 -2t2.5 -13q0 -12 -3.5 -15.5t-19.5 -7.5q-45 -11 -56 -22.5t-11 -43.5q0 -117 12 -339q13 -241 201 -241
q46 0 80 14.5t63.5 52.5t45 112.5t15.5 185.5v189q0 40 -5.5 57t-14.5 22.5t-38 12.5q-11 2 -14 5.5t-3 11.5q0 14 2 17.5t11 3.5q20 0 46 -6.5t44 -6.5q20 0 49.5 6.5t44.5 6.5q9 0 9 -15q0 -12 -3 -16t-15 -7q-32 -9 -41 -18t-10 -42l-12 -296q-3 -81 -22 -143t-45.5 -97
t-61 -57.5t-64.5 -29.5t-61 -7q-59 0 -104 14.5t-84 49.5t-61.5 102t-27.5 165zM307 749l146 146q23 23 38 23q14 0 24.5 -10t10.5 -27q0 -11 -8 -20t-35 -25l-141 -87h-35z" />
    <glyph glyph-name="Ucircumflex" unicode="&#xdb;" horiz-adv-x="759" 
d="M115 318l-8 167l-7 145q-1 25 -11 33.5t-36 13.5q-12 2 -14.5 6t-2.5 18q0 9 3 11.5t13 2.5q15 0 46.5 -6.5t55.5 -6.5q18 0 54.5 6.5t46.5 6.5q9 0 11.5 -2t2.5 -13q0 -12 -3.5 -15.5t-19.5 -7.5q-45 -11 -56 -22.5t-11 -43.5q0 -117 12 -339q13 -241 201 -241
q46 0 80 14.5t63.5 52.5t45 112.5t15.5 185.5v189q0 40 -5.5 57t-14.5 22.5t-38 12.5q-11 2 -14 5.5t-3 11.5q0 14 2 17.5t11 3.5q20 0 46 -6.5t44 -6.5q20 0 49.5 6.5t44.5 6.5q9 0 9 -15q0 -12 -3 -16t-15 -7q-32 -9 -41 -18t-10 -42l-12 -296q-3 -81 -22 -143t-45.5 -97
t-61 -57.5t-64.5 -29.5t-61 -7q-59 0 -104 14.5t-84 49.5t-61.5 102t-27.5 165zM408 918l122 -167l-2 -2h-31l-117 105l-117 -105h-31l-2 2l122 167h56z" />
    <glyph glyph-name="Udieresis" unicode="&#xdc;" horiz-adv-x="759" 
d="M115 318l-8 167l-7 145q-1 25 -11 33.5t-36 13.5q-12 2 -14.5 6t-2.5 18q0 9 3 11.5t13 2.5q15 0 46.5 -6.5t55.5 -6.5q18 0 54.5 6.5t46.5 6.5q9 0 11.5 -2t2.5 -13q0 -12 -3.5 -15.5t-19.5 -7.5q-45 -11 -56 -22.5t-11 -43.5q0 -117 12 -339q13 -241 201 -241
q46 0 80 14.5t63.5 52.5t45 112.5t15.5 185.5v189q0 40 -5.5 57t-14.5 22.5t-38 12.5q-11 2 -14 5.5t-3 11.5q0 14 2 17.5t11 3.5q20 0 46 -6.5t44 -6.5q20 0 49.5 6.5t44.5 6.5q9 0 9 -15q0 -12 -3 -16t-15 -7q-32 -9 -41 -18t-10 -42l-12 -296q-3 -81 -22 -143t-45.5 -97
t-61 -57.5t-64.5 -29.5t-61 -7q-59 0 -104 14.5t-84 49.5t-61.5 102t-27.5 165zM432 826q0 18 14 32t32 14t32 -14t14 -32t-14 -32t-32 -14t-32 14t-14 32zM236 826q0 18 13.5 32t32.5 14q18 0 32 -14t14 -32t-14 -32t-32 -14q-19 0 -32.5 14t-13.5 32z" />
    <glyph glyph-name="Yacute" unicode="&#xdd;" horiz-adv-x="667" 
d="M301 105v175l-226 349q-14 22 -24.5 29.5t-39.5 18.5q-10 3 -12.5 6.5t-2.5 15.5q0 16 18 16q12 0 39 -6.5t47 -6.5q15 0 48 6.5t41 6.5q10 0 12 -3.5t2 -18.5q0 -10 -2.5 -12t-14.5 -4q-26 -5 -35 -9.5t-9 -12.5q0 -7 29 -52l174 -270l173 284q19 32 19 37q0 9 -44 20
q-6 2 -10 3q-11 3 -11 17q0 21 13 21q9 0 39 -6.5t49 -6.5q14 0 47.5 6.5t37.5 6.5q5 0 7 -0.5t4 -5.5t2 -15q0 -15 -17 -17q-45 -7 -62 -34l-223 -363v-175q0 -42 15 -56.5t59 -23.5q11 -2 13.5 -5.5t2.5 -16.5q0 -11 -3.5 -13.5t-12.5 -2.5q-7 0 -46 6.5t-62 6.5
t-61.5 -6.5t-46.5 -6.5q-6 0 -8.5 0.5t-5 4t-2.5 11.5q0 13 2.5 16.5t13.5 5.5q44 9 59 23.5t15 56.5zM261 749l146 146q23 23 38 23q14 0 24.5 -10t10.5 -27q0 -11 -8 -20t-35 -25l-141 -87h-35z" />
    <glyph glyph-name="Thorn" unicode="&#xde;" horiz-adv-x="520" 
d="M116 105v492q0 42 -15 56.5t-59 23.5q-11 2 -13.5 5.5t-2.5 16.5q0 11 4 13.5t12 2.5t47 -6.5t61 -6.5t61 6.5t47 6.5q6 0 8.5 -0.5t5 -4t2.5 -11.5q0 -13 -2.5 -16.5t-13.5 -5.5q-44 -9 -59 -23.5t-15 -56.5v-45q10 0 46 3t61 3q57 0 97 -17t58.5 -45t26 -53.5
t7.5 -51.5q0 -21 -3.5 -42t-17 -50t-35 -51t-62.5 -37.5t-95 -15.5q-30 0 -49 12.5t-19 23.5q0 3 4 3q7 0 20.5 -0.5t19.5 -0.5q73 0 124 36.5t51 106.5q0 51 -33 94.5t-102 43.5h-58q-27 0 -34 -5t-7 -20v-342q0 -73 16.5 -92t92.5 -30q16 -2 19.5 -5.5t3.5 -16.5
q0 -16 -18 -16q-29 0 -74.5 6.5t-63.5 6.5q-17 0 -58 -6.5t-60 -6.5q-6 0 -8.5 0.5t-5 4t-2.5 11.5q0 13 2.5 16.5t13.5 5.5q44 9 59 23.5t15 56.5z" />
    <glyph glyph-name="germandbls" unicode="&#xdf;" horiz-adv-x="611" 
d="M110 89v286q0 6 -5 8t-20 4q-13 1 -13 14q0 11 12 21l20 15q6 5 6 11v82q0 67 18 115t46.5 70.5t55.5 31.5t54 9q61 0 99 -35.5t38 -90.5q0 -33 -28 -97q-28 -62 -28 -83q0 -20 21.5 -42.5t52.5 -46t62.5 -50.5t53 -66t21.5 -83q0 -76 -49 -125.5t-116 -49.5
q-50 0 -78.5 23.5t-28.5 47.5q0 15 9 24t22 9q16 0 28.5 -16.5t28.5 -33t41 -16.5q37 0 62 33t25 73q0 37 -21 73t-51 64l-60.5 54t-51.5 52.5t-21 49.5q0 26 25 89q25 65 25 95q0 56 -28 77t-62 21q-43 0 -73 -29.5t-30 -99.5v-483q0 -34 13.5 -44.5t70.5 -24.5
q10 -2 13.5 -5t3.5 -11q0 -12 -4.5 -17t-17.5 -5q-3 0 -40 6.5t-65 6.5q-25 0 -56 -6.5t-35 -6.5q-21 0 -21 17q0 18 18 21q38 8 48 21t10 43z" />
    <glyph glyph-name="agrave" unicode="&#xe0;" horiz-adv-x="481" 
d="M192 248l124 26v30q0 60 -22 81.5t-90 21.5q-44 0 -50 -13q-14 -35 -21.5 -45.5t-16.5 -10.5q-24 0 -24 19q0 30 26 93q2 7 57 7h47q81 0 118.5 -33.5t37.5 -119.5v-211q0 -34 40 -55q4 -2 11 -4.5l11 -4t4 -3.5q0 -9 -11 -20q-18 -19 -33 -19q-25 0 -48.5 23.5
t-32.5 48.5q-59 -72 -150 -72q-58 0 -95 31t-37 88q0 49 40.5 88.5t114.5 53.5zM316 171v33q0 26 -13 26q-8 0 -34.5 -5t-66 -16t-68.5 -35t-29 -56q0 -30 19 -55.5t67 -25.5q50 0 90 34q21 18 28 37.5t7 62.5zM279 541l-141 87q-27 16 -35 25t-8 20q0 17 10.5 27t24.5 10
q15 0 38 -23l146 -146h-35z" />
    <glyph glyph-name="aacute" unicode="&#xe1;" horiz-adv-x="481" 
d="M192 248l124 26v30q0 60 -22 81.5t-90 21.5q-44 0 -50 -13q-14 -35 -21.5 -45.5t-16.5 -10.5q-24 0 -24 19q0 30 26 93q2 7 57 7h47q81 0 118.5 -33.5t37.5 -119.5v-211q0 -34 40 -55q4 -2 11 -4.5l11 -4t4 -3.5q0 -9 -11 -20q-18 -19 -33 -19q-25 0 -48.5 23.5
t-32.5 48.5q-59 -72 -150 -72q-58 0 -95 31t-37 88q0 49 40.5 88.5t114.5 53.5zM316 171v33q0 26 -13 26q-8 0 -34.5 -5t-66 -16t-68.5 -35t-29 -56q0 -30 19 -55.5t67 -25.5q50 0 90 34q21 18 28 37.5t7 62.5zM168 541l146 146q23 23 38 23q14 0 24.5 -10t10.5 -27
q0 -11 -8 -20t-35 -25l-141 -87h-35z" />
    <glyph glyph-name="acircumflex" unicode="&#xe2;" horiz-adv-x="481" 
d="M192 248l124 26v30q0 60 -22 81.5t-90 21.5q-44 0 -50 -13q-14 -35 -21.5 -45.5t-16.5 -10.5q-24 0 -24 19q0 30 26 93q2 7 57 7h47q81 0 118.5 -33.5t37.5 -119.5v-211q0 -34 40 -55q4 -2 11 -4.5l11 -4t4 -3.5q0 -9 -11 -20q-18 -19 -33 -19q-25 0 -48.5 23.5
t-32.5 48.5q-59 -72 -150 -72q-58 0 -95 31t-37 88q0 49 40.5 88.5t114.5 53.5zM316 171v33q0 26 -13 26q-8 0 -34.5 -5t-66 -16t-68.5 -35t-29 -56q0 -30 19 -55.5t67 -25.5q50 0 90 34q21 18 28 37.5t7 62.5zM269 710l122 -167l-2 -2h-31l-117 105l-117 -105h-31l-2 2
l122 167h56z" />
    <glyph glyph-name="atilde" unicode="&#xe3;" horiz-adv-x="481" 
d="M192 248l124 26v30q0 60 -22 81.5t-90 21.5q-44 0 -50 -13q-14 -35 -21.5 -45.5t-16.5 -10.5q-24 0 -24 19q0 30 26 93q2 7 57 7h47q81 0 118.5 -33.5t37.5 -119.5v-211q0 -34 40 -55q4 -2 11 -4.5l11 -4t4 -3.5q0 -9 -11 -20q-18 -19 -33 -19q-25 0 -48.5 23.5
t-32.5 48.5q-59 -72 -150 -72q-58 0 -95 31t-37 88q0 49 40.5 88.5t114.5 53.5zM316 171v33q0 26 -13 26q-8 0 -34.5 -5t-66 -16t-68.5 -35t-29 -56q0 -30 19 -55.5t67 -25.5q50 0 90 34q21 18 28 37.5t7 62.5zM105 567h-26q7 42 35.5 70.5t70.5 28.5q22 0 72 -27
q42 -22 62 -22q38 0 56 52h28q-10 -42 -37.5 -72t-68.5 -30q-27 0 -73 24q-48 23 -64 23q-42 0 -55 -47z" />
    <glyph glyph-name="adieresis" unicode="&#xe4;" horiz-adv-x="481" 
d="M192 248l124 26v30q0 60 -22 81.5t-90 21.5q-44 0 -50 -13q-14 -35 -21.5 -45.5t-16.5 -10.5q-24 0 -24 19q0 30 26 93q2 7 57 7h47q81 0 118.5 -33.5t37.5 -119.5v-211q0 -34 40 -55q4 -2 11 -4.5l11 -4t4 -3.5q0 -9 -11 -20q-18 -19 -33 -19q-25 0 -48.5 23.5
t-32.5 48.5q-59 -72 -150 -72q-58 0 -95 31t-37 88q0 49 40.5 88.5t114.5 53.5zM316 171v33q0 26 -13 26q-8 0 -34.5 -5t-66 -16t-68.5 -35t-29 -56q0 -30 19 -55.5t67 -25.5q50 0 90 34q21 18 28 37.5t7 62.5zM293 618q0 18 14 32t32 14t32 -14t14 -32t-14 -32t-32 -14
t-32 14t-14 32zM97 618q0 18 13.5 32t32.5 14q18 0 32 -14t14 -32t-14 -32t-32 -14q-19 0 -32.5 14t-13.5 32z" />
    <glyph glyph-name="aring" unicode="&#xe5;" horiz-adv-x="481" 
d="M192 248l124 26v30q0 60 -22 81.5t-90 21.5q-44 0 -50 -13q-14 -35 -21.5 -45.5t-16.5 -10.5q-24 0 -24 19q0 30 26 93q2 7 57 7h47q81 0 118.5 -33.5t37.5 -119.5v-211q0 -34 40 -55q4 -2 11 -4.5l11 -4t4 -3.5q0 -9 -11 -20q-18 -19 -33 -19q-25 0 -48.5 23.5
t-32.5 48.5q-59 -72 -150 -72q-58 0 -95 31t-37 88q0 49 40.5 88.5t114.5 53.5zM316 171v33q0 26 -13 26q-8 0 -34.5 -5t-66 -16t-68.5 -35t-29 -56q0 -30 19 -55.5t67 -25.5q50 0 90 34q21 18 28 37.5t7 62.5zM132 628q0 40 28 68.5t69 28.5t69 -28.5t28 -68.5t-28 -68.5
t-69 -28.5t-69 28.5t-28 68.5zM158 628q0 -29 21 -50t50 -21t50 21t21 50t-21 50t-50 21t-50 -21t-21 -50z" />
    <glyph glyph-name="ae" unicode="&#xe6;" horiz-adv-x="741" 
d="M665 284l-293 -50v-18q0 -73 38 -123t110 -50q78 0 140 66q5 5 7 5q4 0 10 -9q9 -13 9 -17t-9 -14q-71 -87 -185 -87q-49 0 -89 23.5t-63 65.5q-26 -43 -73 -66t-98 -23q-57 0 -94.5 30t-37.5 81q0 112 172 145l107 20v41q0 60 -22 81.5t-90 21.5q-44 0 -50 -13
q-14 -35 -21.5 -45.5t-16.5 -10.5q-24 0 -24 19q0 30 26 93q2 7 57 7h47q120 0 143 -74q23 34 63 54t89 20q65 0 112.5 -47t47.5 -114q0 -10 -12 -12zM316 171v27q0 26 -13 26q-8 0 -34.5 -5t-66 -16t-68.5 -35t-29 -56q0 -26 19.5 -50.5t66.5 -24.5q50 0 90 34
q21 18 28 37.5t7 62.5zM377 270l194 37q32 6 32 24q0 31 -27 59.5t-66 28.5q-55 0 -90.5 -45t-42.5 -104z" />
    <glyph glyph-name="ccedilla" unicode="&#xe7;" horiz-adv-x="444" 
d="M201 -99l38 86q-84 2 -136.5 63.5t-52.5 146.5q0 72 21.5 125t56.5 81t72.5 41t77.5 13q46 0 77 -12.5t41 -26.5t10 -27q0 -32 -36 -32q-16 0 -49 27t-69 27q-65 0 -102.5 -51t-37.5 -125q0 -86 43.5 -140t115.5 -54q33 0 64.5 13.5t50 27t19.5 13.5q5 0 11 -6.5t6 -12.5
q0 -4 -16.5 -21.5t-53 -39.5t-77.5 -28l-25 -55q22 6 34 6q32 0 55 -18.5t23 -50.5q0 -39 -31.5 -61.5t-89.5 -22.5q-43 0 -82 15l14 30q43 -13 65 -13t39 11t17 32q0 19 -12.5 29.5t-31.5 10.5q-21 0 -32 -6z" />
    <glyph glyph-name="egrave" unicode="&#xe8;" horiz-adv-x="481" 
d="M409 284l-291 -50v-18q0 -73 37.5 -123t109.5 -50q78 0 140 66q5 5 7 5q4 0 10 -9q9 -13 9 -17t-9 -14q-71 -87 -185 -87q-93 0 -140 60t-47 151q0 103 55 181t156 78q65 0 112.5 -47t47.5 -114q0 -10 -12 -12zM121 270l194 37q32 6 32 24q0 31 -27 59.5t-66 28.5
q-55 0 -90.5 -45t-42.5 -104zM279 541l-141 87q-27 16 -35 25t-8 20q0 17 10.5 27t24.5 10q15 0 38 -23l146 -146h-35z" />
    <glyph glyph-name="eacute" unicode="&#xe9;" horiz-adv-x="481" 
d="M409 284l-291 -50v-18q0 -73 37.5 -123t109.5 -50q78 0 140 66q5 5 7 5q4 0 10 -9q9 -13 9 -17t-9 -14q-71 -87 -185 -87q-93 0 -140 60t-47 151q0 103 55 181t156 78q65 0 112.5 -47t47.5 -114q0 -10 -12 -12zM121 270l194 37q32 6 32 24q0 31 -27 59.5t-66 28.5
q-55 0 -90.5 -45t-42.5 -104zM168 541l146 146q23 23 38 23q14 0 24.5 -10t10.5 -27q0 -11 -8 -20t-35 -25l-141 -87h-35z" />
    <glyph glyph-name="ecircumflex" unicode="&#xea;" horiz-adv-x="481" 
d="M409 284l-291 -50v-18q0 -73 37.5 -123t109.5 -50q78 0 140 66q5 5 7 5q4 0 10 -9q9 -13 9 -17t-9 -14q-71 -87 -185 -87q-93 0 -140 60t-47 151q0 103 55 181t156 78q65 0 112.5 -47t47.5 -114q0 -10 -12 -12zM121 270l194 37q32 6 32 24q0 31 -27 59.5t-66 28.5
q-55 0 -90.5 -45t-42.5 -104zM269 710l122 -167l-2 -2h-31l-117 105l-117 -105h-31l-2 2l122 167h56z" />
    <glyph glyph-name="edieresis" unicode="&#xeb;" horiz-adv-x="481" 
d="M409 284l-291 -50v-18q0 -73 37.5 -123t109.5 -50q78 0 140 66q5 5 7 5q4 0 10 -9q9 -13 9 -17t-9 -14q-71 -87 -185 -87q-93 0 -140 60t-47 151q0 103 55 181t156 78q65 0 112.5 -47t47.5 -114q0 -10 -12 -12zM121 270l194 37q32 6 32 24q0 31 -27 59.5t-66 28.5
q-55 0 -90.5 -45t-42.5 -104zM293 618q0 18 14 32t32 14t32 -14t14 -32t-14 -32t-32 -14t-32 14t-14 32zM97 618q0 18 13.5 32t32.5 14q18 0 32 -14t14 -32t-14 -32t-32 -14q-19 0 -32.5 14t-13.5 32z" />
    <glyph glyph-name="igrave" unicode="&#xec;" horiz-adv-x="278" 
d="M108 95v261q0 17 -5.5 21t-32.5 6q-19 2 -23 5t-4 14q0 10 16 17l87 38q13 6 19 6t10.5 -6t4.5 -13q0 -2 -2.5 -7.5t-5 -16t-2.5 -25.5v-300q0 -40 10.5 -50.5t56.5 -19.5q15 -3 15 -15q0 -23 -15 -23q-6 0 -42 6.5t-56 6.5t-56 -6.5t-42 -6.5q-15 0 -15 23q0 12 15 15
q46 9 56.5 19.5t10.5 50.5zM177 541l-141 87q-27 16 -35 25t-8 20q0 17 10.5 27t24.5 10q15 0 38 -23l146 -146h-35z" />
    <glyph glyph-name="iacute" unicode="&#xed;" horiz-adv-x="278" 
d="M108 95v261q0 17 -5.5 21t-32.5 6q-19 2 -23 5t-4 14q0 10 16 17l87 38q13 6 19 6t10.5 -6t4.5 -13q0 -2 -2.5 -7.5t-5 -16t-2.5 -25.5v-300q0 -40 10.5 -50.5t56.5 -19.5q15 -3 15 -15q0 -23 -15 -23q-6 0 -42 6.5t-56 6.5t-56 -6.5t-42 -6.5q-15 0 -15 23q0 12 15 15
q46 9 56.5 19.5t10.5 50.5zM66 541l146 146q23 23 38 23q14 0 24.5 -10t10.5 -27q0 -11 -8 -20t-35 -25l-141 -87h-35z" />
    <glyph glyph-name="icircumflex" unicode="&#xee;" horiz-adv-x="278" 
d="M108 95v261q0 17 -5.5 21t-32.5 6q-19 2 -23 5t-4 14q0 10 16 17l87 38q13 6 19 6t10.5 -6t4.5 -13q0 -2 -2.5 -7.5t-5 -16t-2.5 -25.5v-300q0 -40 10.5 -50.5t56.5 -19.5q15 -3 15 -15q0 -23 -15 -23q-6 0 -42 6.5t-56 6.5t-56 -6.5t-42 -6.5q-15 0 -15 23q0 12 15 15
q46 9 56.5 19.5t10.5 50.5zM167 710l122 -167l-2 -2h-31l-117 105l-117 -105h-31l-2 2l122 167h56z" />
    <glyph glyph-name="idieresis" unicode="&#xef;" horiz-adv-x="278" 
d="M108 95v261q0 17 -5.5 21t-32.5 6q-19 2 -23 5t-4 14q0 10 16 17l87 38q13 6 19 6t10.5 -6t4.5 -13q0 -2 -2.5 -7.5t-5 -16t-2.5 -25.5v-300q0 -40 10.5 -50.5t56.5 -19.5q15 -3 15 -15q0 -23 -15 -23q-6 0 -42 6.5t-56 6.5t-56 -6.5t-42 -6.5q-15 0 -15 23q0 12 15 15
q46 9 56.5 19.5t10.5 50.5zM191 618q0 18 14 32t32 14t32 -14t14 -32t-14 -32t-32 -14t-32 14t-14 32zM-5 618q0 18 13.5 32t32.5 14q18 0 32 -14t14 -32t-14 -32t-32 -14q-19 0 -32.5 14t-13.5 32z" />
    <glyph glyph-name="eth" unicode="&#xf0;" 
d="M118 222q0 -92 44 -141.5t116 -49.5t116 49.5t44 141.5t-44 141.5t-116 49.5t-116 -49.5t-44 -141.5zM163 574l112 62q-51 43 -147 87l24 33q78 -24 169 -95l109 60q8 4 9 4q2 0 6 -4l15 -19q2 -4 2 -5q0 -2 -4 -5l-105 -59q71 -69 112 -163.5t41 -198.5
q0 -76 -23 -138.5t-75.5 -104t-126.5 -41.5q-99 0 -165 62t-66 173t66 173t165 62q38 0 77 -17.5t63 -50.5l2 2q-32 135 -116 216l-115 -64q-8 -4 -9 -4q-2 0 -6 4l-16 21q-2 4 -2 5q0 2 4 5z" />
    <glyph glyph-name="ntilde" unicode="&#xf1;" 
d="M98 95v261q0 17 -5.5 21t-32.5 6q-19 2 -23 5t-4 14q0 10 16 17l87 38q14 6 19 6q6 0 10.5 -6t4.5 -13q0 -2 -2.5 -7.5t-5 -16t-2.5 -25.5v-24q81 86 153 86q163 0 163 -213v-149q0 -40 10.5 -50.5t56.5 -19.5q15 -3 15 -15q0 -23 -15 -23q-6 0 -42 6.5t-56 6.5t-56 -6.5
t-42 -6.5q-15 0 -15 23q0 12 15 15q46 9 56.5 19.5t10.5 50.5v141q0 165 -118 165q-39 0 -87.5 -30.5t-48.5 -48.5v-227q0 -40 10.5 -50.5t56.5 -19.5q15 -3 15 -15q0 -23 -15 -23q-6 0 -42 6.5t-56 6.5t-56 -6.5t-42 -6.5q-15 0 -15 23q0 12 15 15q46 9 56.5 19.5
t10.5 50.5zM142 567h-26q7 42 35.5 70.5t70.5 28.5q22 0 72 -27q42 -22 62 -22q38 0 56 52h28q-10 -42 -37.5 -72t-68.5 -30q-27 0 -73 24q-48 23 -64 23q-42 0 -55 -47z" />
    <glyph glyph-name="ograve" unicode="&#xf2;" 
d="M118 222q0 -92 44 -141.5t116 -49.5t116 49.5t44 141.5t-44 141.5t-116 49.5t-116 -49.5t-44 -141.5zM50 222q0 111 65.5 173t162.5 62t162.5 -62t65.5 -173t-65.5 -173t-162.5 -62t-162.5 62t-65.5 173zM316 541l-141 87q-27 16 -35 25t-8 20q0 17 10.5 27t24.5 10
q15 0 38 -23l146 -146h-35z" />
    <glyph glyph-name="oacute" unicode="&#xf3;" 
d="M118 222q0 -92 44 -141.5t116 -49.5t116 49.5t44 141.5t-44 141.5t-116 49.5t-116 -49.5t-44 -141.5zM50 222q0 111 65.5 173t162.5 62t162.5 -62t65.5 -173t-65.5 -173t-162.5 -62t-162.5 62t-65.5 173zM205 541l146 146q23 23 38 23q14 0 24.5 -10t10.5 -27
q0 -11 -8 -20t-35 -25l-141 -87h-35z" />
    <glyph glyph-name="ocircumflex" unicode="&#xf4;" 
d="M118 222q0 -92 44 -141.5t116 -49.5t116 49.5t44 141.5t-44 141.5t-116 49.5t-116 -49.5t-44 -141.5zM50 222q0 111 65.5 173t162.5 62t162.5 -62t65.5 -173t-65.5 -173t-162.5 -62t-162.5 62t-65.5 173zM306 710l122 -167l-2 -2h-31l-117 105l-117 -105h-31l-2 2
l122 167h56z" />
    <glyph glyph-name="otilde" unicode="&#xf5;" 
d="M118 222q0 -92 44 -141.5t116 -49.5t116 49.5t44 141.5t-44 141.5t-116 49.5t-116 -49.5t-44 -141.5zM50 222q0 111 65.5 173t162.5 62t162.5 -62t65.5 -173t-65.5 -173t-162.5 -62t-162.5 62t-65.5 173zM142 567h-26q7 42 35.5 70.5t70.5 28.5q22 0 72 -27
q42 -22 62 -22q38 0 56 52h28q-10 -42 -37.5 -72t-68.5 -30q-27 0 -73 24q-48 23 -64 23q-42 0 -55 -47z" />
    <glyph glyph-name="odieresis" unicode="&#xf6;" 
d="M118 222q0 -92 44 -141.5t116 -49.5t116 49.5t44 141.5t-44 141.5t-116 49.5t-116 -49.5t-44 -141.5zM50 222q0 111 65.5 173t162.5 62t162.5 -62t65.5 -173t-65.5 -173t-162.5 -62t-162.5 62t-65.5 173zM330 618q0 18 14 32t32 14t32 -14t14 -32t-14 -32t-32 -14t-32 14
t-14 32zM134 618q0 18 13.5 32t32.5 14q18 0 32 -14t14 -32t-14 -32t-32 -14q-19 0 -32.5 14t-13.5 32z" />
    <glyph glyph-name="divide" unicode="&#xf7;" horiz-adv-x="600" 
d="M47 228v50h506v-50h-506zM243 462q0 23 17 40t40 17t40 -17t17 -40t-17 -40t-40 -17t-40 17t-17 40zM243 44q0 23 17 40t40 17t40 -17t17 -40t-17 -40t-40 -17t-40 17t-17 40z" />
    <glyph glyph-name="oslash" unicode="&#xf8;" 
d="M144 107l246 261q-44 45 -112 45q-72 0 -116 -49.5t-44 -141.5q0 -69 26 -115zM42 -1l61 64q-53 61 -53 159q0 111 65.5 173t162.5 62q89 0 149 -50l61 65q6 6 9 6t8 -5l11 -11q4 -4 4 -7t-6 -10l-60 -64q52 -62 52 -159q0 -111 -65.5 -173t-162.5 -62q-87 0 -148 50
l-62 -65q-6 -6 -9 -6t-8 5l-11 11q-4 4 -4 7t6 10zM412 337l-246 -261q45 -45 112 -45q72 0 116 49.5t44 141.5q0 71 -26 115z" />
    <glyph glyph-name="ugrave" unicode="&#xf9;" 
d="M98 144v216q0 13 -8.5 17t-45.5 6q-9 0 -9 19q0 10 16 17l81 34q23 10 30 10q3 0 7 -8.5t4 -13.5l-7 -21q-6 -22 -6 -43v-212q0 -39 10 -65.5t26 -37.5t29 -15t28 -4q45 0 94 29.5t49 48.5v249q0 8 -2.5 11t-11.5 4q-27 2 -34 5t-7 11q0 18 5 22q1 1 9 2t23.5 4.5
t31.5 8.5l23 9t26 11t12 5q4 0 10 -6.5t6 -10.5q0 -6 -14.5 -24t-14.5 -35v-290q0 -24 13 -24q6 0 20 7t16 7q4 0 9 -8.5t5 -14.5q0 -8 -21 -21l-67 -41q-23 -15 -27 -15q-6 0 -13 9t-7 15l5 13q5 14 5 28v16q-89 -81 -160 -81q-48 0 -81 27.5t-45 61t-12 68.5zM316 541
l-141 87q-27 16 -35 25t-8 20q0 17 10.5 27t24.5 10q15 0 38 -23l146 -146h-35z" />
    <glyph glyph-name="uacute" unicode="&#xfa;" 
d="M98 144v216q0 13 -8.5 17t-45.5 6q-9 0 -9 19q0 10 16 17l81 34q23 10 30 10q3 0 7 -8.5t4 -13.5l-7 -21q-6 -22 -6 -43v-212q0 -39 10 -65.5t26 -37.5t29 -15t28 -4q45 0 94 29.5t49 48.5v249q0 8 -2.5 11t-11.5 4q-27 2 -34 5t-7 11q0 18 5 22q1 1 9 2t23.5 4.5
t31.5 8.5l23 9t26 11t12 5q4 0 10 -6.5t6 -10.5q0 -6 -14.5 -24t-14.5 -35v-290q0 -24 13 -24q6 0 20 7t16 7q4 0 9 -8.5t5 -14.5q0 -8 -21 -21l-67 -41q-23 -15 -27 -15q-6 0 -13 9t-7 15l5 13q5 14 5 28v16q-89 -81 -160 -81q-48 0 -81 27.5t-45 61t-12 68.5zM205 541
l146 146q23 23 38 23q14 0 24.5 -10t10.5 -27q0 -11 -8 -20t-35 -25l-141 -87h-35z" />
    <glyph glyph-name="ucircumflex" unicode="&#xfb;" 
d="M98 144v216q0 13 -8.5 17t-45.5 6q-9 0 -9 19q0 10 16 17l81 34q23 10 30 10q3 0 7 -8.5t4 -13.5l-7 -21q-6 -22 -6 -43v-212q0 -39 10 -65.5t26 -37.5t29 -15t28 -4q45 0 94 29.5t49 48.5v249q0 8 -2.5 11t-11.5 4q-27 2 -34 5t-7 11q0 18 5 22q1 1 9 2t23.5 4.5
t31.5 8.5l23 9t26 11t12 5q4 0 10 -6.5t6 -10.5q0 -6 -14.5 -24t-14.5 -35v-290q0 -24 13 -24q6 0 20 7t16 7q4 0 9 -8.5t5 -14.5q0 -8 -21 -21l-67 -41q-23 -15 -27 -15q-6 0 -13 9t-7 15l5 13q5 14 5 28v16q-89 -81 -160 -81q-48 0 -81 27.5t-45 61t-12 68.5zM306 710
l122 -167l-2 -2h-31l-117 105l-117 -105h-31l-2 2l122 167h56z" />
    <glyph glyph-name="udieresis" unicode="&#xfc;" 
d="M98 144v216q0 13 -8.5 17t-45.5 6q-9 0 -9 19q0 10 16 17l81 34q23 10 30 10q3 0 7 -8.5t4 -13.5l-7 -21q-6 -22 -6 -43v-212q0 -39 10 -65.5t26 -37.5t29 -15t28 -4q45 0 94 29.5t49 48.5v249q0 8 -2.5 11t-11.5 4q-27 2 -34 5t-7 11q0 18 5 22q1 1 9 2t23.5 4.5
t31.5 8.5l23 9t26 11t12 5q4 0 10 -6.5t6 -10.5q0 -6 -14.5 -24t-14.5 -35v-290q0 -24 13 -24q6 0 20 7t16 7q4 0 9 -8.5t5 -14.5q0 -8 -21 -21l-67 -41q-23 -15 -27 -15q-6 0 -13 9t-7 15l5 13q5 14 5 28v16q-89 -81 -160 -81q-48 0 -81 27.5t-45 61t-12 68.5zM330 618
q0 18 14 32t32 14t32 -14t14 -32t-14 -32t-32 -14t-32 14t-14 32zM134 618q0 18 13.5 32t32.5 14q18 0 32 -14t14 -32t-14 -32t-32 -14q-19 0 -32.5 14t-13.5 32z" />
    <glyph glyph-name="yacute" unicode="&#xfd;" 
d="M249 5l-68 134q-105 207 -120 232q-22 35 -44 48q-11 7 -13.5 9.5t-2.5 7.5q0 21 16 21q3 0 28 -6.5t51 -6.5q25 0 50.5 6.5t28.5 6.5q13 0 13 -21q0 -7 -24 -17q-34 -14 -34 -28t56 -127l98 -200l112 214q46 87 46 106q0 11 -7.5 17t-37.5 18q-14 5 -14 18q0 6 5 13
t12 7q2 0 32.5 -6.5t42.5 -6.5q17 0 40 6.5t32 6.5q10 0 10 -21q0 -1 -0.5 -2.5t-1 -2.5t-1.5 -2t-3 -2t-3.5 -2l-4.5 -3t-5 -3q-19 -12 -36 -44l-211 -389q-45 -82 -82 -135t-66 -77t-49.5 -31.5t-44.5 -7.5q-16 0 -22.5 11.5t-6.5 47.5q0 15 32 15q49 0 73 18.5t70 87.5
q34 51 54 90zM205 541l146 146q23 23 38 23q14 0 24.5 -10t10.5 -27q0 -11 -8 -20t-35 -25l-141 -87h-35z" />
    <glyph glyph-name="thorn" unicode="&#xfe;" 
d="M94 -194v844q0 12 -2.5 16t-9.5 4q-37 1 -42 4q-6 2 -6 13q0 14 12 19l62.5 26.5l43.5 18.5t15 5q4 0 8 -8t4 -13q0 -6 -11.5 -18t-11.5 -32v-332h2q31 45 80 74.5t101 29.5q85 0 126 -56t41 -137q0 -110 -61.5 -193.5t-164.5 -83.5q-74 0 -124 39v-207q0 -20 5.5 -25.5
t25.5 -7.5q14 -1 19 -2.5t7 -5t2 -13.5q0 -7 -3 -10.5t-16 -6.5l-91 -21q-19 -5 -26 -5q-4 0 -8.5 6.5t-4.5 11.5q0 9 16 21q12 9 12 45zM156 276v-121q0 -67 38.5 -98.5t82.5 -31.5q61 0 111 57t50 163q0 71 -33.5 113.5t-91.5 42.5q-53 0 -105 -44.5t-52 -80.5z" />
    <glyph glyph-name="ydieresis" unicode="&#xff;" 
d="M249 5l-68 134q-105 207 -120 232q-22 35 -44 48q-11 7 -13.5 9.5t-2.5 7.5q0 21 16 21q3 0 28 -6.5t51 -6.5q25 0 50.5 6.5t28.5 6.5q13 0 13 -21q0 -7 -24 -17q-34 -14 -34 -28t56 -127l98 -200l112 214q46 87 46 106q0 11 -7.5 17t-37.5 18q-14 5 -14 18q0 6 5 13
t12 7q2 0 32.5 -6.5t42.5 -6.5q17 0 40 6.5t32 6.5q10 0 10 -21q0 -1 -0.5 -2.5t-1 -2.5t-1.5 -2t-3 -2t-3.5 -2l-4.5 -3t-5 -3q-19 -12 -36 -44l-211 -389q-45 -82 -82 -135t-66 -77t-49.5 -31.5t-44.5 -7.5q-16 0 -22.5 11.5t-6.5 47.5q0 15 32 15q49 0 73 18.5t70 87.5
q34 51 54 90zM330 618q0 18 14 32t32 14t32 -14t14 -32t-14 -32t-32 -14t-32 14t-14 32zM134 618q0 18 13.5 32t32.5 14q18 0 32 -14t14 -32t-14 -32t-32 -14q-19 0 -32.5 14t-13.5 32z" />
    <glyph glyph-name="dotlessi" unicode="&#x131;" horiz-adv-x="278" 
d="M108 95v261q0 17 -5.5 21t-32.5 6q-19 2 -23 5t-4 14q0 10 16 17l87 38q13 6 19 6t10.5 -6t4.5 -13q0 -2 -2.5 -7.5t-5 -16t-2.5 -25.5v-300q0 -40 10.5 -50.5t56.5 -19.5q15 -3 15 -15q0 -23 -15 -23q-6 0 -42 6.5t-56 6.5t-56 -6.5t-42 -6.5q-15 0 -15 23q0 12 15 15
q46 9 56.5 19.5t10.5 50.5z" />
    <glyph glyph-name="Lslash" unicode="&#x141;" horiz-adv-x="537" 
d="M116 81v224l-102 -65q-4 -2 -5 -2q-3 0 -3 7v33q0 8 10 14l100 64v241q0 42 -15 56.5t-59 23.5q-11 2 -13.5 5.5t-2.5 16.5q0 11 4 13.5t12 2.5t47 -6.5t61 -6.5t61 6.5t47 6.5q6 0 8.5 -0.5t5 -4t2.5 -11.5q0 -13 -2.5 -16.5t-13.5 -5.5q-44 -9 -59 -23.5t-15 -56.5
v-197l198 126q4 2 5 2q3 0 3 -7v-33q0 -8 -10 -14l-196 -125v-199q0 -29 1.5 -46.5t8 -31t14 -20t27 -10.5t38 -4.5t54.5 -0.5q78 0 99.5 11t36.5 58q5 17 9.5 21.5t17.5 4.5q16 0 16 -20q0 -6 -5.5 -25t-13 -47.5t-11.5 -52.5q-206 13 -284 13q-55 0 -96 -3.5t-60 -6.5
t-21 -3q-15 0 -15 18q0 12 4 15.5t25 4.5q56 4 71.5 16.5t15.5 39.5z" />
    <glyph glyph-name="lslash" unicode="&#x142;" horiz-adv-x="258" 
d="M98 95v239l-73 -61q-3 -3 -5 -3q-3 0 -3 4v39q0 7 7 14l74 62v261q0 12 -2.5 16t-9.5 4q-37 1 -42 4q-6 2 -6 13q0 14 12 19l106 46q8 4 13 4t9.5 -7.5t4.5 -13.5t-11.5 -18t-11.5 -32v-244l73 60q3 3 5 3q3 0 3 -4v-39q0 -7 -7 -14l-74 -61v-291q0 -40 10.5 -50.5
t56.5 -19.5q15 -3 15 -15q0 -23 -15 -23q-6 0 -42 6.5t-56 6.5t-56 -6.5t-42 -6.5q-15 0 -15 23q0 12 15 15q46 9 56.5 19.5t10.5 50.5z" />
    <glyph glyph-name="OE" unicode="&#x152;" horiz-adv-x="1148" 
d="M134 351q0 -138 78 -223t211 -85t211 85t78 223t-78 223t-211 85t-211 -85t-78 -223zM781 328v-198q0 -28 3 -42t15 -27.5t39.5 -18.5t74.5 -5h25q65 0 85.5 12t32.5 48q9 24 14 30.5t14 6.5t14.5 -6t5.5 -13q0 -5 -6 -28l-14 -53t-11 -47q-14 1 -73 4.5t-120 6t-104 2.5
q-27 0 -62 -6.5t-39 -6.5q-17 0 -17 22q0 15 13 16q25 8 33.5 17.5t8.5 34.5v54h-2q-48 -66 -123 -105t-167 -39q-156 0 -255.5 103.5t-99.5 262.5q0 155 101 258.5t254 103.5q99 0 172.5 -39t117.5 -102h2v64q0 17 -5 25t-23 14q-13 5 -13 18q0 20 15 20q16 0 68 -6
q46 -7 81 -7q24 0 114 3q47 3 57 3q12 0 12 -20q0 -22 3.5 -44.5t3.5 -28.5q0 -14 -5 -20t-19 -6q-6 0 -10 9t-7 24t-5 19q-5 12 -16 17.5t-39 5.5h-144v-286h173q27 0 36.5 6.5t10.5 29.5q2 25 23 25q15 0 15 -17q0 -7 -3 -32t-3 -37t3 -37t3 -32q0 -17 -15 -17
q-21 0 -23 25q-1 23 -10.5 29.5t-36.5 6.5h-173z" />
    <glyph glyph-name="oe" unicode="&#x153;" horiz-adv-x="870" 
d="M794 284l-295 -50v-18q0 -73 38.5 -123t111.5 -50q78 0 140 66q5 5 7 5q4 0 10 -9q9 -13 9 -17t-9 -14q-71 -87 -185 -87q-105 0 -151 91q-31 -44 -80.5 -67.5t-106.5 -23.5q-97 0 -162.5 62t-65.5 173t65.5 173t162.5 62q129 0 192 -99h2q61 99 176 99q58 0 105 -47.5
t47 -113.5q0 -10 -11 -12zM123 222q0 -92 44 -141.5t116 -49.5t116 49.5t44 141.5t-44 141.5t-116 49.5t-116 -49.5t-44 -141.5zM504 270l196 37q31 5 31 24q0 31 -26.5 59.5t-65.5 28.5q-55 0 -91.5 -45t-43.5 -104z" />
    <glyph glyph-name="Scaron" unicode="&#x160;" horiz-adv-x="520" 
d="M79 528q0 34 10 64t33 59t68 46.5t108 17.5q55 0 140 -13v-100q0 -20 -3 -27t-12 -7t-13.5 6.5t-15.5 35.5q-9 23 -14.5 33t-28 22t-60.5 12q-70 0 -107 -37t-37 -103q0 -14 2 -26t8.5 -23l11 -19t17 -18t18 -15t23 -15l23 -13l26.5 -14t26 -13q41 -21 63 -35t48 -38
t37.5 -54.5t11.5 -71.5q0 -72 -58 -133.5t-163 -61.5q-71 0 -174 21l-5 68q0 4 -2 24t-2 27q0 29 21 29q15 0 19 -16q11 -58 43 -83.5t97 -25.5q79 0 117.5 40.5t38.5 98.5q0 51 -28.5 85t-119.5 78q-98 47 -132.5 86t-34.5 109zM250 757l-122 167l2 2h31l117 -105l117 105
h31l2 -2l-122 -167h-56z" />
    <glyph glyph-name="scaron" unicode="&#x161;" horiz-adv-x="407" 
d="M60 9l-11 78q-2 16 -2 20q0 15 8.5 22t16.5 7q17 0 23 -13t8 -49q1 -23 27 -36t66 -13q34 0 64.5 19.5t30.5 64.5q0 33 -24.5 54t-59 32.5l-69 24t-59 39t-24.5 68.5q0 61 44.5 95.5t113.5 34.5q44 0 79.5 -4t35.5 -10q3 -75 3 -76q0 -42 -20 -42q-15 0 -20.5 11.5
t-9.5 59.5q-1 9 -21 16t-43 7q-55 0 -80.5 -26t-25.5 -53t25 -45t60.5 -29t71 -25t60.5 -42t25 -71q0 -141 -171 -141q-52 0 -112 10q-9 1 -10 12zM176 541l-122 167l2 2h31l117 -105l117 105h31l2 -2l-122 -167h-56z" />
    <glyph glyph-name="Ydieresis" unicode="&#x178;" horiz-adv-x="667" 
d="M301 105v175l-226 349q-14 22 -24.5 29.5t-39.5 18.5q-10 3 -12.5 6.5t-2.5 15.5q0 16 18 16q12 0 39 -6.5t47 -6.5q15 0 48 6.5t41 6.5q10 0 12 -3.5t2 -18.5q0 -10 -2.5 -12t-14.5 -4q-26 -5 -35 -9.5t-9 -12.5q0 -7 29 -52l174 -270l173 284q19 32 19 37q0 9 -44 20
q-6 2 -10 3q-11 3 -11 17q0 21 13 21q9 0 39 -6.5t49 -6.5q14 0 47.5 6.5t37.5 6.5q5 0 7 -0.5t4 -5.5t2 -15q0 -15 -17 -17q-45 -7 -62 -34l-223 -363v-175q0 -42 15 -56.5t59 -23.5q11 -2 13.5 -5.5t2.5 -16.5q0 -11 -3.5 -13.5t-12.5 -2.5q-7 0 -46 6.5t-62 6.5
t-61.5 -6.5t-46.5 -6.5q-6 0 -8.5 0.5t-5 4t-2.5 11.5q0 13 2.5 16.5t13.5 5.5q44 9 59 23.5t15 56.5zM386 826q0 18 14 32t32 14t32 -14t14 -32t-14 -32t-32 -14t-32 14t-14 32zM190 826q0 18 13.5 32t32.5 14q18 0 32 -14t14 -32t-14 -32t-32 -14q-19 0 -32.5 14t-13.5 32
z" />
    <glyph glyph-name="Zcaron" unicode="&#x17d;" horiz-adv-x="668" 
d="M24 19l465 633h-379q-60 0 -81 -25q-6 -9 -11 -9q-4 0 -4 7q0 2 2 12l10 68q2 10 6 10q3 0 10 -2t15 -4q28 -7 103 -7h419q13 0 13 -3q0 -1 -8 -12l-465 -637h434q49 0 74 19q3 2 5.5 3.5t4 3t3 2.5t2.5 1.5t2 0.5q3 0 3 -4q0 -2 -2 -14l-13 -68q-1 -7 -4 -7q-1 0 -3 1
t-6.5 2.5t-9.5 3.5q-22 6 -64 6h-518q-10 0 -10 4q0 6 7 15zM276 757l-122 167l2 2h31l117 -105l117 105h31l2 -2l-122 -167h-56z" />
    <glyph glyph-name="zcaron" unicode="&#x17e;" horiz-adv-x="520" 
d="M54 42l314 346h-177q-27 0 -51 -2.5t-39 -6t-25.5 -7t-16 -6t-6.5 -2.5q-8 0 -8 7q0 8 14 72q2 7 9 7q17 0 50 -3q63 -3 76 -3h139q1 0 67 3q33 3 49 3q14 0 14 -23q0 -9 -27 -39l-303 -332h209q32 0 59 2t43 5t27 6t17 5l5 2q7 0 7 -6q0 -14 -8 -45t-16 -31q-2 0 -8.5 1
l-13.5 2q-42 3 -78 3h-212q-56 0 -79 -3l-15.5 -2t-10.5 -1q-6 0 -12.5 5.5t-6.5 17.5q0 10 14 25zM232 541l-122 167l2 2h31l117 -105l117 105h31l2 -2l-122 -167h-56z" />
    <glyph glyph-name="florin" unicode="&#x192;" horiz-adv-x="520" 
d="M136 -43l65 339h-108q-12 0 -12 11v19q0 14 12 14h116l27 130q25 119 71.5 182t126.5 63q76 0 76 -47q0 -14 -9.5 -24.5t-23.5 -10.5q-17 0 -38 16t-43 16q-59 0 -82 -114l-42 -211h129q13 0 13 -8q0 -6 -2 -18l-1 -8q-1 -10 -15 -10h-132q-34 -188 -74 -367
q-19 -86 -67 -143t-121 -57q-26 0 -43.5 10t-23 19.5t-5.5 16.5q0 14 9.5 25.5t26.5 11.5q20 0 41 -16.5t36 -16.5q32 0 52.5 34.5t40.5 143.5z" />
    <glyph glyph-name="circumflex" unicode="&#x2c6;" horiz-adv-x="278" 
d="M167 720l122 -167l-2 -2h-31l-117 105l-117 -105h-31l-2 2l122 167h56z" />
    <glyph glyph-name="caron" unicode="&#x2c7;" horiz-adv-x="278" 
d="M111 551l-122 167l2 2h31l117 -105l117 105h31l2 -2l-122 -167h-56z" />
    <glyph glyph-name="uni02C9" unicode="&#x2c9;" horiz-adv-x="278" 
d="M6 603v50h266v-50h-266z" />
    <glyph glyph-name="breve" unicode="&#x2d8;" horiz-adv-x="278" 
d="M0 720h26q6 -45 36.5 -72t76.5 -27t76.5 27t36.5 72h26q4 -64 -33.5 -109.5t-105.5 -45.5t-105.5 45.5t-33.5 109.5z" />
    <glyph glyph-name="dotaccent" unicode="&#x2d9;" horiz-adv-x="278" 
d="M93 628q0 18 13.5 32t32.5 14q18 0 32 -14t14 -32t-14 -32t-32 -14q-19 0 -32.5 14t-13.5 32z" />
    <glyph glyph-name="ring" unicode="&#x2da;" horiz-adv-x="278" 
d="M42 638q0 40 28 68.5t69 28.5t69 -28.5t28 -68.5t-28 -68.5t-69 -28.5t-69 28.5t-28 68.5zM68 638q0 -29 21 -50t50 -21t50 21t21 50t-21 50t-50 21t-50 -21t-21 -50z" />
    <glyph glyph-name="ogonek" unicode="&#x2db;" horiz-adv-x="278" 
d="M152 0h68q-119 -67 -119 -138q0 -21 17.5 -32t40.5 -11q32 0 57 21l22 -26q-36 -27 -84 -27q-49 0 -85 19.5t-36 64.5q0 22 10.5 42.5t31 36.5t37 27t40.5 23z" />
    <glyph glyph-name="tilde" unicode="&#x2dc;" horiz-adv-x="278" 
d="M3 577h-26q7 42 35.5 70.5t70.5 28.5q22 0 72 -27q42 -22 62 -22q38 0 56 52h28q-10 -42 -37.5 -72t-68.5 -30q-27 0 -73 24q-48 23 -64 23q-42 0 -55 -47z" />
    <glyph glyph-name="hungarumlaut" unicode="&#x2dd;" horiz-adv-x="278" 
d="M170 551l146 146q23 23 38 23q14 0 24.5 -10t10.5 -27q0 -11 -8 -20t-35 -25l-141 -87h-35zM-27 551l146 146q23 23 38 23q14 0 24.5 -10t10.5 -27q0 -11 -8 -20t-35 -25l-141 -87h-35z" />
    <glyph glyph-name="uni03A9" unicode="&#x3a9;" horiz-adv-x="680" 
d="M647 130l-22 -130h-215l-5 16q5 11 28.5 54t36.5 70.5t30.5 71.5t26 88t8.5 88q-1 150 -58 223.5t-138 73.5q-86 0 -140 -74t-54 -228q0 -22 2.5 -44.5t5.5 -41t10.5 -42.5t11.5 -38t15 -39l15 -34.5t18 -35.5t16.5 -31t17.5 -32t16 -28l-7 -17h-213l-21 130l21 2
q14 -49 28.5 -63.5t43.5 -14.5h102q-158 158 -158 335q0 145 78 234t194 89q119 0 193.5 -84.5t74.5 -230.5q0 -164 -159 -343h104q31 0 43.5 13t27.5 65z" />
    <glyph glyph-name="uni03BC" unicode="&#x3bc;" 
d="M458 387v-290q0 -24 13 -24q6 0 20 7t16 7q4 0 9 -8.5t5 -14.5q0 -8 -21 -21l-67 -41q-23 -15 -27 -15q-6 0 -13 9t-7 15l5 13q5 14 5 28v16q-89 -81 -160 -81q-48 0 -80 27q0 -52 2.5 -144.5t2.5 -114.5q0 -20 -35 -20q-21 0 -28 4t-7 19q0 17 3.5 158.5t3.5 219.5v224
q0 13 -8.5 17t-45.5 6q-9 0 -9 19q0 10 16 17l81 34q23 10 30 10q3 0 7 -8.5t4 -13.5l-7 -21q-6 -22 -6 -43v-212q0 -39 10 -65.5t26 -37.5t29 -15t28 -4q45 0 94 29.5t49 48.5v249q0 8 -2.5 11t-11.5 4q-27 2 -34 5t-7 11q0 22 5 22q21 0 64 15l23 9t26 11t12 5
q4 0 10 -6.5t6 -10.5q0 -6 -14.5 -24t-14.5 -35z" />
    <glyph glyph-name="pi" unicode="&#x3c0;" horiz-adv-x="531" 
d="M481 475l21 -9q-9 -43 -33 -76q-20 -4 -68 -4q-4 -49 -4 -254q0 -95 45 -95q23 0 50 34l13 -18q-35 -65 -93 -65q-39 0 -59 28t-20 99q0 106 10 274q-116 2 -159 2v-23q0 -105 -14 -191.5t-27 -123t-23 -48.5q-37 -16 -53 -17l-6 15q49 61 70 173t21 216
q-32 0 -56.5 -7.5t-35.5 -15t-34 -25.5l-13 19q0 1 8 9.5l10 10.5l10 10.5t12 11.5l13.5 10t16.5 10t17.5 8t21 7t23.5 3.5t27 1.5q31 0 115.5 -1.5t135.5 -1.5q23 0 34 6t24 27z" />
    <glyph glyph-name="endash" unicode="&#x2013;" horiz-adv-x="500" 
d="M0 213v50h500v-50h-500z" />
    <glyph glyph-name="emdash" unicode="&#x2014;" horiz-adv-x="1000" 
d="M0 213v50h1000v-50h-1000z" />
    <glyph glyph-name="quoteleft" unicode="&#x2018;" horiz-adv-x="260" 
d="M165 715h31q11 0 11 -3q0 -1 -9.5 -15l-23.5 -35.5l-28 -45t-23.5 -46.5t-9.5 -37q0 -28 27 -28q16 0 28 6q-13 -43 -17 -98q-21 4 -50 4q-25 0 -48 -4q7 154 112 302z" />
    <glyph glyph-name="quoteright" unicode="&#x2019;" horiz-adv-x="260" 
d="M95 413h-31q-11 0 -11 3q0 1 9.5 15l23.5 35.5l28 45t23.5 46.5t9.5 37q0 28 -27 28q-16 0 -28 -6q7 22 11 49q5 26 6 49q21 -4 50 -4q25 0 48 4q-7 -154 -112 -302z" />
    <glyph glyph-name="quotesinglbase" unicode="&#x201a;" horiz-adv-x="260" 
d="M95 -210h-31q-11 0 -11 3q0 1 9.5 15l23.5 35.5l28 45t23.5 46.5t9.5 37q0 28 -27 28q-16 0 -28 -6q13 43 17 98q21 -4 50 -4q25 0 48 4q-7 -154 -112 -302z" />
    <glyph glyph-name="quotedblleft" unicode="&#x201c;" horiz-adv-x="408" 
d="M313 715h31q11 0 11 -3q0 -1 -9.5 -15l-23.5 -35.5l-28 -45t-23.5 -46.5t-9.5 -37q0 -28 27 -28q16 0 28 6q-13 -43 -17 -98q-21 4 -50 4q-25 0 -48 -4q7 154 112 302zM165 715h31q11 0 11 -3q0 -1 -9.5 -15l-23.5 -35.5l-28 -45t-23.5 -46.5t-9.5 -37q0 -28 27 -28
q16 0 28 6q-13 -43 -17 -98q-21 4 -50 4q-25 0 -48 -4q7 154 112 302z" />
    <glyph glyph-name="quotedblright" unicode="&#x201d;" horiz-adv-x="408" 
d="M95 413h-31q-11 0 -11 3q0 1 9.5 15l23.5 35.5l28 45t23.5 46.5t9.5 37q0 28 -27 28q-16 0 -28 -6q13 43 17 98q21 -4 50 -4q25 0 48 4q-7 -154 -112 -302zM243 413h-31q-11 0 -11 3q0 1 9.5 15l23.5 35.5l28 45t23.5 46.5t9.5 37q0 28 -27 28q-16 0 -28 -6q13 43 17 98
q21 -4 50 -4q25 0 48 4q-7 -154 -112 -302z" />
    <glyph glyph-name="quotedblbase" unicode="&#x201e;" horiz-adv-x="408" 
d="M95 -210h-31q-11 0 -11 3q0 1 9.5 15l23.5 35.5l28 45t23.5 46.5t9.5 37q0 28 -27 28q-16 0 -28 -6q13 43 17 98q21 -4 50 -4q25 0 48 4q-7 -154 -112 -302zM243 -210h-31q-11 0 -11 3q0 1 9.5 15l23.5 35.5l28 45t23.5 46.5t9.5 37q0 28 -27 28q-16 0 -28 -6
q13 43 17 98q21 -4 50 -4q25 0 48 4q-7 -154 -112 -302z" />
    <glyph glyph-name="dagger" unicode="&#x2020;" horiz-adv-x="520" 
d="M226 17l18 384l-85 -13q-7 -1 -27 -4.5t-36 -5.5t-25 -2q-15 0 -23 12t-8 28t8 28t23 12l88 -12l85 -14l-18 171q-6 69 -6 71q0 18 11.5 30.5t28.5 12.5t28.5 -12.5t11.5 -30.5q0 -2 -6 -71l-18 -171l85 14q7 1 27 4.5t36 5.5t25 2q15 0 23 -12t8 -28t-8 -28t-23 -12
l-88 12l-85 13l18 -384q6 -135 6 -137q0 -51 -40 -51t-40 51q0 2 6 137z" />
    <glyph glyph-name="daggerdbl" unicode="&#x2021;" horiz-adv-x="520" 
d="M232 -34l13 109l-72 -10q-76 -12 -86 -12q-23 0 -35 7.5t-12 29.5q0 37 38 37q20 0 81 -11l86 -14l-14 170l14 169l-72 -10q-76 -12 -86 -12q-23 0 -35 7.5t-12 29.5q0 37 38 37q20 0 81 -11l86 -14l-13 110q-12 84 -12 96q0 18 10.5 29.5t29.5 11.5t29.5 -11.5
t10.5 -29.5q0 -12 -12 -96l-13 -110l86 14q60 11 81 11q38 0 38 -37q0 -22 -12 -29.5t-35 -7.5q-10 0 -86 12l-72 10l14 -169l-14 -170l86 14q61 11 81 11q38 0 38 -37q-1 -22 -12 -29.5t-35 -7.5q-10 0 -86 12l-72 10l13 -109q12 -84 12 -96q0 -18 -10.5 -29.5t-29.5 -11.5
t-29.5 11.5t-10.5 29.5q0 12 12 96z" />
    <glyph glyph-name="bullet" unicode="&#x2022;" horiz-adv-x="501" 
d="M75 351q0 73 51 124t124 51t124.5 -51t51.5 -124t-51.5 -124.5t-124.5 -51.5t-124 51.5t-51 124.5z" />
    <glyph glyph-name="ellipsis" unicode="&#x2026;" horiz-adv-x="1000" 
d="M115 39q0 22 15 37t37 15t37 -15t15 -37t-15 -37t-37 -15t-37 15t-15 37zM448 39q0 22 15 37t37 15t37 -15t15 -37t-15 -37t-37 -15t-37 15t-15 37zM781 39q0 22 15 37t37 15t37 -15t15 -37t-15 -37t-37 -15t-37 15t-15 37z" />
    <glyph glyph-name="perthousand" unicode="&#x2030;" horiz-adv-x="1000" 
d="M744 148q0 -135 77 -135q39 0 58 42t19 93q0 43 -8 72t-21.5 41.5t-24.5 17t-23 4.5q-11 0 -22.5 -4.5t-24.5 -17.5t-21.5 -42t-8.5 -71zM676 148q0 68 44 114.5t101 46.5q70 0 107.5 -44t37.5 -117q0 -13 -5.5 -35t-19.5 -52.5t-45.5 -52t-74.5 -21.5q-63 0 -104 41.5
t-41 119.5zM34 554q0 68 44 114.5t101 46.5q70 0 107.5 -44t37.5 -117q0 -13 -5.5 -35t-19.5 -52.5t-45.5 -52t-74.5 -21.5q-63 0 -104 41.5t-41 119.5zM102 554q0 -135 77 -135q39 0 58 42t19 93q0 43 -8 72t-21.5 41.5t-24.5 17t-23 4.5q-11 0 -22.5 -4.5t-24.5 -17.5
t-21.5 -42t-8.5 -71zM340 148q0 68 44 114.5t101 46.5q70 0 107.5 -44t37.5 -117q0 -13 -5.5 -35t-19.5 -52.5t-45.5 -52t-74.5 -21.5q-63 0 -104 41.5t-41 119.5zM408 148q0 -135 77 -135q39 0 58 42t19 93q0 43 -8 72t-21.5 41.5t-24.5 17t-23 4.5q-11 0 -22.5 -4.5
t-24.5 -17.5t-21.5 -42t-8.5 -71zM86 -26l455 754h41l-455 -754h-41z" />
    <glyph glyph-name="guilsinglleft" unicode="&#x2039;" horiz-adv-x="278" 
d="M166 84l-109 151l109 157h49l-106 -157l106 -151h-49z" />
    <glyph glyph-name="guilsinglright" unicode="&#x203a;" horiz-adv-x="278" 
d="M63 84l106 151l-106 157h49l109 -157l-109 -151h-49z" />
    <glyph glyph-name="fraction" unicode="&#x2044;" horiz-adv-x="166" 
d="M-165 -26l455 754h41l-455 -754h-41z" />
    <glyph glyph-name="Euro" unicode="&#x20ac;" horiz-adv-x="520" 
d="M475 65l-18 -58q-28 -11 -52.5 -15t-86.5 -4q-101 0 -161.5 77t-70.5 221h-67l13 33h51q-1 9 -1 36q0 22 1 31h-64l13 34h53q27 295 233 295q41 0 90 -9t68 -10l6 -112q0 -6 -5.5 -10.5t-12.5 -4.5q-19 0 -22 18q-5 49 -31 70t-79 21q-153 0 -174 -258h265l-12 -34h-254
q-1 -9 -1 -32v-35h228l-13 -33h-213q7 -123 54.5 -193t119.5 -70q83 0 103 72q6 25 11 33t16 8q23 0 23 -15t-10 -56z" />
    <glyph glyph-name="afii61289" unicode="&#x2113;" horiz-adv-x="380" 
d="M344 105l17 -14q-52 -102 -148 -102q-62 0 -93 39q-30 41 -30 145v93l-58 -46l-12 20l69 59v126q0 133 9.5 187.5t40.5 90.5q31 43 73 43q38 0 59 -37t21 -94q0 -153 -140 -304v-105q0 -96 22 -133.5t66 -37.5q60 0 104 70zM152 487v-135q44 56 71 127.5t27 135.5
q0 46 -12 74.5t-34 28.5q-28 0 -40 -53t-12 -178z" />
    <glyph glyph-name="trademark" unicode="&#x2122;" horiz-adv-x="990" 
d="M129 307v20q35 4 42.5 10.5t7.5 28.5v329h-52q-53 0 -67 -69h-20v89h334v-89h-20q-14 69 -67 69h-52v-328q0 -24 7 -30t43 -10v-20h-156zM436 307v20q31 4 41.5 17t10.5 45v255q0 12 -18.5 31t-48.5 20v20h109l161 -325l167 325h92v-20q-57 -3 -57 -58v-253
q0 -40 5.5 -46t44.5 -11v-20h-155v20q39 5 44 11t5 46v241h-2l-156 -321h-9l-154 319h-2v-234q0 -33 10 -45.5t42 -16.5v-20h-130z" />
    <glyph glyph-name="Omega" unicode="&#x2126;" horiz-adv-x="680" 
d="M647 130l-22 -130h-215l-5 16q5 11 28.5 54t36.5 70.5t30.5 71.5t26 88t8.5 88q-1 150 -58 223.5t-138 73.5q-86 0 -140 -74t-54 -228q0 -22 2.5 -44.5t5.5 -41t10.5 -42.5t11.5 -38t15 -39l15 -34.5t18 -35.5t16.5 -31t17.5 -32t16 -28l-7 -17h-213l-21 130l21 2
q14 -49 28.5 -63.5t43.5 -14.5h102q-158 158 -158 335q0 145 78 234t194 89q119 0 193.5 -84.5t74.5 -230.5q0 -164 -159 -343h104q31 0 43.5 13t27.5 65z" />
    <glyph glyph-name="estimated" unicode="&#x212e;" horiz-adv-x="876" 
d="M841 340h-653q-6 0 -6 -4v-198q0 -11 9 -22q103 -108 247 -108q156 0 260 120h59q-56 -65 -140 -102.5t-180 -37.5q-167 0 -285 106t-118 256q0 151 118 257t285 106q168 0 286 -106t118 -257v-10zM693 366v199q0 14 -10 24q-105 103 -245 103q-142 0 -246 -107
q-10 -10 -10 -24v-195q0 -6 6 -6h501q4 0 4 6z" />
    <glyph glyph-name="partialdiff" unicode="&#x2202;" horiz-adv-x="493" 
d="M246 432h1q36 0 72.5 -18.5t59.5 -54.5q6 65 7 107q2 84 -26 163q-16 43 -52.5 76t-80.5 33q-65 0 -125 -51q-11 -2 -20.5 17t-3.5 34q60 41 129 41q120 0 189 -143q45 -94 45 -233q0 -154 -44 -258q-64 -156 -186 -156q-77 0 -123 54t-46 149q0 94 55 165q26 33 66 54
t83 21zM263 397h-1q-66 0 -110 -60q-43 -70 -43 -179q-1 -58 27 -100t74 -42q69 0 116 108q32 71 47 195q-12 27 -42.5 52.5t-67.5 25.5z" />
    <glyph glyph-name="Delta" unicode="&#x2206;" horiz-adv-x="591" 
d="M557 0h-524v20l244 682l29 10l251 -692v-20zM475 40l-200 561l-196 -561h396z" />
    <glyph glyph-name="product" unicode="&#x220f;" horiz-adv-x="634" 
d="M606 701v-23q-60 -4 -72.5 -13.5t-12.5 -46.5v-614q0 -43 13 -55t70 -16v-22h-228v22q57 4 69 14.5t12 56.5v637q0 20 -6 25.5t-27 5.5h-216q-21 0 -26.5 -4.5t-5.5 -22.5v-641q0 -44 10 -54.5t65 -16.5v-22h-221v22q56 5 69 15.5t13 55.5v614q0 37 -13 46.5t-73 13.5v23
h580z" />
    <glyph glyph-name="summation" unicode="&#x2211;" horiz-adv-x="517" 
d="M494 80l-40 -170h-426v19l217 365l-212 387v20h422q0 -8 4.5 -63t6.5 -88l-23 -5q-10 65 -29 97q-9 18 -28 24t-71 6h-198l187 -336l-215 -367h251q62 0 82.5 18t47.5 100z" />
    <glyph glyph-name="minus" unicode="&#x2212;" horiz-adv-x="600" 
d="M47 228v50h506v-50h-506z" />
    <glyph glyph-name="uni2215" unicode="&#x2215;" horiz-adv-x="166" 
d="M-165 -26l455 754h41l-455 -754h-41z" />
    <glyph glyph-name="uni2219" unicode="&#x2219;" horiz-adv-x="260" 
d="M78 301q0 22 15 37t37 15t37 -15t15 -37t-15 -37t-37 -15t-37 15t-15 37z" />
    <glyph glyph-name="radical" unicode="&#x221a;" horiz-adv-x="520" 
d="M500 906l-155 -1049l-16 -9l-208 557l-83 -40l-10 29l137 65l168 -460h2l131 915z" />
    <glyph glyph-name="infinity" unicode="&#x221e;" horiz-adv-x="725" 
d="M678 293v-2q0 -66 -42.5 -107.5t-100.5 -41.5q-42 0 -81 26.5t-91 85.5q-31 -36 -51.5 -56t-55 -38t-70.5 -18q-58 0 -99 42t-41 104q0 64 41.5 106t105.5 42q48 0 88 -29t86 -82l30 33.5t28.5 27.5t36 27.5t35.5 14.5t45 8q61 0 98.5 -40t37.5 -103zM192 186h1
q15 0 30 5.5t25.5 11t26.5 19t22 19.5t22.5 24t19.5 21l-33.5 40t-31.5 32t-42 28t-45 8q-43 0 -68.5 -31t-25.5 -76q0 -43 28 -72t71 -29zM537 394h-1q-18 0 -35.5 -6.5t-35 -21t-27.5 -24t-27.5 -29.5t-20.5 -23q53 -59 83 -81.5t65 -22.5q43 0 68.5 31t25.5 71
q0 49 -26.5 77.5t-68.5 28.5z" />
    <glyph glyph-name="integral" unicode="&#x222b;" horiz-adv-x="349" 
d="M155 23l-18 425q-4 98 1 172t17.5 118t32 71t40.5 36.5t47 9.5q19 0 35 -10.5t17 -29.5q0 -16 -10.5 -25.5t-25.5 -9.5t-26.5 18.5t-22.5 18.5q-13 0 -24 -13t-18.5 -54t-4.5 -107l17 -394q6 -134 -2.5 -225t-30.5 -135.5t-46.5 -61.5t-57.5 -17q-23 0 -38 12.5t-15 29.5
q-1 16 11.5 27t30.5 11q13 0 24.5 -19.5t22.5 -19.5q23 0 35.5 47t8.5 125z" />
    <glyph glyph-name="approxequal" unicode="&#x2248;" horiz-adv-x="514" 
d="M443 423l29 -25q-42 -90 -119 -90q-38 0 -106 38q-52 32 -85 32q-49 0 -91 -70l-31 24q45 90 127 90q13 0 25 -2t25 -7.5t18.5 -8.5t20 -11.5t15.5 -8.5q3 -2 11.5 -6.5t11 -6l9.5 -5.5t10.5 -5t10 -3.5t10.5 -3t10 -1.5t12 -1q47 0 87 71zM443 265l29 -25
q-44 -90 -119 -90q-39 0 -106 39q-55 32 -85 32t-50.5 -18.5t-40.5 -52.5l-31 24q46 91 127 91q16 0 33 -4.5t26 -9t25.5 -13.5t19.5 -11q3 -1 14 -8t14.5 -8.5t13 -6t14.5 -6t13 -3t16 -1.5q27 0 46.5 17t40.5 54z" />
    <glyph glyph-name="notequal" unicode="&#x2260;" horiz-adv-x="514" 
d="M365 489l-41 -91h142v-45h-160l-61 -136h221v-46h-240l-48 -108l-36 16l41 92h-136v46h155l61 136h-216v45h234l48 107z" />
    <glyph glyph-name="lessequal" unicode="&#x2264;" horiz-adv-x="514" 
d="M464 105l-412 215v47l412 213v-55l-363 -180v-2l363 -182v-56zM467 19h-419v47h419v-47z" />
    <glyph glyph-name="greaterequal" unicode="&#x2265;" horiz-adv-x="514" 
d="M53 580l412 -213v-48l-412 -214v56l363 181v2l-363 181v55zM466 19h-418v47h418v-47z" />
    <glyph glyph-name="lozenge" unicode="&#x25ca;" horiz-adv-x="527" 
d="M478 340l-188 -406h-54l-188 406l189 409h53zM427 340l-162 357h-2l-164 -355l164 -358h2z" />
    </font>
</defs>
</svg>
